M48
; DRILL file {KiCad 5.1.5-52549c5~84~ubuntu16.04.1} date Tue 24 Mar 2020 04:17:17 PM -03
; FORMAT={-:-/ absolute / inch / decimal}
; #@! TF.CreationDate,2020-03-24T16:17:17-03:00
; #@! TF.GenerationSoftware,Kicad,Pcbnew,5.1.5-52549c5~84~ubuntu16.04.1
FMAT,2
INCH
T1C0.0157
T2C0.0256
T3C0.0295
T4C0.0394
T5C0.0197
T6C0.0217
T7C0.0472
T8C0.0630
%
G90
G05
T1
X5.869Y-3.6087
X5.8726Y-4.3812
X5.8905Y-3.3257
X5.9606Y-4.4933
X5.9803Y-3.9105
X6.1032Y-4.3467
X6.154Y-4.228
X6.1556Y-4.1893
X6.1562Y-4.0688
X6.1613Y-3.766
X6.1717Y-4.6281
X6.1808Y-3.2303
X6.1812Y-4.8442
X6.2194Y-4.2983
X6.2249Y-4.132
X6.3048Y-3.1567
X6.3514Y-3.9406
X6.4291Y-3.8743
X6.4335Y-4.3771
X6.4927Y-4.0782
X6.5186Y-3.5361
X6.6179Y-3.3874
X6.6924Y-3.4619
X6.6959Y-3.3251
X6.725Y-3.1411
X6.7299Y-4.0664
X6.7342Y-3.7646
X6.7395Y-4.3671
X6.7981Y-3.3869
X6.8082Y-3.2305
X6.8789Y-3.4755
X6.9173Y-4.3504
X6.9352Y-4.0378
X6.9379Y-3.776
X6.946Y-4.2482
X7.0256Y-4.2439
X7.0371Y-3.9416
X7.0765Y-4.3776
X7.0958Y-3.3822
X7.1666Y-3.317
X7.1693Y-3.4474
X7.1727Y-4.3785
X7.1762Y-3.7733
X7.2095Y-3.1494
X7.2913Y-4.3543
X7.3059Y-4.1096
X7.3212Y-3.7699
X7.3735Y-4.6131
X7.3838Y-3.7024
X7.398Y-3.8353
X7.4287Y-3.5194
X7.4319Y-3.2222
X7.4789Y-3.9021
X7.4898Y-3.4584
X7.5467Y-4.8217
X7.5483Y-3.2357
X7.5619Y-3.5283
X7.5688Y-4.6219
X7.5795Y-3.5646
X7.6309Y-4.1271
X7.6369Y-4.3552
X7.6836Y-3.1288
X7.7566Y-3.7643
X7.7597Y-3.4904
X7.7642Y-4.3464
X7.7699Y-3.5538
X7.8153Y-3.63
X7.8285Y-4.003
X7.8931Y-3.7715
X7.9003Y-4.3429
X7.903Y-3.9373
X7.9076Y-4.1995
X7.9362Y-3.3379
X7.9754Y-4.6952
X7.9754Y-4.7587
X7.9757Y-4.633
X7.9922Y-3.2588
X7.9949Y-3.1735
X8.0044Y-4.5691
X8.0046Y-4.1419
X8.0052Y-3.407
X8.0086Y-4.3422
X8.014Y-3.9198
X8.0148Y-3.7041
X8.0297Y-4.8923
X8.0646Y-3.3781
X8.1029Y-4.9699
X8.155Y-3.2878
X8.1638Y-3.7809
T2
X8.1825Y-4.8497
X8.1825Y-4.8997
T3
X7.7209Y-3.2168
X7.8391Y-3.2168
T4
X7.6519Y-4.6241
X7.6519Y-4.7241
X7.6519Y-4.8241
X6.0771Y-4.6278
X6.0771Y-4.7278
X6.0771Y-4.8278
X7.8572Y-4.6251
X7.8572Y-4.7251
X7.8572Y-4.8251
X6.0272Y-4.9698
X6.1272Y-4.9698
X6.2272Y-4.9698
X6.3272Y-4.9698
X6.4272Y-4.9698
X6.5272Y-4.9698
X6.6272Y-4.9698
X6.7272Y-4.9698
X6.8272Y-4.9698
X6.9272Y-4.9698
X7.0272Y-4.9698
X7.1272Y-4.9698
X7.2272Y-4.9698
X7.3272Y-4.9698
X7.4272Y-4.9698
X7.5272Y-4.9698
X7.6272Y-4.9698
X7.7272Y-4.9698
X7.8272Y-4.9698
X7.9272Y-4.9698
X8.0272Y-4.9698
X5.9282Y-4.6278
X5.9282Y-4.7278
X5.9282Y-4.8278
X7.0429Y-4.6287
X7.0429Y-4.7287
X7.0429Y-4.8287
X6.4394Y-3.2402
X6.5394Y-3.2402
X6.8838Y-3.5933
X6.9838Y-3.5933
X7.0838Y-3.5933
X7.1838Y-3.5933
T6
X8.068Y-3.4437
X8.068Y-3.6011
T7
X6.0307Y-3.1496
X6.0307Y-3.3858
T8
X6.5019Y-4.2347
X7.5255Y-4.2347
T5
G00X5.9507Y-4.1437
M15
G01X5.9507Y-4.1949
M16
G05
G00X8.0767Y-4.1437
M15
G01X8.0767Y-4.1949
M16
G05
T0
M30
