G04 #@! TF.GenerationSoftware,KiCad,Pcbnew,5.1.5-52549c5~84~ubuntu16.04.1*
G04 #@! TF.CreationDate,2020-03-24T16:17:06-03:00*
G04 #@! TF.ProjectId,microbit_hat1_rd,6d696372-6f62-4697-945f-686174315f72,rev?*
G04 #@! TF.SameCoordinates,Original*
G04 #@! TF.FileFunction,Legend,Top*
G04 #@! TF.FilePolarity,Positive*
%FSLAX46Y46*%
G04 Gerber Fmt 4.6, Leading zero omitted, Abs format (unit mm)*
G04 Created by KiCad (PCBNEW 5.1.5-52549c5~84~ubuntu16.04.1) date 2020-03-24 16:17:06*
%MOMM*%
%LPD*%
G04 APERTURE LIST*
%ADD10C,0.120000*%
%ADD11C,0.150000*%
G04 APERTURE END LIST*
D10*
X206548240Y-103261160D02*
X206548240Y-113861160D01*
X149748240Y-103261160D02*
X149748240Y-113861160D01*
X149748240Y-113861160D02*
X206548240Y-113861160D01*
X149748240Y-103261160D02*
X206548240Y-103261160D01*
X205220880Y-124902920D02*
X205220880Y-126232920D01*
X203890880Y-124902920D02*
X205220880Y-124902920D01*
X202620880Y-124902920D02*
X202620880Y-127562920D01*
X202620880Y-127562920D02*
X151760880Y-127562920D01*
X202620880Y-124902920D02*
X151760880Y-124902920D01*
X151760880Y-124902920D02*
X151760880Y-127562920D01*
X186753140Y-86962820D02*
X186753140Y-84512820D01*
X183533140Y-85162820D02*
X183533140Y-86962820D01*
X196379740Y-93467760D02*
X196379740Y-91017760D01*
X193159740Y-91667760D02*
X193159740Y-93467760D01*
X181391192Y-97529580D02*
X180868688Y-97529580D01*
X181391192Y-98949580D02*
X180868688Y-98949580D01*
X180884900Y-95075752D02*
X180884900Y-94553248D01*
X179464900Y-95075752D02*
X179464900Y-94553248D01*
X184631588Y-94649360D02*
X185154092Y-94649360D01*
X184631588Y-93229360D02*
X185154092Y-93229360D01*
X185918208Y-82597060D02*
X186440712Y-82597060D01*
X185918208Y-81177060D02*
X186440712Y-81177060D01*
X199185788Y-94728100D02*
X199708292Y-94728100D01*
X199185788Y-93308100D02*
X199708292Y-93308100D01*
X194523728Y-96323220D02*
X195046232Y-96323220D01*
X194523728Y-94903220D02*
X195046232Y-94903220D01*
X198242880Y-116147540D02*
X199572880Y-116147540D01*
X198242880Y-117477540D02*
X198242880Y-116147540D01*
X198242880Y-118747540D02*
X200902880Y-118747540D01*
X200902880Y-118747540D02*
X200902880Y-123887540D01*
X198242880Y-118747540D02*
X198242880Y-123887540D01*
X198242880Y-123887540D02*
X200902880Y-123887540D01*
X193028260Y-116122140D02*
X194358260Y-116122140D01*
X193028260Y-117452140D02*
X193028260Y-116122140D01*
X193028260Y-118722140D02*
X195688260Y-118722140D01*
X195688260Y-118722140D02*
X195688260Y-123862140D01*
X193028260Y-118722140D02*
X193028260Y-123862140D01*
X193028260Y-123862140D02*
X195688260Y-123862140D01*
X177559660Y-116238980D02*
X178889660Y-116238980D01*
X177559660Y-117568980D02*
X177559660Y-116238980D01*
X177559660Y-118838980D02*
X180219660Y-118838980D01*
X180219660Y-118838980D02*
X180219660Y-123978980D01*
X177559660Y-118838980D02*
X177559660Y-123978980D01*
X177559660Y-123978980D02*
X180219660Y-123978980D01*
X151906280Y-123956120D02*
X150576280Y-123956120D01*
X151906280Y-122626120D02*
X151906280Y-123956120D01*
X151906280Y-121356120D02*
X149246280Y-121356120D01*
X149246280Y-121356120D02*
X149246280Y-116216120D01*
X151906280Y-121356120D02*
X151906280Y-116216120D01*
X151906280Y-116216120D02*
X149246280Y-116216120D01*
X155688340Y-123956120D02*
X154358340Y-123956120D01*
X155688340Y-122626120D02*
X155688340Y-123956120D01*
X155688340Y-121356120D02*
X153028340Y-121356120D01*
X153028340Y-121356120D02*
X153028340Y-116216120D01*
X155688340Y-121356120D02*
X155688340Y-116216120D01*
X155688340Y-116216120D02*
X153028340Y-116216120D01*
X206725500Y-122422380D02*
X207835500Y-122422380D01*
X206725500Y-123182380D02*
X206725500Y-122422380D01*
X208398971Y-123942380D02*
X208945500Y-123942380D01*
X206725500Y-123942380D02*
X207272029Y-123942380D01*
X208945500Y-123942380D02*
X208945500Y-125147380D01*
X206725500Y-123942380D02*
X206725500Y-125147380D01*
X208143030Y-125147380D02*
X208945500Y-125147380D01*
X206725500Y-125147380D02*
X207527970Y-125147380D01*
X208177340Y-93228960D02*
X208527340Y-93228960D01*
X208177340Y-85708960D02*
X208527340Y-85708960D01*
X204167340Y-85708960D02*
X204167340Y-87268960D01*
X205977340Y-85708960D02*
X204167340Y-85708960D01*
X204167340Y-93228960D02*
X204167340Y-91668960D01*
X205977340Y-93228960D02*
X204167340Y-93228960D01*
X200295640Y-87011880D02*
X197745640Y-87011880D01*
X200295640Y-85311880D02*
X197745640Y-85311880D01*
X200295640Y-87011880D02*
X200295640Y-85311880D01*
X195137380Y-98704520D02*
X192277380Y-98704520D01*
X195137380Y-100624520D02*
X195137380Y-98704520D01*
X192277380Y-100624520D02*
X195137380Y-100624520D01*
X197910320Y-89932140D02*
X200460320Y-89932140D01*
X197910320Y-91632140D02*
X200460320Y-91632140D01*
X197910320Y-89932140D02*
X197910320Y-91632140D01*
X178723360Y-95098392D02*
X178723360Y-94575888D01*
X177303360Y-95098392D02*
X177303360Y-94575888D01*
X191240340Y-86432648D02*
X191240340Y-86955152D01*
X192660340Y-86432648D02*
X192660340Y-86955152D01*
X187595580Y-90300552D02*
X187595580Y-89778048D01*
X186175580Y-90300552D02*
X186175580Y-89778048D01*
X191159200Y-90902312D02*
X191159200Y-90379808D01*
X189739200Y-90902312D02*
X189739200Y-90379808D01*
X189121980Y-96138208D02*
X189121980Y-96660712D01*
X190541980Y-96138208D02*
X190541980Y-96660712D01*
X178339980Y-98209100D02*
G75*
G03X178339980Y-98209100I-700000J0D01*
G01*
X162230000Y-80970000D02*
X162230000Y-83630000D01*
X164830000Y-80970000D02*
X162230000Y-80970000D01*
X164830000Y-83630000D02*
X162230000Y-83630000D01*
X164830000Y-80970000D02*
X164830000Y-83630000D01*
X166100000Y-80970000D02*
X167430000Y-80970000D01*
X167430000Y-80970000D02*
X167430000Y-82300000D01*
D11*
X179702887Y-104888302D02*
X179655268Y-104935921D01*
X179512411Y-104983540D01*
X179417173Y-104983540D01*
X179274316Y-104935921D01*
X179179078Y-104840683D01*
X179131459Y-104745445D01*
X179083840Y-104554969D01*
X179083840Y-104412112D01*
X179131459Y-104221636D01*
X179179078Y-104126398D01*
X179274316Y-104031160D01*
X179417173Y-103983540D01*
X179512411Y-103983540D01*
X179655268Y-104031160D01*
X179702887Y-104078779D01*
X180655268Y-104983540D02*
X180083840Y-104983540D01*
X180369554Y-104983540D02*
X180369554Y-103983540D01*
X180274316Y-104126398D01*
X180179078Y-104221636D01*
X180083840Y-104269255D01*
X181083840Y-104888302D02*
X181131459Y-104935921D01*
X181083840Y-104983540D01*
X181036220Y-104935921D01*
X181083840Y-104888302D01*
X181083840Y-104983540D01*
X182083840Y-104983540D02*
X181512411Y-104983540D01*
X181798125Y-104983540D02*
X181798125Y-103983540D01*
X181702887Y-104126398D01*
X181607649Y-104221636D01*
X181512411Y-104269255D01*
X205673260Y-126566253D02*
X206387546Y-126566253D01*
X206530403Y-126613872D01*
X206625641Y-126709110D01*
X206673260Y-126851967D01*
X206673260Y-126947205D01*
X205768499Y-126137681D02*
X205720880Y-126090062D01*
X205673260Y-125994824D01*
X205673260Y-125756729D01*
X205720880Y-125661491D01*
X205768499Y-125613872D01*
X205863737Y-125566253D01*
X205958975Y-125566253D01*
X206101832Y-125613872D01*
X206673260Y-126185300D01*
X206673260Y-125566253D01*
X187495520Y-86824724D02*
X188305044Y-86824724D01*
X188400282Y-86777105D01*
X188447901Y-86729486D01*
X188495520Y-86634248D01*
X188495520Y-86443772D01*
X188447901Y-86348534D01*
X188400282Y-86300915D01*
X188305044Y-86253296D01*
X187495520Y-86253296D01*
X187495520Y-85872343D02*
X187495520Y-85253296D01*
X187876473Y-85586629D01*
X187876473Y-85443772D01*
X187924092Y-85348534D01*
X187971711Y-85300915D01*
X188066949Y-85253296D01*
X188305044Y-85253296D01*
X188400282Y-85300915D01*
X188447901Y-85348534D01*
X188495520Y-85443772D01*
X188495520Y-85729486D01*
X188447901Y-85824724D01*
X188400282Y-85872343D01*
X191687200Y-93329664D02*
X192496724Y-93329664D01*
X192591962Y-93282045D01*
X192639581Y-93234426D01*
X192687200Y-93139188D01*
X192687200Y-92948712D01*
X192639581Y-92853474D01*
X192591962Y-92805855D01*
X192496724Y-92758236D01*
X191687200Y-92758236D01*
X191782439Y-92329664D02*
X191734820Y-92282045D01*
X191687200Y-92186807D01*
X191687200Y-91948712D01*
X191734820Y-91853474D01*
X191782439Y-91805855D01*
X191877677Y-91758236D01*
X191972915Y-91758236D01*
X192115772Y-91805855D01*
X192687200Y-92377283D01*
X192687200Y-91758236D01*
X203789494Y-81923521D02*
X203932351Y-81971140D01*
X204170446Y-81971140D01*
X204265684Y-81923521D01*
X204313303Y-81875902D01*
X204360922Y-81780664D01*
X204360922Y-81685426D01*
X204313303Y-81590188D01*
X204265684Y-81542569D01*
X204170446Y-81494950D01*
X203979970Y-81447331D01*
X203884732Y-81399712D01*
X203837113Y-81352093D01*
X203789494Y-81256855D01*
X203789494Y-81161617D01*
X203837113Y-81066379D01*
X203884732Y-81018760D01*
X203979970Y-80971140D01*
X204218065Y-80971140D01*
X204360922Y-81018760D01*
X204694256Y-80971140D02*
X204932351Y-81971140D01*
X205122827Y-81256855D01*
X205313303Y-81971140D01*
X205551399Y-80971140D01*
X205694256Y-82066379D02*
X206456160Y-82066379D01*
X207218065Y-81971140D02*
X206646637Y-81971140D01*
X206932351Y-81971140D02*
X206932351Y-80971140D01*
X206837113Y-81113998D01*
X206741875Y-81209236D01*
X206646637Y-81256855D01*
X180167707Y-100657920D02*
X179834374Y-100181730D01*
X179596279Y-100657920D02*
X179596279Y-99657920D01*
X179977231Y-99657920D01*
X180072469Y-99705540D01*
X180120088Y-99753159D01*
X180167707Y-99848397D01*
X180167707Y-99991254D01*
X180120088Y-100086492D01*
X180072469Y-100134111D01*
X179977231Y-100181730D01*
X179596279Y-100181730D01*
X181024850Y-99991254D02*
X181024850Y-100657920D01*
X180786755Y-99610301D02*
X180548660Y-100324587D01*
X181167707Y-100324587D01*
X181548660Y-100562682D02*
X181596279Y-100610301D01*
X181548660Y-100657920D01*
X181501040Y-100610301D01*
X181548660Y-100562682D01*
X181548660Y-100657920D01*
X181977231Y-99753159D02*
X182024850Y-99705540D01*
X182120088Y-99657920D01*
X182358183Y-99657920D01*
X182453421Y-99705540D01*
X182501040Y-99753159D01*
X182548660Y-99848397D01*
X182548660Y-99943635D01*
X182501040Y-100086492D01*
X181929612Y-100657920D01*
X182548660Y-100657920D01*
X182712620Y-95755032D02*
X182236430Y-96088365D01*
X182712620Y-96326460D02*
X181712620Y-96326460D01*
X181712620Y-95945508D01*
X181760240Y-95850270D01*
X181807859Y-95802651D01*
X181903097Y-95755032D01*
X182045954Y-95755032D01*
X182141192Y-95802651D01*
X182188811Y-95850270D01*
X182236430Y-95945508D01*
X182236430Y-96326460D01*
X182045954Y-94897889D02*
X182712620Y-94897889D01*
X181665001Y-95135984D02*
X182379287Y-95374080D01*
X182379287Y-94755032D01*
X182617382Y-94374080D02*
X182665001Y-94326460D01*
X182712620Y-94374080D01*
X182665001Y-94421699D01*
X182617382Y-94374080D01*
X182712620Y-94374080D01*
X181712620Y-93993127D02*
X181712620Y-93374080D01*
X182093573Y-93707413D01*
X182093573Y-93564556D01*
X182141192Y-93469318D01*
X182188811Y-93421699D01*
X182284049Y-93374080D01*
X182522144Y-93374080D01*
X182617382Y-93421699D01*
X182665001Y-93469318D01*
X182712620Y-93564556D01*
X182712620Y-93850270D01*
X182665001Y-93945508D01*
X182617382Y-93993127D01*
X183909127Y-96251020D02*
X183575794Y-95774830D01*
X183337699Y-96251020D02*
X183337699Y-95251020D01*
X183718651Y-95251020D01*
X183813889Y-95298640D01*
X183861508Y-95346259D01*
X183909127Y-95441497D01*
X183909127Y-95584354D01*
X183861508Y-95679592D01*
X183813889Y-95727211D01*
X183718651Y-95774830D01*
X183337699Y-95774830D01*
X184766270Y-95584354D02*
X184766270Y-96251020D01*
X184528175Y-95203401D02*
X184290080Y-95917687D01*
X184909127Y-95917687D01*
X185290080Y-96155782D02*
X185337699Y-96203401D01*
X185290080Y-96251020D01*
X185242460Y-96203401D01*
X185290080Y-96155782D01*
X185290080Y-96251020D01*
X186194841Y-95584354D02*
X186194841Y-96251020D01*
X185956746Y-95203401D02*
X185718651Y-95917687D01*
X186337699Y-95917687D01*
X185298507Y-80689440D02*
X184965174Y-80213250D01*
X184727079Y-80689440D02*
X184727079Y-79689440D01*
X185108031Y-79689440D01*
X185203269Y-79737060D01*
X185250888Y-79784679D01*
X185298507Y-79879917D01*
X185298507Y-80022774D01*
X185250888Y-80118012D01*
X185203269Y-80165631D01*
X185108031Y-80213250D01*
X184727079Y-80213250D01*
X185631840Y-79689440D02*
X186250888Y-79689440D01*
X185917555Y-80070393D01*
X186060412Y-80070393D01*
X186155650Y-80118012D01*
X186203269Y-80165631D01*
X186250888Y-80260869D01*
X186250888Y-80498964D01*
X186203269Y-80594202D01*
X186155650Y-80641821D01*
X186060412Y-80689440D01*
X185774698Y-80689440D01*
X185679460Y-80641821D01*
X185631840Y-80594202D01*
X186679460Y-80594202D02*
X186727079Y-80641821D01*
X186679460Y-80689440D01*
X186631840Y-80641821D01*
X186679460Y-80594202D01*
X186679460Y-80689440D01*
X187679460Y-80689440D02*
X187108031Y-80689440D01*
X187393745Y-80689440D02*
X187393745Y-79689440D01*
X187298507Y-79832298D01*
X187203269Y-79927536D01*
X187108031Y-79975155D01*
X198566087Y-96223080D02*
X198232754Y-95746890D01*
X197994659Y-96223080D02*
X197994659Y-95223080D01*
X198375611Y-95223080D01*
X198470849Y-95270700D01*
X198518468Y-95318319D01*
X198566087Y-95413557D01*
X198566087Y-95556414D01*
X198518468Y-95651652D01*
X198470849Y-95699271D01*
X198375611Y-95746890D01*
X197994659Y-95746890D01*
X198947040Y-95318319D02*
X198994659Y-95270700D01*
X199089897Y-95223080D01*
X199327992Y-95223080D01*
X199423230Y-95270700D01*
X199470849Y-95318319D01*
X199518468Y-95413557D01*
X199518468Y-95508795D01*
X199470849Y-95651652D01*
X198899420Y-96223080D01*
X199518468Y-96223080D01*
X199947040Y-96127842D02*
X199994659Y-96175461D01*
X199947040Y-96223080D01*
X199899420Y-96175461D01*
X199947040Y-96127842D01*
X199947040Y-96223080D01*
X200947040Y-96223080D02*
X200375611Y-96223080D01*
X200661325Y-96223080D02*
X200661325Y-95223080D01*
X200566087Y-95365938D01*
X200470849Y-95461176D01*
X200375611Y-95508795D01*
X194064047Y-97828360D02*
X193730714Y-97352170D01*
X193492619Y-97828360D02*
X193492619Y-96828360D01*
X193873571Y-96828360D01*
X193968809Y-96875980D01*
X194016428Y-96923599D01*
X194064047Y-97018837D01*
X194064047Y-97161694D01*
X194016428Y-97256932D01*
X193968809Y-97304551D01*
X193873571Y-97352170D01*
X193492619Y-97352170D01*
X194445000Y-96923599D02*
X194492619Y-96875980D01*
X194587857Y-96828360D01*
X194825952Y-96828360D01*
X194921190Y-96875980D01*
X194968809Y-96923599D01*
X195016428Y-97018837D01*
X195016428Y-97114075D01*
X194968809Y-97256932D01*
X194397380Y-97828360D01*
X195016428Y-97828360D01*
X195445000Y-97733122D02*
X195492619Y-97780741D01*
X195445000Y-97828360D01*
X195397380Y-97780741D01*
X195445000Y-97733122D01*
X195445000Y-97828360D01*
X195873571Y-96923599D02*
X195921190Y-96875980D01*
X196016428Y-96828360D01*
X196254523Y-96828360D01*
X196349761Y-96875980D01*
X196397380Y-96923599D01*
X196445000Y-97018837D01*
X196445000Y-97114075D01*
X196397380Y-97256932D01*
X195825952Y-97828360D01*
X196445000Y-97828360D01*
X202054246Y-120318280D02*
X202054246Y-121032566D01*
X202006627Y-121175423D01*
X201911389Y-121270661D01*
X201768532Y-121318280D01*
X201673294Y-121318280D01*
X202530437Y-121318280D02*
X202530437Y-120318280D01*
X202911389Y-120318280D01*
X203006627Y-120365900D01*
X203054246Y-120413519D01*
X203101865Y-120508757D01*
X203101865Y-120651614D01*
X203054246Y-120746852D01*
X203006627Y-120794471D01*
X202911389Y-120842090D01*
X202530437Y-120842090D01*
X203959008Y-120651614D02*
X203959008Y-121318280D01*
X203720913Y-120270661D02*
X203482818Y-120984947D01*
X204101865Y-120984947D01*
X190459146Y-120473220D02*
X190459146Y-121187506D01*
X190411527Y-121330363D01*
X190316289Y-121425601D01*
X190173432Y-121473220D01*
X190078194Y-121473220D01*
X190935337Y-121473220D02*
X190935337Y-120473220D01*
X191316289Y-120473220D01*
X191411527Y-120520840D01*
X191459146Y-120568459D01*
X191506765Y-120663697D01*
X191506765Y-120806554D01*
X191459146Y-120901792D01*
X191411527Y-120949411D01*
X191316289Y-120997030D01*
X190935337Y-120997030D01*
X191840099Y-120473220D02*
X192459146Y-120473220D01*
X192125813Y-120854173D01*
X192268670Y-120854173D01*
X192363908Y-120901792D01*
X192411527Y-120949411D01*
X192459146Y-121044649D01*
X192459146Y-121282744D01*
X192411527Y-121377982D01*
X192363908Y-121425601D01*
X192268670Y-121473220D01*
X191982956Y-121473220D01*
X191887718Y-121425601D01*
X191840099Y-121377982D01*
X174896566Y-120473220D02*
X174896566Y-121187506D01*
X174848947Y-121330363D01*
X174753709Y-121425601D01*
X174610852Y-121473220D01*
X174515614Y-121473220D01*
X175372757Y-121473220D02*
X175372757Y-120473220D01*
X175753709Y-120473220D01*
X175848947Y-120520840D01*
X175896566Y-120568459D01*
X175944185Y-120663697D01*
X175944185Y-120806554D01*
X175896566Y-120901792D01*
X175848947Y-120949411D01*
X175753709Y-120997030D01*
X175372757Y-120997030D01*
X176325138Y-120568459D02*
X176372757Y-120520840D01*
X176467995Y-120473220D01*
X176706090Y-120473220D01*
X176801328Y-120520840D01*
X176848947Y-120568459D01*
X176896566Y-120663697D01*
X176896566Y-120758935D01*
X176848947Y-120901792D01*
X176277519Y-121473220D01*
X176896566Y-121473220D01*
X147790920Y-119441173D02*
X148505206Y-119441173D01*
X148648063Y-119488792D01*
X148743301Y-119584030D01*
X148790920Y-119726887D01*
X148790920Y-119822125D01*
X148790920Y-118964982D02*
X147790920Y-118964982D01*
X147790920Y-118584030D01*
X147838540Y-118488792D01*
X147886159Y-118441173D01*
X147981397Y-118393554D01*
X148124254Y-118393554D01*
X148219492Y-118441173D01*
X148267111Y-118488792D01*
X148314730Y-118584030D01*
X148314730Y-118964982D01*
X148790920Y-117441173D02*
X148790920Y-118012601D01*
X148790920Y-117726887D02*
X147790920Y-117726887D01*
X147933778Y-117822125D01*
X148029016Y-117917363D01*
X148076635Y-118012601D01*
X156195780Y-119596113D02*
X156910066Y-119596113D01*
X157052923Y-119643732D01*
X157148161Y-119738970D01*
X157195780Y-119881827D01*
X157195780Y-119977065D01*
X157195780Y-119119922D02*
X156195780Y-119119922D01*
X156195780Y-118738970D01*
X156243400Y-118643732D01*
X156291019Y-118596113D01*
X156386257Y-118548494D01*
X156529114Y-118548494D01*
X156624352Y-118596113D01*
X156671971Y-118643732D01*
X156719590Y-118738970D01*
X156719590Y-119119922D01*
X156195780Y-117929446D02*
X156195780Y-117834208D01*
X156243400Y-117738970D01*
X156291019Y-117691351D01*
X156386257Y-117643732D01*
X156576733Y-117596113D01*
X156814828Y-117596113D01*
X157005304Y-117643732D01*
X157100542Y-117691351D01*
X157148161Y-117738970D01*
X157195780Y-117834208D01*
X157195780Y-117929446D01*
X157148161Y-118024684D01*
X157100542Y-118072303D01*
X157005304Y-118119922D01*
X156814828Y-118167541D01*
X156576733Y-118167541D01*
X156386257Y-118119922D01*
X156291019Y-118072303D01*
X156243400Y-118024684D01*
X156195780Y-117929446D01*
X206724380Y-120935500D02*
X206724380Y-121649786D01*
X206676761Y-121792643D01*
X206581523Y-121887881D01*
X206438666Y-121935500D01*
X206343428Y-121935500D01*
X207152952Y-121030739D02*
X207200571Y-120983120D01*
X207295809Y-120935500D01*
X207533904Y-120935500D01*
X207629142Y-120983120D01*
X207676761Y-121030739D01*
X207724380Y-121125977D01*
X207724380Y-121221215D01*
X207676761Y-121364072D01*
X207105333Y-121935500D01*
X207724380Y-121935500D01*
X208152952Y-121840262D02*
X208200571Y-121887881D01*
X208152952Y-121935500D01*
X208105333Y-121887881D01*
X208152952Y-121840262D01*
X208152952Y-121935500D01*
X209152952Y-121935500D02*
X208581523Y-121935500D01*
X208867238Y-121935500D02*
X208867238Y-120935500D01*
X208772000Y-121078358D01*
X208676761Y-121173596D01*
X208581523Y-121221215D01*
X205531126Y-96099380D02*
X205531126Y-96813666D01*
X205483507Y-96956523D01*
X205388269Y-97051761D01*
X205245412Y-97099380D01*
X205150174Y-97099380D01*
X206531126Y-97099380D02*
X205959698Y-97099380D01*
X206245412Y-97099380D02*
X206245412Y-96099380D01*
X206150174Y-96242238D01*
X206054936Y-96337476D01*
X205959698Y-96385095D01*
X198092559Y-88486240D02*
X198092559Y-87486240D01*
X198330654Y-87486240D01*
X198473511Y-87533860D01*
X198568749Y-87629098D01*
X198616368Y-87724336D01*
X198663987Y-87914812D01*
X198663987Y-88057669D01*
X198616368Y-88248145D01*
X198568749Y-88343383D01*
X198473511Y-88438621D01*
X198330654Y-88486240D01*
X198092559Y-88486240D01*
X198997320Y-87486240D02*
X199616368Y-87486240D01*
X199283035Y-87867193D01*
X199425892Y-87867193D01*
X199521130Y-87914812D01*
X199568749Y-87962431D01*
X199616368Y-88057669D01*
X199616368Y-88295764D01*
X199568749Y-88391002D01*
X199521130Y-88438621D01*
X199425892Y-88486240D01*
X199140178Y-88486240D01*
X199044940Y-88438621D01*
X198997320Y-88391002D01*
X200044940Y-88391002D02*
X200092559Y-88438621D01*
X200044940Y-88486240D01*
X199997320Y-88438621D01*
X200044940Y-88391002D01*
X200044940Y-88486240D01*
X201044940Y-88486240D02*
X200473511Y-88486240D01*
X200759225Y-88486240D02*
X200759225Y-87486240D01*
X200663987Y-87629098D01*
X200568749Y-87724336D01*
X200473511Y-87771955D01*
X191824999Y-101766900D02*
X191824999Y-100766900D01*
X192063094Y-100766900D01*
X192205951Y-100814520D01*
X192301189Y-100909758D01*
X192348808Y-101004996D01*
X192396427Y-101195472D01*
X192396427Y-101338329D01*
X192348808Y-101528805D01*
X192301189Y-101624043D01*
X192205951Y-101719281D01*
X192063094Y-101766900D01*
X191824999Y-101766900D01*
X192777380Y-100862139D02*
X192824999Y-100814520D01*
X192920237Y-100766900D01*
X193158332Y-100766900D01*
X193253570Y-100814520D01*
X193301189Y-100862139D01*
X193348808Y-100957377D01*
X193348808Y-101052615D01*
X193301189Y-101195472D01*
X192729760Y-101766900D01*
X193348808Y-101766900D01*
X193777380Y-101671662D02*
X193824999Y-101719281D01*
X193777380Y-101766900D01*
X193729760Y-101719281D01*
X193777380Y-101671662D01*
X193777380Y-101766900D01*
X194205951Y-100862139D02*
X194253570Y-100814520D01*
X194348808Y-100766900D01*
X194586903Y-100766900D01*
X194682141Y-100814520D01*
X194729760Y-100862139D01*
X194777380Y-100957377D01*
X194777380Y-101052615D01*
X194729760Y-101195472D01*
X194158332Y-101766900D01*
X194777380Y-101766900D01*
X198023979Y-92926160D02*
X198023979Y-91926160D01*
X198262074Y-91926160D01*
X198404931Y-91973780D01*
X198500169Y-92069018D01*
X198547788Y-92164256D01*
X198595407Y-92354732D01*
X198595407Y-92497589D01*
X198547788Y-92688065D01*
X198500169Y-92783303D01*
X198404931Y-92878541D01*
X198262074Y-92926160D01*
X198023979Y-92926160D01*
X198976360Y-92021399D02*
X199023979Y-91973780D01*
X199119217Y-91926160D01*
X199357312Y-91926160D01*
X199452550Y-91973780D01*
X199500169Y-92021399D01*
X199547788Y-92116637D01*
X199547788Y-92211875D01*
X199500169Y-92354732D01*
X198928740Y-92926160D01*
X199547788Y-92926160D01*
X199976360Y-92830922D02*
X200023979Y-92878541D01*
X199976360Y-92926160D01*
X199928740Y-92878541D01*
X199976360Y-92830922D01*
X199976360Y-92926160D01*
X200976360Y-92926160D02*
X200404931Y-92926160D01*
X200690645Y-92926160D02*
X200690645Y-91926160D01*
X200595407Y-92069018D01*
X200500169Y-92164256D01*
X200404931Y-92211875D01*
X176720502Y-95718092D02*
X176768121Y-95765711D01*
X176815740Y-95908568D01*
X176815740Y-96003806D01*
X176768121Y-96146663D01*
X176672883Y-96241901D01*
X176577645Y-96289520D01*
X176387169Y-96337140D01*
X176244312Y-96337140D01*
X176053836Y-96289520D01*
X175958598Y-96241901D01*
X175863360Y-96146663D01*
X175815740Y-96003806D01*
X175815740Y-95908568D01*
X175863360Y-95765711D01*
X175910979Y-95718092D01*
X176149074Y-94860949D02*
X176815740Y-94860949D01*
X175768121Y-95099044D02*
X176482407Y-95337140D01*
X176482407Y-94718092D01*
X176720502Y-94337140D02*
X176768121Y-94289520D01*
X176815740Y-94337140D01*
X176768121Y-94384759D01*
X176720502Y-94337140D01*
X176815740Y-94337140D01*
X176815740Y-93337140D02*
X176815740Y-93908568D01*
X176815740Y-93622854D02*
X175815740Y-93622854D01*
X175958598Y-93718092D01*
X176053836Y-93813330D01*
X176101455Y-93908568D01*
X190676802Y-87603952D02*
X190724421Y-87651571D01*
X190772040Y-87794428D01*
X190772040Y-87889666D01*
X190724421Y-88032523D01*
X190629183Y-88127761D01*
X190533945Y-88175380D01*
X190343469Y-88223000D01*
X190200612Y-88223000D01*
X190010136Y-88175380D01*
X189914898Y-88127761D01*
X189819660Y-88032523D01*
X189772040Y-87889666D01*
X189772040Y-87794428D01*
X189819660Y-87651571D01*
X189867279Y-87603952D01*
X189772040Y-87270619D02*
X189772040Y-86651571D01*
X190152993Y-86984904D01*
X190152993Y-86842047D01*
X190200612Y-86746809D01*
X190248231Y-86699190D01*
X190343469Y-86651571D01*
X190581564Y-86651571D01*
X190676802Y-86699190D01*
X190724421Y-86746809D01*
X190772040Y-86842047D01*
X190772040Y-87127761D01*
X190724421Y-87223000D01*
X190676802Y-87270619D01*
X190676802Y-86223000D02*
X190724421Y-86175380D01*
X190772040Y-86223000D01*
X190724421Y-86270619D01*
X190676802Y-86223000D01*
X190772040Y-86223000D01*
X189867279Y-85794428D02*
X189819660Y-85746809D01*
X189772040Y-85651571D01*
X189772040Y-85413476D01*
X189819660Y-85318238D01*
X189867279Y-85270619D01*
X189962517Y-85223000D01*
X190057755Y-85223000D01*
X190200612Y-85270619D01*
X190772040Y-85842047D01*
X190772040Y-85223000D01*
X185332642Y-91266852D02*
X185380261Y-91314471D01*
X185427880Y-91457328D01*
X185427880Y-91552566D01*
X185380261Y-91695423D01*
X185285023Y-91790661D01*
X185189785Y-91838280D01*
X184999309Y-91885900D01*
X184856452Y-91885900D01*
X184665976Y-91838280D01*
X184570738Y-91790661D01*
X184475500Y-91695423D01*
X184427880Y-91552566D01*
X184427880Y-91457328D01*
X184475500Y-91314471D01*
X184523119Y-91266852D01*
X184427880Y-90933519D02*
X184427880Y-90314471D01*
X184808833Y-90647804D01*
X184808833Y-90504947D01*
X184856452Y-90409709D01*
X184904071Y-90362090D01*
X184999309Y-90314471D01*
X185237404Y-90314471D01*
X185332642Y-90362090D01*
X185380261Y-90409709D01*
X185427880Y-90504947D01*
X185427880Y-90790661D01*
X185380261Y-90885900D01*
X185332642Y-90933519D01*
X185332642Y-89885900D02*
X185380261Y-89838280D01*
X185427880Y-89885900D01*
X185380261Y-89933519D01*
X185332642Y-89885900D01*
X185427880Y-89885900D01*
X185427880Y-88885900D02*
X185427880Y-89457328D01*
X185427880Y-89171614D02*
X184427880Y-89171614D01*
X184570738Y-89266852D01*
X184665976Y-89362090D01*
X184713595Y-89457328D01*
X189156342Y-91522012D02*
X189203961Y-91569631D01*
X189251580Y-91712488D01*
X189251580Y-91807726D01*
X189203961Y-91950583D01*
X189108723Y-92045821D01*
X189013485Y-92093440D01*
X188823009Y-92141060D01*
X188680152Y-92141060D01*
X188489676Y-92093440D01*
X188394438Y-92045821D01*
X188299200Y-91950583D01*
X188251580Y-91807726D01*
X188251580Y-91712488D01*
X188299200Y-91569631D01*
X188346819Y-91522012D01*
X188346819Y-91141060D02*
X188299200Y-91093440D01*
X188251580Y-90998202D01*
X188251580Y-90760107D01*
X188299200Y-90664869D01*
X188346819Y-90617250D01*
X188442057Y-90569631D01*
X188537295Y-90569631D01*
X188680152Y-90617250D01*
X189251580Y-91188679D01*
X189251580Y-90569631D01*
X189156342Y-90141060D02*
X189203961Y-90093440D01*
X189251580Y-90141060D01*
X189203961Y-90188679D01*
X189156342Y-90141060D01*
X189251580Y-90141060D01*
X188346819Y-89712488D02*
X188299200Y-89664869D01*
X188251580Y-89569631D01*
X188251580Y-89331536D01*
X188299200Y-89236298D01*
X188346819Y-89188679D01*
X188442057Y-89141060D01*
X188537295Y-89141060D01*
X188680152Y-89188679D01*
X189251580Y-89760107D01*
X189251580Y-89141060D01*
X191839122Y-97280412D02*
X191886741Y-97328031D01*
X191934360Y-97470888D01*
X191934360Y-97566126D01*
X191886741Y-97708983D01*
X191791503Y-97804221D01*
X191696265Y-97851840D01*
X191505789Y-97899460D01*
X191362932Y-97899460D01*
X191172456Y-97851840D01*
X191077218Y-97804221D01*
X190981980Y-97708983D01*
X190934360Y-97566126D01*
X190934360Y-97470888D01*
X190981980Y-97328031D01*
X191029599Y-97280412D01*
X191029599Y-96899460D02*
X190981980Y-96851840D01*
X190934360Y-96756602D01*
X190934360Y-96518507D01*
X190981980Y-96423269D01*
X191029599Y-96375650D01*
X191124837Y-96328031D01*
X191220075Y-96328031D01*
X191362932Y-96375650D01*
X191934360Y-96947079D01*
X191934360Y-96328031D01*
X191839122Y-95899460D02*
X191886741Y-95851840D01*
X191934360Y-95899460D01*
X191886741Y-95947079D01*
X191839122Y-95899460D01*
X191934360Y-95899460D01*
X191934360Y-94899460D02*
X191934360Y-95470888D01*
X191934360Y-95185174D02*
X190934360Y-95185174D01*
X191077218Y-95280412D01*
X191172456Y-95375650D01*
X191220075Y-95470888D01*
X175044314Y-100196946D02*
X175520504Y-100196946D01*
X174949076Y-100482660D02*
X175282409Y-99482660D01*
X175615742Y-100482660D01*
X175949076Y-100482660D02*
X175949076Y-99482660D01*
X176187171Y-99482660D01*
X176330028Y-99530280D01*
X176425266Y-99625518D01*
X176472885Y-99720756D01*
X176520504Y-99911232D01*
X176520504Y-100054089D01*
X176472885Y-100244565D01*
X176425266Y-100339803D01*
X176330028Y-100435041D01*
X176187171Y-100482660D01*
X175949076Y-100482660D01*
X177520504Y-100387422D02*
X177472885Y-100435041D01*
X177330028Y-100482660D01*
X177234790Y-100482660D01*
X177091933Y-100435041D01*
X176996695Y-100339803D01*
X176949076Y-100244565D01*
X176901457Y-100054089D01*
X176901457Y-99911232D01*
X176949076Y-99720756D01*
X176996695Y-99625518D01*
X177091933Y-99530280D01*
X177234790Y-99482660D01*
X177330028Y-99482660D01*
X177472885Y-99530280D01*
X177520504Y-99577899D01*
X178472885Y-100482660D02*
X177901457Y-100482660D01*
X178187171Y-100482660D02*
X178187171Y-99482660D01*
X178091933Y-99625518D01*
X177996695Y-99720756D01*
X177901457Y-99768375D01*
X162657142Y-79252380D02*
X162657142Y-79966666D01*
X162609523Y-80109523D01*
X162514285Y-80204761D01*
X162371428Y-80252380D01*
X162276190Y-80252380D01*
X162895238Y-80347619D02*
X163657142Y-80347619D01*
X163847619Y-79347619D02*
X163895238Y-79300000D01*
X163990476Y-79252380D01*
X164228571Y-79252380D01*
X164323809Y-79300000D01*
X164371428Y-79347619D01*
X164419047Y-79442857D01*
X164419047Y-79538095D01*
X164371428Y-79680952D01*
X163800000Y-80252380D01*
X164419047Y-80252380D01*
X164990476Y-79680952D02*
X164895238Y-79633333D01*
X164847619Y-79585714D01*
X164800000Y-79490476D01*
X164800000Y-79442857D01*
X164847619Y-79347619D01*
X164895238Y-79300000D01*
X164990476Y-79252380D01*
X165180952Y-79252380D01*
X165276190Y-79300000D01*
X165323809Y-79347619D01*
X165371428Y-79442857D01*
X165371428Y-79490476D01*
X165323809Y-79585714D01*
X165276190Y-79633333D01*
X165180952Y-79680952D01*
X164990476Y-79680952D01*
X164895238Y-79728571D01*
X164847619Y-79776190D01*
X164800000Y-79871428D01*
X164800000Y-80061904D01*
X164847619Y-80157142D01*
X164895238Y-80204761D01*
X164990476Y-80252380D01*
X165180952Y-80252380D01*
X165276190Y-80204761D01*
X165323809Y-80157142D01*
X165371428Y-80061904D01*
X165371428Y-79871428D01*
X165323809Y-79776190D01*
X165276190Y-79728571D01*
X165180952Y-79680952D01*
X166323809Y-80252380D02*
X165752380Y-80252380D01*
X166038095Y-80252380D02*
X166038095Y-79252380D01*
X165942857Y-79395238D01*
X165847619Y-79490476D01*
X165752380Y-79538095D01*
X166704761Y-79347619D02*
X166752380Y-79300000D01*
X166847619Y-79252380D01*
X167085714Y-79252380D01*
X167180952Y-79300000D01*
X167228571Y-79347619D01*
X167276190Y-79442857D01*
X167276190Y-79538095D01*
X167228571Y-79680952D01*
X166657142Y-80252380D01*
X167276190Y-80252380D01*
M02*
