G04 #@! TF.GenerationSoftware,KiCad,Pcbnew,5.1.5-52549c5~84~ubuntu16.04.1*
G04 #@! TF.CreationDate,2020-03-24T16:17:06-03:00*
G04 #@! TF.ProjectId,microbit_hat1_rd,6d696372-6f62-4697-945f-686174315f72,rev?*
G04 #@! TF.SameCoordinates,Original*
G04 #@! TF.FileFunction,Soldermask,Top*
G04 #@! TF.FilePolarity,Negative*
%FSLAX46Y46*%
G04 Gerber Fmt 4.6, Leading zero omitted, Abs format (unit mm)*
G04 Created by KiCad (PCBNEW 5.1.5-52549c5~84~ubuntu16.04.1) date 2020-03-24 16:17:06*
%MOMM*%
%LPD*%
G04 APERTURE LIST*
%ADD10C,0.100000*%
G04 APERTURE END LIST*
D10*
G36*
X186224392Y-125336847D02*
G01*
X186373692Y-125366544D01*
X186537664Y-125434464D01*
X186685234Y-125533067D01*
X186810733Y-125658566D01*
X186909336Y-125806136D01*
X186977256Y-125970108D01*
X187011880Y-126144179D01*
X187011880Y-126321661D01*
X186977256Y-126495732D01*
X186909336Y-126659704D01*
X186810733Y-126807274D01*
X186685234Y-126932773D01*
X186537664Y-127031376D01*
X186373692Y-127099296D01*
X186224392Y-127128993D01*
X186199622Y-127133920D01*
X186022138Y-127133920D01*
X185997368Y-127128993D01*
X185848068Y-127099296D01*
X185684096Y-127031376D01*
X185536526Y-126932773D01*
X185411027Y-126807274D01*
X185312424Y-126659704D01*
X185244504Y-126495732D01*
X185209880Y-126321661D01*
X185209880Y-126144179D01*
X185244504Y-125970108D01*
X185312424Y-125806136D01*
X185411027Y-125658566D01*
X185536526Y-125533067D01*
X185684096Y-125434464D01*
X185848068Y-125366544D01*
X185997368Y-125336847D01*
X186022138Y-125331920D01*
X186199622Y-125331920D01*
X186224392Y-125336847D01*
G37*
G36*
X178604392Y-125336847D02*
G01*
X178753692Y-125366544D01*
X178917664Y-125434464D01*
X179065234Y-125533067D01*
X179190733Y-125658566D01*
X179289336Y-125806136D01*
X179357256Y-125970108D01*
X179391880Y-126144179D01*
X179391880Y-126321661D01*
X179357256Y-126495732D01*
X179289336Y-126659704D01*
X179190733Y-126807274D01*
X179065234Y-126932773D01*
X178917664Y-127031376D01*
X178753692Y-127099296D01*
X178604392Y-127128993D01*
X178579622Y-127133920D01*
X178402138Y-127133920D01*
X178377368Y-127128993D01*
X178228068Y-127099296D01*
X178064096Y-127031376D01*
X177916526Y-126932773D01*
X177791027Y-126807274D01*
X177692424Y-126659704D01*
X177624504Y-126495732D01*
X177589880Y-126321661D01*
X177589880Y-126144179D01*
X177624504Y-125970108D01*
X177692424Y-125806136D01*
X177791027Y-125658566D01*
X177916526Y-125533067D01*
X178064096Y-125434464D01*
X178228068Y-125366544D01*
X178377368Y-125336847D01*
X178402138Y-125331920D01*
X178579622Y-125331920D01*
X178604392Y-125336847D01*
G37*
G36*
X201464392Y-125336847D02*
G01*
X201613692Y-125366544D01*
X201777664Y-125434464D01*
X201925234Y-125533067D01*
X202050733Y-125658566D01*
X202149336Y-125806136D01*
X202217256Y-125970108D01*
X202251880Y-126144179D01*
X202251880Y-126321661D01*
X202217256Y-126495732D01*
X202149336Y-126659704D01*
X202050733Y-126807274D01*
X201925234Y-126932773D01*
X201777664Y-127031376D01*
X201613692Y-127099296D01*
X201464392Y-127128993D01*
X201439622Y-127133920D01*
X201262138Y-127133920D01*
X201237368Y-127128993D01*
X201088068Y-127099296D01*
X200924096Y-127031376D01*
X200776526Y-126932773D01*
X200651027Y-126807274D01*
X200552424Y-126659704D01*
X200484504Y-126495732D01*
X200449880Y-126321661D01*
X200449880Y-126144179D01*
X200484504Y-125970108D01*
X200552424Y-125806136D01*
X200651027Y-125658566D01*
X200776526Y-125533067D01*
X200924096Y-125434464D01*
X201088068Y-125366544D01*
X201237368Y-125336847D01*
X201262138Y-125331920D01*
X201439622Y-125331920D01*
X201464392Y-125336847D01*
G37*
G36*
X198924392Y-125336847D02*
G01*
X199073692Y-125366544D01*
X199237664Y-125434464D01*
X199385234Y-125533067D01*
X199510733Y-125658566D01*
X199609336Y-125806136D01*
X199677256Y-125970108D01*
X199711880Y-126144179D01*
X199711880Y-126321661D01*
X199677256Y-126495732D01*
X199609336Y-126659704D01*
X199510733Y-126807274D01*
X199385234Y-126932773D01*
X199237664Y-127031376D01*
X199073692Y-127099296D01*
X198924392Y-127128993D01*
X198899622Y-127133920D01*
X198722138Y-127133920D01*
X198697368Y-127128993D01*
X198548068Y-127099296D01*
X198384096Y-127031376D01*
X198236526Y-126932773D01*
X198111027Y-126807274D01*
X198012424Y-126659704D01*
X197944504Y-126495732D01*
X197909880Y-126321661D01*
X197909880Y-126144179D01*
X197944504Y-125970108D01*
X198012424Y-125806136D01*
X198111027Y-125658566D01*
X198236526Y-125533067D01*
X198384096Y-125434464D01*
X198548068Y-125366544D01*
X198697368Y-125336847D01*
X198722138Y-125331920D01*
X198899622Y-125331920D01*
X198924392Y-125336847D01*
G37*
G36*
X196384392Y-125336847D02*
G01*
X196533692Y-125366544D01*
X196697664Y-125434464D01*
X196845234Y-125533067D01*
X196970733Y-125658566D01*
X197069336Y-125806136D01*
X197137256Y-125970108D01*
X197171880Y-126144179D01*
X197171880Y-126321661D01*
X197137256Y-126495732D01*
X197069336Y-126659704D01*
X196970733Y-126807274D01*
X196845234Y-126932773D01*
X196697664Y-127031376D01*
X196533692Y-127099296D01*
X196384392Y-127128993D01*
X196359622Y-127133920D01*
X196182138Y-127133920D01*
X196157368Y-127128993D01*
X196008068Y-127099296D01*
X195844096Y-127031376D01*
X195696526Y-126932773D01*
X195571027Y-126807274D01*
X195472424Y-126659704D01*
X195404504Y-126495732D01*
X195369880Y-126321661D01*
X195369880Y-126144179D01*
X195404504Y-125970108D01*
X195472424Y-125806136D01*
X195571027Y-125658566D01*
X195696526Y-125533067D01*
X195844096Y-125434464D01*
X196008068Y-125366544D01*
X196157368Y-125336847D01*
X196182138Y-125331920D01*
X196359622Y-125331920D01*
X196384392Y-125336847D01*
G37*
G36*
X193844392Y-125336847D02*
G01*
X193993692Y-125366544D01*
X194157664Y-125434464D01*
X194305234Y-125533067D01*
X194430733Y-125658566D01*
X194529336Y-125806136D01*
X194597256Y-125970108D01*
X194631880Y-126144179D01*
X194631880Y-126321661D01*
X194597256Y-126495732D01*
X194529336Y-126659704D01*
X194430733Y-126807274D01*
X194305234Y-126932773D01*
X194157664Y-127031376D01*
X193993692Y-127099296D01*
X193844392Y-127128993D01*
X193819622Y-127133920D01*
X193642138Y-127133920D01*
X193617368Y-127128993D01*
X193468068Y-127099296D01*
X193304096Y-127031376D01*
X193156526Y-126932773D01*
X193031027Y-126807274D01*
X192932424Y-126659704D01*
X192864504Y-126495732D01*
X192829880Y-126321661D01*
X192829880Y-126144179D01*
X192864504Y-125970108D01*
X192932424Y-125806136D01*
X193031027Y-125658566D01*
X193156526Y-125533067D01*
X193304096Y-125434464D01*
X193468068Y-125366544D01*
X193617368Y-125336847D01*
X193642138Y-125331920D01*
X193819622Y-125331920D01*
X193844392Y-125336847D01*
G37*
G36*
X191304392Y-125336847D02*
G01*
X191453692Y-125366544D01*
X191617664Y-125434464D01*
X191765234Y-125533067D01*
X191890733Y-125658566D01*
X191989336Y-125806136D01*
X192057256Y-125970108D01*
X192091880Y-126144179D01*
X192091880Y-126321661D01*
X192057256Y-126495732D01*
X191989336Y-126659704D01*
X191890733Y-126807274D01*
X191765234Y-126932773D01*
X191617664Y-127031376D01*
X191453692Y-127099296D01*
X191304392Y-127128993D01*
X191279622Y-127133920D01*
X191102138Y-127133920D01*
X191077368Y-127128993D01*
X190928068Y-127099296D01*
X190764096Y-127031376D01*
X190616526Y-126932773D01*
X190491027Y-126807274D01*
X190392424Y-126659704D01*
X190324504Y-126495732D01*
X190289880Y-126321661D01*
X190289880Y-126144179D01*
X190324504Y-125970108D01*
X190392424Y-125806136D01*
X190491027Y-125658566D01*
X190616526Y-125533067D01*
X190764096Y-125434464D01*
X190928068Y-125366544D01*
X191077368Y-125336847D01*
X191102138Y-125331920D01*
X191279622Y-125331920D01*
X191304392Y-125336847D01*
G37*
G36*
X188764392Y-125336847D02*
G01*
X188913692Y-125366544D01*
X189077664Y-125434464D01*
X189225234Y-125533067D01*
X189350733Y-125658566D01*
X189449336Y-125806136D01*
X189517256Y-125970108D01*
X189551880Y-126144179D01*
X189551880Y-126321661D01*
X189517256Y-126495732D01*
X189449336Y-126659704D01*
X189350733Y-126807274D01*
X189225234Y-126932773D01*
X189077664Y-127031376D01*
X188913692Y-127099296D01*
X188764392Y-127128993D01*
X188739622Y-127133920D01*
X188562138Y-127133920D01*
X188537368Y-127128993D01*
X188388068Y-127099296D01*
X188224096Y-127031376D01*
X188076526Y-126932773D01*
X187951027Y-126807274D01*
X187852424Y-126659704D01*
X187784504Y-126495732D01*
X187749880Y-126321661D01*
X187749880Y-126144179D01*
X187784504Y-125970108D01*
X187852424Y-125806136D01*
X187951027Y-125658566D01*
X188076526Y-125533067D01*
X188224096Y-125434464D01*
X188388068Y-125366544D01*
X188537368Y-125336847D01*
X188562138Y-125331920D01*
X188739622Y-125331920D01*
X188764392Y-125336847D01*
G37*
G36*
X183684392Y-125336847D02*
G01*
X183833692Y-125366544D01*
X183997664Y-125434464D01*
X184145234Y-125533067D01*
X184270733Y-125658566D01*
X184369336Y-125806136D01*
X184437256Y-125970108D01*
X184471880Y-126144179D01*
X184471880Y-126321661D01*
X184437256Y-126495732D01*
X184369336Y-126659704D01*
X184270733Y-126807274D01*
X184145234Y-126932773D01*
X183997664Y-127031376D01*
X183833692Y-127099296D01*
X183684392Y-127128993D01*
X183659622Y-127133920D01*
X183482138Y-127133920D01*
X183457368Y-127128993D01*
X183308068Y-127099296D01*
X183144096Y-127031376D01*
X182996526Y-126932773D01*
X182871027Y-126807274D01*
X182772424Y-126659704D01*
X182704504Y-126495732D01*
X182669880Y-126321661D01*
X182669880Y-126144179D01*
X182704504Y-125970108D01*
X182772424Y-125806136D01*
X182871027Y-125658566D01*
X182996526Y-125533067D01*
X183144096Y-125434464D01*
X183308068Y-125366544D01*
X183457368Y-125336847D01*
X183482138Y-125331920D01*
X183659622Y-125331920D01*
X183684392Y-125336847D01*
G37*
G36*
X181144392Y-125336847D02*
G01*
X181293692Y-125366544D01*
X181457664Y-125434464D01*
X181605234Y-125533067D01*
X181730733Y-125658566D01*
X181829336Y-125806136D01*
X181897256Y-125970108D01*
X181931880Y-126144179D01*
X181931880Y-126321661D01*
X181897256Y-126495732D01*
X181829336Y-126659704D01*
X181730733Y-126807274D01*
X181605234Y-126932773D01*
X181457664Y-127031376D01*
X181293692Y-127099296D01*
X181144392Y-127128993D01*
X181119622Y-127133920D01*
X180942138Y-127133920D01*
X180917368Y-127128993D01*
X180768068Y-127099296D01*
X180604096Y-127031376D01*
X180456526Y-126932773D01*
X180331027Y-126807274D01*
X180232424Y-126659704D01*
X180164504Y-126495732D01*
X180129880Y-126321661D01*
X180129880Y-126144179D01*
X180164504Y-125970108D01*
X180232424Y-125806136D01*
X180331027Y-125658566D01*
X180456526Y-125533067D01*
X180604096Y-125434464D01*
X180768068Y-125366544D01*
X180917368Y-125336847D01*
X180942138Y-125331920D01*
X181119622Y-125331920D01*
X181144392Y-125336847D01*
G37*
G36*
X204791880Y-127133920D02*
G01*
X202989880Y-127133920D01*
X202989880Y-125331920D01*
X204791880Y-125331920D01*
X204791880Y-127133920D01*
G37*
G36*
X155744392Y-125336847D02*
G01*
X155893692Y-125366544D01*
X156057664Y-125434464D01*
X156205234Y-125533067D01*
X156330733Y-125658566D01*
X156429336Y-125806136D01*
X156497256Y-125970108D01*
X156531880Y-126144179D01*
X156531880Y-126321661D01*
X156497256Y-126495732D01*
X156429336Y-126659704D01*
X156330733Y-126807274D01*
X156205234Y-126932773D01*
X156057664Y-127031376D01*
X155893692Y-127099296D01*
X155744392Y-127128993D01*
X155719622Y-127133920D01*
X155542138Y-127133920D01*
X155517368Y-127128993D01*
X155368068Y-127099296D01*
X155204096Y-127031376D01*
X155056526Y-126932773D01*
X154931027Y-126807274D01*
X154832424Y-126659704D01*
X154764504Y-126495732D01*
X154729880Y-126321661D01*
X154729880Y-126144179D01*
X154764504Y-125970108D01*
X154832424Y-125806136D01*
X154931027Y-125658566D01*
X155056526Y-125533067D01*
X155204096Y-125434464D01*
X155368068Y-125366544D01*
X155517368Y-125336847D01*
X155542138Y-125331920D01*
X155719622Y-125331920D01*
X155744392Y-125336847D01*
G37*
G36*
X153204392Y-125336847D02*
G01*
X153353692Y-125366544D01*
X153517664Y-125434464D01*
X153665234Y-125533067D01*
X153790733Y-125658566D01*
X153889336Y-125806136D01*
X153957256Y-125970108D01*
X153991880Y-126144179D01*
X153991880Y-126321661D01*
X153957256Y-126495732D01*
X153889336Y-126659704D01*
X153790733Y-126807274D01*
X153665234Y-126932773D01*
X153517664Y-127031376D01*
X153353692Y-127099296D01*
X153204392Y-127128993D01*
X153179622Y-127133920D01*
X153002138Y-127133920D01*
X152977368Y-127128993D01*
X152828068Y-127099296D01*
X152664096Y-127031376D01*
X152516526Y-126932773D01*
X152391027Y-126807274D01*
X152292424Y-126659704D01*
X152224504Y-126495732D01*
X152189880Y-126321661D01*
X152189880Y-126144179D01*
X152224504Y-125970108D01*
X152292424Y-125806136D01*
X152391027Y-125658566D01*
X152516526Y-125533067D01*
X152664096Y-125434464D01*
X152828068Y-125366544D01*
X152977368Y-125336847D01*
X153002138Y-125331920D01*
X153179622Y-125331920D01*
X153204392Y-125336847D01*
G37*
G36*
X176064392Y-125336847D02*
G01*
X176213692Y-125366544D01*
X176377664Y-125434464D01*
X176525234Y-125533067D01*
X176650733Y-125658566D01*
X176749336Y-125806136D01*
X176817256Y-125970108D01*
X176851880Y-126144179D01*
X176851880Y-126321661D01*
X176817256Y-126495732D01*
X176749336Y-126659704D01*
X176650733Y-126807274D01*
X176525234Y-126932773D01*
X176377664Y-127031376D01*
X176213692Y-127099296D01*
X176064392Y-127128993D01*
X176039622Y-127133920D01*
X175862138Y-127133920D01*
X175837368Y-127128993D01*
X175688068Y-127099296D01*
X175524096Y-127031376D01*
X175376526Y-126932773D01*
X175251027Y-126807274D01*
X175152424Y-126659704D01*
X175084504Y-126495732D01*
X175049880Y-126321661D01*
X175049880Y-126144179D01*
X175084504Y-125970108D01*
X175152424Y-125806136D01*
X175251027Y-125658566D01*
X175376526Y-125533067D01*
X175524096Y-125434464D01*
X175688068Y-125366544D01*
X175837368Y-125336847D01*
X175862138Y-125331920D01*
X176039622Y-125331920D01*
X176064392Y-125336847D01*
G37*
G36*
X158284392Y-125336847D02*
G01*
X158433692Y-125366544D01*
X158597664Y-125434464D01*
X158745234Y-125533067D01*
X158870733Y-125658566D01*
X158969336Y-125806136D01*
X159037256Y-125970108D01*
X159071880Y-126144179D01*
X159071880Y-126321661D01*
X159037256Y-126495732D01*
X158969336Y-126659704D01*
X158870733Y-126807274D01*
X158745234Y-126932773D01*
X158597664Y-127031376D01*
X158433692Y-127099296D01*
X158284392Y-127128993D01*
X158259622Y-127133920D01*
X158082138Y-127133920D01*
X158057368Y-127128993D01*
X157908068Y-127099296D01*
X157744096Y-127031376D01*
X157596526Y-126932773D01*
X157471027Y-126807274D01*
X157372424Y-126659704D01*
X157304504Y-126495732D01*
X157269880Y-126321661D01*
X157269880Y-126144179D01*
X157304504Y-125970108D01*
X157372424Y-125806136D01*
X157471027Y-125658566D01*
X157596526Y-125533067D01*
X157744096Y-125434464D01*
X157908068Y-125366544D01*
X158057368Y-125336847D01*
X158082138Y-125331920D01*
X158259622Y-125331920D01*
X158284392Y-125336847D01*
G37*
G36*
X160824392Y-125336847D02*
G01*
X160973692Y-125366544D01*
X161137664Y-125434464D01*
X161285234Y-125533067D01*
X161410733Y-125658566D01*
X161509336Y-125806136D01*
X161577256Y-125970108D01*
X161611880Y-126144179D01*
X161611880Y-126321661D01*
X161577256Y-126495732D01*
X161509336Y-126659704D01*
X161410733Y-126807274D01*
X161285234Y-126932773D01*
X161137664Y-127031376D01*
X160973692Y-127099296D01*
X160824392Y-127128993D01*
X160799622Y-127133920D01*
X160622138Y-127133920D01*
X160597368Y-127128993D01*
X160448068Y-127099296D01*
X160284096Y-127031376D01*
X160136526Y-126932773D01*
X160011027Y-126807274D01*
X159912424Y-126659704D01*
X159844504Y-126495732D01*
X159809880Y-126321661D01*
X159809880Y-126144179D01*
X159844504Y-125970108D01*
X159912424Y-125806136D01*
X160011027Y-125658566D01*
X160136526Y-125533067D01*
X160284096Y-125434464D01*
X160448068Y-125366544D01*
X160597368Y-125336847D01*
X160622138Y-125331920D01*
X160799622Y-125331920D01*
X160824392Y-125336847D01*
G37*
G36*
X163364392Y-125336847D02*
G01*
X163513692Y-125366544D01*
X163677664Y-125434464D01*
X163825234Y-125533067D01*
X163950733Y-125658566D01*
X164049336Y-125806136D01*
X164117256Y-125970108D01*
X164151880Y-126144179D01*
X164151880Y-126321661D01*
X164117256Y-126495732D01*
X164049336Y-126659704D01*
X163950733Y-126807274D01*
X163825234Y-126932773D01*
X163677664Y-127031376D01*
X163513692Y-127099296D01*
X163364392Y-127128993D01*
X163339622Y-127133920D01*
X163162138Y-127133920D01*
X163137368Y-127128993D01*
X162988068Y-127099296D01*
X162824096Y-127031376D01*
X162676526Y-126932773D01*
X162551027Y-126807274D01*
X162452424Y-126659704D01*
X162384504Y-126495732D01*
X162349880Y-126321661D01*
X162349880Y-126144179D01*
X162384504Y-125970108D01*
X162452424Y-125806136D01*
X162551027Y-125658566D01*
X162676526Y-125533067D01*
X162824096Y-125434464D01*
X162988068Y-125366544D01*
X163137368Y-125336847D01*
X163162138Y-125331920D01*
X163339622Y-125331920D01*
X163364392Y-125336847D01*
G37*
G36*
X165904392Y-125336847D02*
G01*
X166053692Y-125366544D01*
X166217664Y-125434464D01*
X166365234Y-125533067D01*
X166490733Y-125658566D01*
X166589336Y-125806136D01*
X166657256Y-125970108D01*
X166691880Y-126144179D01*
X166691880Y-126321661D01*
X166657256Y-126495732D01*
X166589336Y-126659704D01*
X166490733Y-126807274D01*
X166365234Y-126932773D01*
X166217664Y-127031376D01*
X166053692Y-127099296D01*
X165904392Y-127128993D01*
X165879622Y-127133920D01*
X165702138Y-127133920D01*
X165677368Y-127128993D01*
X165528068Y-127099296D01*
X165364096Y-127031376D01*
X165216526Y-126932773D01*
X165091027Y-126807274D01*
X164992424Y-126659704D01*
X164924504Y-126495732D01*
X164889880Y-126321661D01*
X164889880Y-126144179D01*
X164924504Y-125970108D01*
X164992424Y-125806136D01*
X165091027Y-125658566D01*
X165216526Y-125533067D01*
X165364096Y-125434464D01*
X165528068Y-125366544D01*
X165677368Y-125336847D01*
X165702138Y-125331920D01*
X165879622Y-125331920D01*
X165904392Y-125336847D01*
G37*
G36*
X168444392Y-125336847D02*
G01*
X168593692Y-125366544D01*
X168757664Y-125434464D01*
X168905234Y-125533067D01*
X169030733Y-125658566D01*
X169129336Y-125806136D01*
X169197256Y-125970108D01*
X169231880Y-126144179D01*
X169231880Y-126321661D01*
X169197256Y-126495732D01*
X169129336Y-126659704D01*
X169030733Y-126807274D01*
X168905234Y-126932773D01*
X168757664Y-127031376D01*
X168593692Y-127099296D01*
X168444392Y-127128993D01*
X168419622Y-127133920D01*
X168242138Y-127133920D01*
X168217368Y-127128993D01*
X168068068Y-127099296D01*
X167904096Y-127031376D01*
X167756526Y-126932773D01*
X167631027Y-126807274D01*
X167532424Y-126659704D01*
X167464504Y-126495732D01*
X167429880Y-126321661D01*
X167429880Y-126144179D01*
X167464504Y-125970108D01*
X167532424Y-125806136D01*
X167631027Y-125658566D01*
X167756526Y-125533067D01*
X167904096Y-125434464D01*
X168068068Y-125366544D01*
X168217368Y-125336847D01*
X168242138Y-125331920D01*
X168419622Y-125331920D01*
X168444392Y-125336847D01*
G37*
G36*
X170984392Y-125336847D02*
G01*
X171133692Y-125366544D01*
X171297664Y-125434464D01*
X171445234Y-125533067D01*
X171570733Y-125658566D01*
X171669336Y-125806136D01*
X171737256Y-125970108D01*
X171771880Y-126144179D01*
X171771880Y-126321661D01*
X171737256Y-126495732D01*
X171669336Y-126659704D01*
X171570733Y-126807274D01*
X171445234Y-126932773D01*
X171297664Y-127031376D01*
X171133692Y-127099296D01*
X170984392Y-127128993D01*
X170959622Y-127133920D01*
X170782138Y-127133920D01*
X170757368Y-127128993D01*
X170608068Y-127099296D01*
X170444096Y-127031376D01*
X170296526Y-126932773D01*
X170171027Y-126807274D01*
X170072424Y-126659704D01*
X170004504Y-126495732D01*
X169969880Y-126321661D01*
X169969880Y-126144179D01*
X170004504Y-125970108D01*
X170072424Y-125806136D01*
X170171027Y-125658566D01*
X170296526Y-125533067D01*
X170444096Y-125434464D01*
X170608068Y-125366544D01*
X170757368Y-125336847D01*
X170782138Y-125331920D01*
X170959622Y-125331920D01*
X170984392Y-125336847D01*
G37*
G36*
X173524392Y-125336847D02*
G01*
X173673692Y-125366544D01*
X173837664Y-125434464D01*
X173985234Y-125533067D01*
X174110733Y-125658566D01*
X174209336Y-125806136D01*
X174277256Y-125970108D01*
X174311880Y-126144179D01*
X174311880Y-126321661D01*
X174277256Y-126495732D01*
X174209336Y-126659704D01*
X174110733Y-126807274D01*
X173985234Y-126932773D01*
X173837664Y-127031376D01*
X173673692Y-127099296D01*
X173524392Y-127128993D01*
X173499622Y-127133920D01*
X173322138Y-127133920D01*
X173297368Y-127128993D01*
X173148068Y-127099296D01*
X172984096Y-127031376D01*
X172836526Y-126932773D01*
X172711027Y-126807274D01*
X172612424Y-126659704D01*
X172544504Y-126495732D01*
X172509880Y-126321661D01*
X172509880Y-126144179D01*
X172544504Y-125970108D01*
X172612424Y-125806136D01*
X172711027Y-125658566D01*
X172836526Y-125533067D01*
X172984096Y-125434464D01*
X173148068Y-125366544D01*
X173297368Y-125336847D01*
X173322138Y-125331920D01*
X173499622Y-125331920D01*
X173524392Y-125336847D01*
G37*
G36*
X208386500Y-123733380D02*
G01*
X208163282Y-123733380D01*
X208138896Y-123735782D01*
X208115447Y-123742895D01*
X208093836Y-123754446D01*
X208074894Y-123769991D01*
X208059349Y-123788933D01*
X208047798Y-123810544D01*
X208040685Y-123833993D01*
X208038283Y-123858379D01*
X208040685Y-123882765D01*
X208047798Y-123906214D01*
X208059349Y-123927825D01*
X208074894Y-123946767D01*
X208093836Y-123962312D01*
X208155316Y-124003392D01*
X208186742Y-124024390D01*
X208263490Y-124101138D01*
X208263491Y-124101140D01*
X208323791Y-124191385D01*
X208365326Y-124291659D01*
X208386500Y-124398110D01*
X208386500Y-124506650D01*
X208365326Y-124613101D01*
X208323791Y-124713375D01*
X208323790Y-124713376D01*
X208263490Y-124803622D01*
X208186742Y-124880370D01*
X208141312Y-124910725D01*
X208096495Y-124940671D01*
X207996221Y-124982206D01*
X207889770Y-125003380D01*
X207781230Y-125003380D01*
X207674779Y-124982206D01*
X207574505Y-124940671D01*
X207529688Y-124910725D01*
X207484258Y-124880370D01*
X207407510Y-124803622D01*
X207347210Y-124713376D01*
X207347209Y-124713375D01*
X207305674Y-124613101D01*
X207284500Y-124506650D01*
X207284500Y-124398110D01*
X207305674Y-124291659D01*
X207347209Y-124191385D01*
X207407509Y-124101140D01*
X207407510Y-124101138D01*
X207484258Y-124024390D01*
X207515684Y-124003392D01*
X207577164Y-123962312D01*
X207596106Y-123946766D01*
X207611651Y-123927824D01*
X207623202Y-123906213D01*
X207630315Y-123882765D01*
X207632717Y-123858378D01*
X207630315Y-123833992D01*
X207623202Y-123810543D01*
X207611651Y-123788933D01*
X207596105Y-123769991D01*
X207577163Y-123754446D01*
X207555552Y-123742895D01*
X207532104Y-123735782D01*
X207507718Y-123733380D01*
X207284500Y-123733380D01*
X207284500Y-122631380D01*
X208386500Y-122631380D01*
X208386500Y-123733380D01*
G37*
G36*
X179003172Y-121752907D02*
G01*
X179152472Y-121782604D01*
X179316444Y-121850524D01*
X179464014Y-121949127D01*
X179589513Y-122074626D01*
X179688116Y-122222196D01*
X179756036Y-122386168D01*
X179790660Y-122560239D01*
X179790660Y-122737721D01*
X179756036Y-122911792D01*
X179688116Y-123075764D01*
X179589513Y-123223334D01*
X179464014Y-123348833D01*
X179316444Y-123447436D01*
X179152472Y-123515356D01*
X179003172Y-123545053D01*
X178978402Y-123549980D01*
X178800918Y-123549980D01*
X178776148Y-123545053D01*
X178626848Y-123515356D01*
X178462876Y-123447436D01*
X178315306Y-123348833D01*
X178189807Y-123223334D01*
X178091204Y-123075764D01*
X178023284Y-122911792D01*
X177988660Y-122737721D01*
X177988660Y-122560239D01*
X178023284Y-122386168D01*
X178091204Y-122222196D01*
X178189807Y-122074626D01*
X178315306Y-121949127D01*
X178462876Y-121850524D01*
X178626848Y-121782604D01*
X178776148Y-121752907D01*
X178800918Y-121747980D01*
X178978402Y-121747980D01*
X179003172Y-121752907D01*
G37*
G36*
X151477280Y-123527120D02*
G01*
X149675280Y-123527120D01*
X149675280Y-121725120D01*
X151477280Y-121725120D01*
X151477280Y-123527120D01*
G37*
G36*
X155259340Y-123527120D02*
G01*
X153457340Y-123527120D01*
X153457340Y-121725120D01*
X155259340Y-121725120D01*
X155259340Y-123527120D01*
G37*
G36*
X199686392Y-121661467D02*
G01*
X199835692Y-121691164D01*
X199999664Y-121759084D01*
X200147234Y-121857687D01*
X200272733Y-121983186D01*
X200371336Y-122130756D01*
X200439256Y-122294728D01*
X200473880Y-122468799D01*
X200473880Y-122646281D01*
X200439256Y-122820352D01*
X200371336Y-122984324D01*
X200272733Y-123131894D01*
X200147234Y-123257393D01*
X199999664Y-123355996D01*
X199835692Y-123423916D01*
X199686392Y-123453613D01*
X199661622Y-123458540D01*
X199484138Y-123458540D01*
X199459368Y-123453613D01*
X199310068Y-123423916D01*
X199146096Y-123355996D01*
X198998526Y-123257393D01*
X198873027Y-123131894D01*
X198774424Y-122984324D01*
X198706504Y-122820352D01*
X198671880Y-122646281D01*
X198671880Y-122468799D01*
X198706504Y-122294728D01*
X198774424Y-122130756D01*
X198873027Y-121983186D01*
X198998526Y-121857687D01*
X199146096Y-121759084D01*
X199310068Y-121691164D01*
X199459368Y-121661467D01*
X199484138Y-121656540D01*
X199661622Y-121656540D01*
X199686392Y-121661467D01*
G37*
G36*
X194471772Y-121636067D02*
G01*
X194621072Y-121665764D01*
X194785044Y-121733684D01*
X194932614Y-121832287D01*
X195058113Y-121957786D01*
X195156716Y-122105356D01*
X195224636Y-122269328D01*
X195259260Y-122443399D01*
X195259260Y-122620881D01*
X195224636Y-122794952D01*
X195156716Y-122958924D01*
X195058113Y-123106494D01*
X194932614Y-123231993D01*
X194785044Y-123330596D01*
X194621072Y-123398516D01*
X194471772Y-123428213D01*
X194447002Y-123433140D01*
X194269518Y-123433140D01*
X194244748Y-123428213D01*
X194095448Y-123398516D01*
X193931476Y-123330596D01*
X193783906Y-123231993D01*
X193658407Y-123106494D01*
X193559804Y-122958924D01*
X193491884Y-122794952D01*
X193457260Y-122620881D01*
X193457260Y-122443399D01*
X193491884Y-122269328D01*
X193559804Y-122105356D01*
X193658407Y-121957786D01*
X193783906Y-121832287D01*
X193931476Y-121733684D01*
X194095448Y-121665764D01*
X194244748Y-121636067D01*
X194269518Y-121631140D01*
X194447002Y-121631140D01*
X194471772Y-121636067D01*
G37*
G36*
X179003172Y-119212907D02*
G01*
X179152472Y-119242604D01*
X179316444Y-119310524D01*
X179464014Y-119409127D01*
X179589513Y-119534626D01*
X179688116Y-119682196D01*
X179756036Y-119846168D01*
X179790660Y-120020239D01*
X179790660Y-120197721D01*
X179756036Y-120371792D01*
X179688116Y-120535764D01*
X179589513Y-120683334D01*
X179464014Y-120808833D01*
X179316444Y-120907436D01*
X179152472Y-120975356D01*
X179003172Y-121005053D01*
X178978402Y-121009980D01*
X178800918Y-121009980D01*
X178776148Y-121005053D01*
X178626848Y-120975356D01*
X178462876Y-120907436D01*
X178315306Y-120808833D01*
X178189807Y-120683334D01*
X178091204Y-120535764D01*
X178023284Y-120371792D01*
X177988660Y-120197721D01*
X177988660Y-120020239D01*
X178023284Y-119846168D01*
X178091204Y-119682196D01*
X178189807Y-119534626D01*
X178315306Y-119409127D01*
X178462876Y-119310524D01*
X178626848Y-119242604D01*
X178776148Y-119212907D01*
X178800918Y-119207980D01*
X178978402Y-119207980D01*
X179003172Y-119212907D01*
G37*
G36*
X154471852Y-119190047D02*
G01*
X154621152Y-119219744D01*
X154785124Y-119287664D01*
X154932694Y-119386267D01*
X155058193Y-119511766D01*
X155156796Y-119659336D01*
X155224716Y-119823308D01*
X155259340Y-119997379D01*
X155259340Y-120174861D01*
X155224716Y-120348932D01*
X155156796Y-120512904D01*
X155058193Y-120660474D01*
X154932694Y-120785973D01*
X154785124Y-120884576D01*
X154621152Y-120952496D01*
X154471852Y-120982193D01*
X154447082Y-120987120D01*
X154269598Y-120987120D01*
X154244828Y-120982193D01*
X154095528Y-120952496D01*
X153931556Y-120884576D01*
X153783986Y-120785973D01*
X153658487Y-120660474D01*
X153559884Y-120512904D01*
X153491964Y-120348932D01*
X153457340Y-120174861D01*
X153457340Y-119997379D01*
X153491964Y-119823308D01*
X153559884Y-119659336D01*
X153658487Y-119511766D01*
X153783986Y-119386267D01*
X153931556Y-119287664D01*
X154095528Y-119219744D01*
X154244828Y-119190047D01*
X154269598Y-119185120D01*
X154447082Y-119185120D01*
X154471852Y-119190047D01*
G37*
G36*
X150689792Y-119190047D02*
G01*
X150839092Y-119219744D01*
X151003064Y-119287664D01*
X151150634Y-119386267D01*
X151276133Y-119511766D01*
X151374736Y-119659336D01*
X151442656Y-119823308D01*
X151477280Y-119997379D01*
X151477280Y-120174861D01*
X151442656Y-120348932D01*
X151374736Y-120512904D01*
X151276133Y-120660474D01*
X151150634Y-120785973D01*
X151003064Y-120884576D01*
X150839092Y-120952496D01*
X150689792Y-120982193D01*
X150665022Y-120987120D01*
X150487538Y-120987120D01*
X150462768Y-120982193D01*
X150313468Y-120952496D01*
X150149496Y-120884576D01*
X150001926Y-120785973D01*
X149876427Y-120660474D01*
X149777824Y-120512904D01*
X149709904Y-120348932D01*
X149675280Y-120174861D01*
X149675280Y-119997379D01*
X149709904Y-119823308D01*
X149777824Y-119659336D01*
X149876427Y-119511766D01*
X150001926Y-119386267D01*
X150149496Y-119287664D01*
X150313468Y-119219744D01*
X150462768Y-119190047D01*
X150487538Y-119185120D01*
X150665022Y-119185120D01*
X150689792Y-119190047D01*
G37*
G36*
X199686392Y-119121467D02*
G01*
X199835692Y-119151164D01*
X199999664Y-119219084D01*
X200147234Y-119317687D01*
X200272733Y-119443186D01*
X200371336Y-119590756D01*
X200439256Y-119754728D01*
X200473880Y-119928799D01*
X200473880Y-120106281D01*
X200439256Y-120280352D01*
X200371336Y-120444324D01*
X200272733Y-120591894D01*
X200147234Y-120717393D01*
X199999664Y-120815996D01*
X199835692Y-120883916D01*
X199686392Y-120913613D01*
X199661622Y-120918540D01*
X199484138Y-120918540D01*
X199459368Y-120913613D01*
X199310068Y-120883916D01*
X199146096Y-120815996D01*
X198998526Y-120717393D01*
X198873027Y-120591894D01*
X198774424Y-120444324D01*
X198706504Y-120280352D01*
X198671880Y-120106281D01*
X198671880Y-119928799D01*
X198706504Y-119754728D01*
X198774424Y-119590756D01*
X198873027Y-119443186D01*
X198998526Y-119317687D01*
X199146096Y-119219084D01*
X199310068Y-119151164D01*
X199459368Y-119121467D01*
X199484138Y-119116540D01*
X199661622Y-119116540D01*
X199686392Y-119121467D01*
G37*
G36*
X194471772Y-119096067D02*
G01*
X194621072Y-119125764D01*
X194785044Y-119193684D01*
X194932614Y-119292287D01*
X195058113Y-119417786D01*
X195156716Y-119565356D01*
X195224636Y-119729328D01*
X195259260Y-119903399D01*
X195259260Y-120080881D01*
X195224636Y-120254952D01*
X195156716Y-120418924D01*
X195058113Y-120566494D01*
X194932614Y-120691993D01*
X194785044Y-120790596D01*
X194621072Y-120858516D01*
X194471772Y-120888213D01*
X194447002Y-120893140D01*
X194269518Y-120893140D01*
X194244748Y-120888213D01*
X194095448Y-120858516D01*
X193931476Y-120790596D01*
X193783906Y-120691993D01*
X193658407Y-120566494D01*
X193559804Y-120418924D01*
X193491884Y-120254952D01*
X193457260Y-120080881D01*
X193457260Y-119903399D01*
X193491884Y-119729328D01*
X193559804Y-119565356D01*
X193658407Y-119417786D01*
X193783906Y-119292287D01*
X193931476Y-119193684D01*
X194095448Y-119125764D01*
X194244748Y-119096067D01*
X194269518Y-119091140D01*
X194447002Y-119091140D01*
X194471772Y-119096067D01*
G37*
G36*
X179790660Y-118469980D02*
G01*
X177988660Y-118469980D01*
X177988660Y-116667980D01*
X179790660Y-116667980D01*
X179790660Y-118469980D01*
G37*
G36*
X154471852Y-116650047D02*
G01*
X154621152Y-116679744D01*
X154785124Y-116747664D01*
X154932694Y-116846267D01*
X155058193Y-116971766D01*
X155156796Y-117119336D01*
X155224716Y-117283308D01*
X155259340Y-117457379D01*
X155259340Y-117634861D01*
X155224716Y-117808932D01*
X155156796Y-117972904D01*
X155058193Y-118120474D01*
X154932694Y-118245973D01*
X154785124Y-118344576D01*
X154621152Y-118412496D01*
X154471852Y-118442193D01*
X154447082Y-118447120D01*
X154269598Y-118447120D01*
X154244828Y-118442193D01*
X154095528Y-118412496D01*
X153931556Y-118344576D01*
X153783986Y-118245973D01*
X153658487Y-118120474D01*
X153559884Y-117972904D01*
X153491964Y-117808932D01*
X153457340Y-117634861D01*
X153457340Y-117457379D01*
X153491964Y-117283308D01*
X153559884Y-117119336D01*
X153658487Y-116971766D01*
X153783986Y-116846267D01*
X153931556Y-116747664D01*
X154095528Y-116679744D01*
X154244828Y-116650047D01*
X154269598Y-116645120D01*
X154447082Y-116645120D01*
X154471852Y-116650047D01*
G37*
G36*
X150689792Y-116650047D02*
G01*
X150839092Y-116679744D01*
X151003064Y-116747664D01*
X151150634Y-116846267D01*
X151276133Y-116971766D01*
X151374736Y-117119336D01*
X151442656Y-117283308D01*
X151477280Y-117457379D01*
X151477280Y-117634861D01*
X151442656Y-117808932D01*
X151374736Y-117972904D01*
X151276133Y-118120474D01*
X151150634Y-118245973D01*
X151003064Y-118344576D01*
X150839092Y-118412496D01*
X150689792Y-118442193D01*
X150665022Y-118447120D01*
X150487538Y-118447120D01*
X150462768Y-118442193D01*
X150313468Y-118412496D01*
X150149496Y-118344576D01*
X150001926Y-118245973D01*
X149876427Y-118120474D01*
X149777824Y-117972904D01*
X149709904Y-117808932D01*
X149675280Y-117634861D01*
X149675280Y-117457379D01*
X149709904Y-117283308D01*
X149777824Y-117119336D01*
X149876427Y-116971766D01*
X150001926Y-116846267D01*
X150149496Y-116747664D01*
X150313468Y-116679744D01*
X150462768Y-116650047D01*
X150487538Y-116645120D01*
X150665022Y-116645120D01*
X150689792Y-116650047D01*
G37*
G36*
X200473880Y-118378540D02*
G01*
X198671880Y-118378540D01*
X198671880Y-116576540D01*
X200473880Y-116576540D01*
X200473880Y-118378540D01*
G37*
G36*
X195259260Y-118353140D02*
G01*
X193457260Y-118353140D01*
X193457260Y-116551140D01*
X195259260Y-116551140D01*
X195259260Y-118353140D01*
G37*
G36*
X180904240Y-115162160D02*
G01*
X180002240Y-115162160D01*
X180002240Y-112560160D01*
X180904240Y-112560160D01*
X180904240Y-115162160D01*
G37*
G36*
X179634240Y-115162160D02*
G01*
X178732240Y-115162160D01*
X178732240Y-112560160D01*
X179634240Y-112560160D01*
X179634240Y-115162160D01*
G37*
G36*
X178364240Y-115162160D02*
G01*
X177462240Y-115162160D01*
X177462240Y-112560160D01*
X178364240Y-112560160D01*
X178364240Y-115162160D01*
G37*
G36*
X177094240Y-115162160D02*
G01*
X176192240Y-115162160D01*
X176192240Y-112560160D01*
X177094240Y-112560160D01*
X177094240Y-115162160D01*
G37*
G36*
X191064240Y-115162160D02*
G01*
X190162240Y-115162160D01*
X190162240Y-112560160D01*
X191064240Y-112560160D01*
X191064240Y-115162160D01*
G37*
G36*
X174554240Y-115162160D02*
G01*
X173652240Y-115162160D01*
X173652240Y-112560160D01*
X174554240Y-112560160D01*
X174554240Y-115162160D01*
G37*
G36*
X172014240Y-115162160D02*
G01*
X171112240Y-115162160D01*
X171112240Y-112560160D01*
X172014240Y-112560160D01*
X172014240Y-115162160D01*
G37*
G36*
X170744240Y-115162160D02*
G01*
X169842240Y-115162160D01*
X169842240Y-112560160D01*
X170744240Y-112560160D01*
X170744240Y-115162160D01*
G37*
G36*
X169474240Y-115162160D02*
G01*
X168572240Y-115162160D01*
X168572240Y-112560160D01*
X169474240Y-112560160D01*
X169474240Y-115162160D01*
G37*
G36*
X168204240Y-115162160D02*
G01*
X167302240Y-115162160D01*
X167302240Y-112560160D01*
X168204240Y-112560160D01*
X168204240Y-115162160D01*
G37*
G36*
X166934240Y-115162160D02*
G01*
X166032240Y-115162160D01*
X166032240Y-112560160D01*
X166934240Y-112560160D01*
X166934240Y-115162160D01*
G37*
G36*
X165664240Y-115162160D02*
G01*
X164762240Y-115162160D01*
X164762240Y-112560160D01*
X165664240Y-112560160D01*
X165664240Y-115162160D01*
G37*
G36*
X164394240Y-115162160D02*
G01*
X163492240Y-115162160D01*
X163492240Y-112560160D01*
X164394240Y-112560160D01*
X164394240Y-115162160D01*
G37*
G36*
X163124240Y-115162160D02*
G01*
X162222240Y-115162160D01*
X162222240Y-112560160D01*
X163124240Y-112560160D01*
X163124240Y-115162160D01*
G37*
G36*
X161854240Y-115162160D02*
G01*
X160952240Y-115162160D01*
X160952240Y-112560160D01*
X161854240Y-112560160D01*
X161854240Y-115162160D01*
G37*
G36*
X160584240Y-115162160D02*
G01*
X159682240Y-115162160D01*
X159682240Y-112560160D01*
X160584240Y-112560160D01*
X160584240Y-115162160D01*
G37*
G36*
X193604240Y-115162160D02*
G01*
X192702240Y-115162160D01*
X192702240Y-112560160D01*
X193604240Y-112560160D01*
X193604240Y-115162160D01*
G37*
G36*
X159314240Y-115162160D02*
G01*
X158412240Y-115162160D01*
X158412240Y-112560160D01*
X159314240Y-112560160D01*
X159314240Y-115162160D01*
G37*
G36*
X192334240Y-115162160D02*
G01*
X191432240Y-115162160D01*
X191432240Y-112560160D01*
X192334240Y-112560160D01*
X192334240Y-115162160D01*
G37*
G36*
X183444240Y-115162160D02*
G01*
X182542240Y-115162160D01*
X182542240Y-112560160D01*
X183444240Y-112560160D01*
X183444240Y-115162160D01*
G37*
G36*
X182174240Y-115162160D02*
G01*
X181272240Y-115162160D01*
X181272240Y-112560160D01*
X182174240Y-112560160D01*
X182174240Y-115162160D01*
G37*
G36*
X189794240Y-115162160D02*
G01*
X188892240Y-115162160D01*
X188892240Y-112560160D01*
X189794240Y-112560160D01*
X189794240Y-115162160D01*
G37*
G36*
X154234240Y-115162160D02*
G01*
X153332240Y-115162160D01*
X153332240Y-112560160D01*
X154234240Y-112560160D01*
X154234240Y-115162160D01*
G37*
G36*
X158044240Y-115162160D02*
G01*
X157142240Y-115162160D01*
X157142240Y-112560160D01*
X158044240Y-112560160D01*
X158044240Y-115162160D01*
G37*
G36*
X156774240Y-115162160D02*
G01*
X155872240Y-115162160D01*
X155872240Y-112560160D01*
X156774240Y-112560160D01*
X156774240Y-115162160D01*
G37*
G36*
X155504240Y-115162160D02*
G01*
X154602240Y-115162160D01*
X154602240Y-112560160D01*
X155504240Y-112560160D01*
X155504240Y-115162160D01*
G37*
G36*
X203764240Y-115162160D02*
G01*
X202862240Y-115162160D01*
X202862240Y-112560160D01*
X203764240Y-112560160D01*
X203764240Y-115162160D01*
G37*
G36*
X188524240Y-115162160D02*
G01*
X187622240Y-115162160D01*
X187622240Y-112560160D01*
X188524240Y-112560160D01*
X188524240Y-115162160D01*
G37*
G36*
X187254240Y-115162160D02*
G01*
X186352240Y-115162160D01*
X186352240Y-112560160D01*
X187254240Y-112560160D01*
X187254240Y-115162160D01*
G37*
G36*
X196144240Y-115162160D02*
G01*
X195242240Y-115162160D01*
X195242240Y-112560160D01*
X196144240Y-112560160D01*
X196144240Y-115162160D01*
G37*
G36*
X197414240Y-115162160D02*
G01*
X196512240Y-115162160D01*
X196512240Y-112560160D01*
X197414240Y-112560160D01*
X197414240Y-115162160D01*
G37*
G36*
X198684240Y-115162160D02*
G01*
X197782240Y-115162160D01*
X197782240Y-112560160D01*
X198684240Y-112560160D01*
X198684240Y-115162160D01*
G37*
G36*
X199954240Y-115162160D02*
G01*
X199052240Y-115162160D01*
X199052240Y-112560160D01*
X199954240Y-112560160D01*
X199954240Y-115162160D01*
G37*
G36*
X201224240Y-115162160D02*
G01*
X200322240Y-115162160D01*
X200322240Y-112560160D01*
X201224240Y-112560160D01*
X201224240Y-115162160D01*
G37*
G36*
X202494240Y-115162160D02*
G01*
X201592240Y-115162160D01*
X201592240Y-112560160D01*
X202494240Y-112560160D01*
X202494240Y-115162160D01*
G37*
G36*
X185984240Y-115162160D02*
G01*
X185082240Y-115162160D01*
X185082240Y-112560160D01*
X185984240Y-112560160D01*
X185984240Y-115162160D01*
G37*
G36*
X194874240Y-115162160D02*
G01*
X193972240Y-115162160D01*
X193972240Y-112560160D01*
X194874240Y-112560160D01*
X194874240Y-115162160D01*
G37*
G36*
X184714240Y-115162160D02*
G01*
X183812240Y-115162160D01*
X183812240Y-112560160D01*
X184714240Y-112560160D01*
X184714240Y-115162160D01*
G37*
G36*
X175824240Y-115162160D02*
G01*
X174922240Y-115162160D01*
X174922240Y-112560160D01*
X175824240Y-112560160D01*
X175824240Y-115162160D01*
G37*
G36*
X173284240Y-115153960D02*
G01*
X172382240Y-115153960D01*
X172382240Y-112551960D01*
X173284240Y-112551960D01*
X173284240Y-115153960D01*
G37*
G36*
X205749240Y-108702160D02*
G01*
X204547240Y-108702160D01*
X204547240Y-103100160D01*
X205749240Y-103100160D01*
X205749240Y-108702160D01*
G37*
G36*
X151749240Y-108702160D02*
G01*
X150547240Y-108702160D01*
X150547240Y-103100160D01*
X151749240Y-103100160D01*
X151749240Y-108702160D01*
G37*
G36*
X191396468Y-106742863D02*
G01*
X191551340Y-106807013D01*
X191690721Y-106900145D01*
X191809255Y-107018679D01*
X191902387Y-107158060D01*
X191966537Y-107312932D01*
X191999240Y-107477344D01*
X191999240Y-107644976D01*
X191966537Y-107809388D01*
X191902387Y-107964260D01*
X191809255Y-108103641D01*
X191690721Y-108222175D01*
X191551340Y-108315307D01*
X191396468Y-108379457D01*
X191232056Y-108412160D01*
X191064424Y-108412160D01*
X190900012Y-108379457D01*
X190745140Y-108315307D01*
X190605759Y-108222175D01*
X190487225Y-108103641D01*
X190394093Y-107964260D01*
X190329943Y-107809388D01*
X190297240Y-107644976D01*
X190297240Y-107477344D01*
X190329943Y-107312932D01*
X190394093Y-107158060D01*
X190487225Y-107018679D01*
X190605759Y-106900145D01*
X190745140Y-106807013D01*
X190900012Y-106742863D01*
X191064424Y-106710160D01*
X191232056Y-106710160D01*
X191396468Y-106742863D01*
G37*
G36*
X165396468Y-106742863D02*
G01*
X165551340Y-106807013D01*
X165690721Y-106900145D01*
X165809255Y-107018679D01*
X165902387Y-107158060D01*
X165966537Y-107312932D01*
X165999240Y-107477344D01*
X165999240Y-107644976D01*
X165966537Y-107809388D01*
X165902387Y-107964260D01*
X165809255Y-108103641D01*
X165690721Y-108222175D01*
X165551340Y-108315307D01*
X165396468Y-108379457D01*
X165232056Y-108412160D01*
X165064424Y-108412160D01*
X164900012Y-108379457D01*
X164745140Y-108315307D01*
X164605759Y-108222175D01*
X164487225Y-108103641D01*
X164394093Y-107964260D01*
X164329943Y-107809388D01*
X164297240Y-107644976D01*
X164297240Y-107477344D01*
X164329943Y-107312932D01*
X164394093Y-107158060D01*
X164487225Y-107018679D01*
X164605759Y-106900145D01*
X164745140Y-106807013D01*
X164900012Y-106742863D01*
X165064424Y-106710160D01*
X165232056Y-106710160D01*
X165396468Y-106742863D01*
G37*
G36*
X194766054Y-98917985D02*
G01*
X194803747Y-98929419D01*
X194838483Y-98947986D01*
X194868928Y-98972972D01*
X194893914Y-99003417D01*
X194912481Y-99038153D01*
X194923915Y-99075846D01*
X194928380Y-99121181D01*
X194928380Y-100207859D01*
X194923915Y-100253194D01*
X194912481Y-100290887D01*
X194893914Y-100325623D01*
X194868928Y-100356068D01*
X194838483Y-100381054D01*
X194803747Y-100399621D01*
X194766054Y-100411055D01*
X194720719Y-100415520D01*
X193884041Y-100415520D01*
X193838706Y-100411055D01*
X193801013Y-100399621D01*
X193766277Y-100381054D01*
X193735832Y-100356068D01*
X193710846Y-100325623D01*
X193692279Y-100290887D01*
X193680845Y-100253194D01*
X193676380Y-100207859D01*
X193676380Y-99121181D01*
X193680845Y-99075846D01*
X193692279Y-99038153D01*
X193710846Y-99003417D01*
X193735832Y-98972972D01*
X193766277Y-98947986D01*
X193801013Y-98929419D01*
X193838706Y-98917985D01*
X193884041Y-98913520D01*
X194720719Y-98913520D01*
X194766054Y-98917985D01*
G37*
G36*
X192716054Y-98917985D02*
G01*
X192753747Y-98929419D01*
X192788483Y-98947986D01*
X192818928Y-98972972D01*
X192843914Y-99003417D01*
X192862481Y-99038153D01*
X192873915Y-99075846D01*
X192878380Y-99121181D01*
X192878380Y-100207859D01*
X192873915Y-100253194D01*
X192862481Y-100290887D01*
X192843914Y-100325623D01*
X192818928Y-100356068D01*
X192788483Y-100381054D01*
X192753747Y-100399621D01*
X192716054Y-100411055D01*
X192670719Y-100415520D01*
X191834041Y-100415520D01*
X191788706Y-100411055D01*
X191751013Y-100399621D01*
X191716277Y-100381054D01*
X191685832Y-100356068D01*
X191660846Y-100325623D01*
X191642279Y-100290887D01*
X191630845Y-100253194D01*
X191626380Y-100207859D01*
X191626380Y-99121181D01*
X191630845Y-99075846D01*
X191642279Y-99038153D01*
X191660846Y-99003417D01*
X191685832Y-98972972D01*
X191716277Y-98947986D01*
X191751013Y-98929419D01*
X191788706Y-98917985D01*
X191834041Y-98913520D01*
X192670719Y-98913520D01*
X192716054Y-98917985D01*
G37*
G36*
X180568614Y-97493045D02*
G01*
X180606307Y-97504479D01*
X180641043Y-97523046D01*
X180671488Y-97548032D01*
X180696474Y-97578477D01*
X180715041Y-97613213D01*
X180726475Y-97650906D01*
X180730940Y-97696241D01*
X180730940Y-98782919D01*
X180726475Y-98828254D01*
X180715041Y-98865947D01*
X180696474Y-98900683D01*
X180671488Y-98931128D01*
X180641043Y-98956114D01*
X180606307Y-98974681D01*
X180568614Y-98986115D01*
X180523279Y-98990580D01*
X179686601Y-98990580D01*
X179641266Y-98986115D01*
X179603573Y-98974681D01*
X179568837Y-98956114D01*
X179538392Y-98931128D01*
X179513406Y-98900683D01*
X179494839Y-98865947D01*
X179483405Y-98828254D01*
X179478940Y-98782919D01*
X179478940Y-97696241D01*
X179483405Y-97650906D01*
X179494839Y-97613213D01*
X179513406Y-97578477D01*
X179538392Y-97548032D01*
X179568837Y-97523046D01*
X179603573Y-97504479D01*
X179641266Y-97493045D01*
X179686601Y-97488580D01*
X180523279Y-97488580D01*
X180568614Y-97493045D01*
G37*
G36*
X182618614Y-97493045D02*
G01*
X182656307Y-97504479D01*
X182691043Y-97523046D01*
X182721488Y-97548032D01*
X182746474Y-97578477D01*
X182765041Y-97613213D01*
X182776475Y-97650906D01*
X182780940Y-97696241D01*
X182780940Y-98782919D01*
X182776475Y-98828254D01*
X182765041Y-98865947D01*
X182746474Y-98900683D01*
X182721488Y-98931128D01*
X182691043Y-98956114D01*
X182656307Y-98974681D01*
X182618614Y-98986115D01*
X182573279Y-98990580D01*
X181736601Y-98990580D01*
X181691266Y-98986115D01*
X181653573Y-98974681D01*
X181618837Y-98956114D01*
X181588392Y-98931128D01*
X181563406Y-98900683D01*
X181544839Y-98865947D01*
X181533405Y-98828254D01*
X181528940Y-98782919D01*
X181528940Y-97696241D01*
X181533405Y-97650906D01*
X181544839Y-97613213D01*
X181563406Y-97578477D01*
X181588392Y-97548032D01*
X181618837Y-97523046D01*
X181653573Y-97504479D01*
X181691266Y-97493045D01*
X181736601Y-97488580D01*
X182573279Y-97488580D01*
X182618614Y-97493045D01*
G37*
G36*
X177800701Y-97679274D02*
G01*
X177900975Y-97720809D01*
X177900976Y-97720810D01*
X177991222Y-97781110D01*
X178067970Y-97857858D01*
X178067971Y-97857860D01*
X178128271Y-97948105D01*
X178169806Y-98048379D01*
X178190980Y-98154830D01*
X178190980Y-98263370D01*
X178169806Y-98369821D01*
X178128271Y-98470095D01*
X178128270Y-98470096D01*
X178067970Y-98560342D01*
X177991222Y-98637090D01*
X177945792Y-98667445D01*
X177900975Y-98697391D01*
X177800701Y-98738926D01*
X177694250Y-98760100D01*
X177585710Y-98760100D01*
X177479259Y-98738926D01*
X177378985Y-98697391D01*
X177334168Y-98667445D01*
X177288738Y-98637090D01*
X177211990Y-98560342D01*
X177151690Y-98470096D01*
X177151689Y-98470095D01*
X177110154Y-98369821D01*
X177088980Y-98263370D01*
X177088980Y-98154830D01*
X177110154Y-98048379D01*
X177151689Y-97948105D01*
X177211989Y-97857860D01*
X177211990Y-97857858D01*
X177288738Y-97781110D01*
X177378984Y-97720810D01*
X177378985Y-97720809D01*
X177479259Y-97679274D01*
X177585710Y-97658100D01*
X177694250Y-97658100D01*
X177800701Y-97679274D01*
G37*
G36*
X190420654Y-96802925D02*
G01*
X190458347Y-96814359D01*
X190493083Y-96832926D01*
X190523528Y-96857912D01*
X190548514Y-96888357D01*
X190567081Y-96923093D01*
X190578515Y-96960786D01*
X190582980Y-97006121D01*
X190582980Y-97842799D01*
X190578515Y-97888134D01*
X190567081Y-97925827D01*
X190548514Y-97960563D01*
X190523528Y-97991008D01*
X190493083Y-98015994D01*
X190458347Y-98034561D01*
X190420654Y-98045995D01*
X190375319Y-98050460D01*
X189288641Y-98050460D01*
X189243306Y-98045995D01*
X189205613Y-98034561D01*
X189170877Y-98015994D01*
X189140432Y-97991008D01*
X189115446Y-97960563D01*
X189096879Y-97925827D01*
X189085445Y-97888134D01*
X189080980Y-97842799D01*
X189080980Y-97006121D01*
X189085445Y-96960786D01*
X189096879Y-96923093D01*
X189115446Y-96888357D01*
X189140432Y-96857912D01*
X189170877Y-96832926D01*
X189205613Y-96814359D01*
X189243306Y-96802925D01*
X189288641Y-96798460D01*
X190375319Y-96798460D01*
X190420654Y-96802925D01*
G37*
G36*
X178602034Y-95240605D02*
G01*
X178639727Y-95252039D01*
X178674463Y-95270606D01*
X178704908Y-95295592D01*
X178729894Y-95326037D01*
X178748461Y-95360773D01*
X178759895Y-95398466D01*
X178764360Y-95443801D01*
X178764360Y-96280479D01*
X178759895Y-96325814D01*
X178748461Y-96363507D01*
X178729894Y-96398243D01*
X178704908Y-96428688D01*
X178674463Y-96453674D01*
X178639727Y-96472241D01*
X178602034Y-96483675D01*
X178556699Y-96488140D01*
X177470021Y-96488140D01*
X177424686Y-96483675D01*
X177386993Y-96472241D01*
X177352257Y-96453674D01*
X177321812Y-96428688D01*
X177296826Y-96398243D01*
X177278259Y-96363507D01*
X177266825Y-96325814D01*
X177262360Y-96280479D01*
X177262360Y-95443801D01*
X177266825Y-95398466D01*
X177278259Y-95360773D01*
X177296826Y-95326037D01*
X177321812Y-95295592D01*
X177352257Y-95270606D01*
X177386993Y-95252039D01*
X177424686Y-95240605D01*
X177470021Y-95236140D01*
X178556699Y-95236140D01*
X178602034Y-95240605D01*
G37*
G36*
X180763574Y-95217965D02*
G01*
X180801267Y-95229399D01*
X180836003Y-95247966D01*
X180866448Y-95272952D01*
X180891434Y-95303397D01*
X180910001Y-95338133D01*
X180921435Y-95375826D01*
X180925900Y-95421161D01*
X180925900Y-96257839D01*
X180921435Y-96303174D01*
X180910001Y-96340867D01*
X180891434Y-96375603D01*
X180866448Y-96406048D01*
X180836003Y-96431034D01*
X180801267Y-96449601D01*
X180763574Y-96461035D01*
X180718239Y-96465500D01*
X179631561Y-96465500D01*
X179586226Y-96461035D01*
X179548533Y-96449601D01*
X179513797Y-96431034D01*
X179483352Y-96406048D01*
X179458366Y-96375603D01*
X179439799Y-96340867D01*
X179428365Y-96303174D01*
X179423900Y-96257839D01*
X179423900Y-95421161D01*
X179428365Y-95375826D01*
X179439799Y-95338133D01*
X179458366Y-95303397D01*
X179483352Y-95272952D01*
X179513797Y-95247966D01*
X179548533Y-95229399D01*
X179586226Y-95217965D01*
X179631561Y-95213500D01*
X180718239Y-95213500D01*
X180763574Y-95217965D01*
G37*
G36*
X196273654Y-94866685D02*
G01*
X196311347Y-94878119D01*
X196346083Y-94896686D01*
X196376528Y-94921672D01*
X196401514Y-94952117D01*
X196420081Y-94986853D01*
X196431515Y-95024546D01*
X196435980Y-95069881D01*
X196435980Y-96156559D01*
X196431515Y-96201894D01*
X196420081Y-96239587D01*
X196401514Y-96274323D01*
X196376528Y-96304768D01*
X196346083Y-96329754D01*
X196311347Y-96348321D01*
X196273654Y-96359755D01*
X196228319Y-96364220D01*
X195391641Y-96364220D01*
X195346306Y-96359755D01*
X195308613Y-96348321D01*
X195273877Y-96329754D01*
X195243432Y-96304768D01*
X195218446Y-96274323D01*
X195199879Y-96239587D01*
X195188445Y-96201894D01*
X195183980Y-96156559D01*
X195183980Y-95069881D01*
X195188445Y-95024546D01*
X195199879Y-94986853D01*
X195218446Y-94952117D01*
X195243432Y-94921672D01*
X195273877Y-94896686D01*
X195308613Y-94878119D01*
X195346306Y-94866685D01*
X195391641Y-94862220D01*
X196228319Y-94862220D01*
X196273654Y-94866685D01*
G37*
G36*
X194223654Y-94866685D02*
G01*
X194261347Y-94878119D01*
X194296083Y-94896686D01*
X194326528Y-94921672D01*
X194351514Y-94952117D01*
X194370081Y-94986853D01*
X194381515Y-95024546D01*
X194385980Y-95069881D01*
X194385980Y-96156559D01*
X194381515Y-96201894D01*
X194370081Y-96239587D01*
X194351514Y-96274323D01*
X194326528Y-96304768D01*
X194296083Y-96329754D01*
X194261347Y-96348321D01*
X194223654Y-96359755D01*
X194178319Y-96364220D01*
X193341641Y-96364220D01*
X193296306Y-96359755D01*
X193258613Y-96348321D01*
X193223877Y-96329754D01*
X193193432Y-96304768D01*
X193168446Y-96274323D01*
X193149879Y-96239587D01*
X193138445Y-96201894D01*
X193133980Y-96156559D01*
X193133980Y-95069881D01*
X193138445Y-95024546D01*
X193149879Y-94986853D01*
X193168446Y-94952117D01*
X193193432Y-94921672D01*
X193223877Y-94896686D01*
X193258613Y-94878119D01*
X193296306Y-94866685D01*
X193341641Y-94862220D01*
X194178319Y-94862220D01*
X194223654Y-94866685D01*
G37*
G36*
X190420654Y-94752925D02*
G01*
X190458347Y-94764359D01*
X190493083Y-94782926D01*
X190523528Y-94807912D01*
X190548514Y-94838357D01*
X190567081Y-94873093D01*
X190578515Y-94910786D01*
X190582980Y-94956121D01*
X190582980Y-95792799D01*
X190578515Y-95838134D01*
X190567081Y-95875827D01*
X190548514Y-95910563D01*
X190523528Y-95941008D01*
X190493083Y-95965994D01*
X190458347Y-95984561D01*
X190420654Y-95995995D01*
X190375319Y-96000460D01*
X189288641Y-96000460D01*
X189243306Y-95995995D01*
X189205613Y-95984561D01*
X189170877Y-95965994D01*
X189140432Y-95941008D01*
X189115446Y-95910563D01*
X189096879Y-95875827D01*
X189085445Y-95838134D01*
X189080980Y-95792799D01*
X189080980Y-94956121D01*
X189085445Y-94910786D01*
X189096879Y-94873093D01*
X189115446Y-94838357D01*
X189140432Y-94807912D01*
X189170877Y-94782926D01*
X189205613Y-94764359D01*
X189243306Y-94752925D01*
X189288641Y-94748460D01*
X190375319Y-94748460D01*
X190420654Y-94752925D01*
G37*
G36*
X200935714Y-93271565D02*
G01*
X200973407Y-93282999D01*
X201008143Y-93301566D01*
X201038588Y-93326552D01*
X201063574Y-93356997D01*
X201082141Y-93391733D01*
X201093575Y-93429426D01*
X201098040Y-93474761D01*
X201098040Y-94561439D01*
X201093575Y-94606774D01*
X201082141Y-94644467D01*
X201063574Y-94679203D01*
X201038588Y-94709648D01*
X201008143Y-94734634D01*
X200973407Y-94753201D01*
X200935714Y-94764635D01*
X200890379Y-94769100D01*
X200053701Y-94769100D01*
X200008366Y-94764635D01*
X199970673Y-94753201D01*
X199935937Y-94734634D01*
X199905492Y-94709648D01*
X199880506Y-94679203D01*
X199861939Y-94644467D01*
X199850505Y-94606774D01*
X199846040Y-94561439D01*
X199846040Y-93474761D01*
X199850505Y-93429426D01*
X199861939Y-93391733D01*
X199880506Y-93356997D01*
X199905492Y-93326552D01*
X199935937Y-93301566D01*
X199970673Y-93282999D01*
X200008366Y-93271565D01*
X200053701Y-93267100D01*
X200890379Y-93267100D01*
X200935714Y-93271565D01*
G37*
G36*
X198885714Y-93271565D02*
G01*
X198923407Y-93282999D01*
X198958143Y-93301566D01*
X198988588Y-93326552D01*
X199013574Y-93356997D01*
X199032141Y-93391733D01*
X199043575Y-93429426D01*
X199048040Y-93474761D01*
X199048040Y-94561439D01*
X199043575Y-94606774D01*
X199032141Y-94644467D01*
X199013574Y-94679203D01*
X198988588Y-94709648D01*
X198958143Y-94734634D01*
X198923407Y-94753201D01*
X198885714Y-94764635D01*
X198840379Y-94769100D01*
X198003701Y-94769100D01*
X197958366Y-94764635D01*
X197920673Y-94753201D01*
X197885937Y-94734634D01*
X197855492Y-94709648D01*
X197830506Y-94679203D01*
X197811939Y-94644467D01*
X197800505Y-94606774D01*
X197796040Y-94561439D01*
X197796040Y-93474761D01*
X197800505Y-93429426D01*
X197811939Y-93391733D01*
X197830506Y-93356997D01*
X197855492Y-93326552D01*
X197885937Y-93301566D01*
X197920673Y-93282999D01*
X197958366Y-93271565D01*
X198003701Y-93267100D01*
X198840379Y-93267100D01*
X198885714Y-93271565D01*
G37*
G36*
X186381514Y-93192825D02*
G01*
X186419207Y-93204259D01*
X186453943Y-93222826D01*
X186484388Y-93247812D01*
X186509374Y-93278257D01*
X186527941Y-93312993D01*
X186539375Y-93350686D01*
X186543840Y-93396021D01*
X186543840Y-94482699D01*
X186539375Y-94528034D01*
X186527941Y-94565727D01*
X186509374Y-94600463D01*
X186484388Y-94630908D01*
X186453943Y-94655894D01*
X186419207Y-94674461D01*
X186381514Y-94685895D01*
X186336179Y-94690360D01*
X185499501Y-94690360D01*
X185454166Y-94685895D01*
X185416473Y-94674461D01*
X185381737Y-94655894D01*
X185351292Y-94630908D01*
X185326306Y-94600463D01*
X185307739Y-94565727D01*
X185296305Y-94528034D01*
X185291840Y-94482699D01*
X185291840Y-93396021D01*
X185296305Y-93350686D01*
X185307739Y-93312993D01*
X185326306Y-93278257D01*
X185351292Y-93247812D01*
X185381737Y-93222826D01*
X185416473Y-93204259D01*
X185454166Y-93192825D01*
X185499501Y-93188360D01*
X186336179Y-93188360D01*
X186381514Y-93192825D01*
G37*
G36*
X184331514Y-93192825D02*
G01*
X184369207Y-93204259D01*
X184403943Y-93222826D01*
X184434388Y-93247812D01*
X184459374Y-93278257D01*
X184477941Y-93312993D01*
X184489375Y-93350686D01*
X184493840Y-93396021D01*
X184493840Y-94482699D01*
X184489375Y-94528034D01*
X184477941Y-94565727D01*
X184459374Y-94600463D01*
X184434388Y-94630908D01*
X184403943Y-94655894D01*
X184369207Y-94674461D01*
X184331514Y-94685895D01*
X184286179Y-94690360D01*
X183449501Y-94690360D01*
X183404166Y-94685895D01*
X183366473Y-94674461D01*
X183331737Y-94655894D01*
X183301292Y-94630908D01*
X183276306Y-94600463D01*
X183257739Y-94565727D01*
X183246305Y-94528034D01*
X183241840Y-94482699D01*
X183241840Y-93396021D01*
X183246305Y-93350686D01*
X183257739Y-93312993D01*
X183276306Y-93278257D01*
X183301292Y-93247812D01*
X183331737Y-93222826D01*
X183366473Y-93204259D01*
X183404166Y-93192825D01*
X183449501Y-93188360D01*
X184286179Y-93188360D01*
X184331514Y-93192825D01*
G37*
G36*
X178602034Y-93190605D02*
G01*
X178639727Y-93202039D01*
X178674463Y-93220606D01*
X178704908Y-93245592D01*
X178729894Y-93276037D01*
X178748461Y-93310773D01*
X178759895Y-93348466D01*
X178764360Y-93393801D01*
X178764360Y-94230479D01*
X178759895Y-94275814D01*
X178748461Y-94313507D01*
X178729894Y-94348243D01*
X178704908Y-94378688D01*
X178674463Y-94403674D01*
X178639727Y-94422241D01*
X178602034Y-94433675D01*
X178556699Y-94438140D01*
X177470021Y-94438140D01*
X177424686Y-94433675D01*
X177386993Y-94422241D01*
X177352257Y-94403674D01*
X177321812Y-94378688D01*
X177296826Y-94348243D01*
X177278259Y-94313507D01*
X177266825Y-94275814D01*
X177262360Y-94230479D01*
X177262360Y-93393801D01*
X177266825Y-93348466D01*
X177278259Y-93310773D01*
X177296826Y-93276037D01*
X177321812Y-93245592D01*
X177352257Y-93220606D01*
X177386993Y-93202039D01*
X177424686Y-93190605D01*
X177470021Y-93186140D01*
X178556699Y-93186140D01*
X178602034Y-93190605D01*
G37*
G36*
X208078340Y-94419960D02*
G01*
X206076340Y-94419960D01*
X206076340Y-92417960D01*
X208078340Y-92417960D01*
X208078340Y-94419960D01*
G37*
G36*
X180763574Y-93167965D02*
G01*
X180801267Y-93179399D01*
X180836003Y-93197966D01*
X180866448Y-93222952D01*
X180891434Y-93253397D01*
X180910001Y-93288133D01*
X180921435Y-93325826D01*
X180925900Y-93371161D01*
X180925900Y-94207839D01*
X180921435Y-94253174D01*
X180910001Y-94290867D01*
X180891434Y-94325603D01*
X180866448Y-94356048D01*
X180836003Y-94381034D01*
X180801267Y-94399601D01*
X180763574Y-94411035D01*
X180718239Y-94415500D01*
X179631561Y-94415500D01*
X179586226Y-94411035D01*
X179548533Y-94399601D01*
X179513797Y-94381034D01*
X179483352Y-94356048D01*
X179458366Y-94325603D01*
X179439799Y-94290867D01*
X179428365Y-94253174D01*
X179423900Y-94207839D01*
X179423900Y-93371161D01*
X179428365Y-93325826D01*
X179439799Y-93288133D01*
X179458366Y-93253397D01*
X179483352Y-93222952D01*
X179513797Y-93197966D01*
X179548533Y-93179399D01*
X179586226Y-93167965D01*
X179631561Y-93163500D01*
X180718239Y-93163500D01*
X180763574Y-93167965D01*
G37*
G36*
X196095740Y-94248760D02*
G01*
X195343740Y-94248760D01*
X195343740Y-93086760D01*
X196095740Y-93086760D01*
X196095740Y-94248760D01*
G37*
G36*
X194195740Y-94248760D02*
G01*
X193443740Y-94248760D01*
X193443740Y-93086760D01*
X194195740Y-93086760D01*
X194195740Y-94248760D01*
G37*
G36*
X177555842Y-90230553D02*
G01*
X177716261Y-90279216D01*
X177864097Y-90358235D01*
X177993679Y-90464581D01*
X178100024Y-90594162D01*
X178100025Y-90594164D01*
X178179044Y-90741998D01*
X178227707Y-90902417D01*
X178240020Y-91027436D01*
X178240020Y-91511043D01*
X178227707Y-91636062D01*
X178179044Y-91796482D01*
X178108134Y-91929146D01*
X178100024Y-91944318D01*
X177993679Y-92073899D01*
X177864098Y-92180244D01*
X177864096Y-92180245D01*
X177716262Y-92259264D01*
X177555843Y-92307927D01*
X177389020Y-92324357D01*
X177222198Y-92307927D01*
X177061779Y-92259264D01*
X176913945Y-92180245D01*
X176913943Y-92180244D01*
X176784362Y-92073899D01*
X176678016Y-91944318D01*
X176669906Y-91929146D01*
X176598996Y-91796482D01*
X176550333Y-91636063D01*
X176538020Y-91511044D01*
X176538020Y-91027437D01*
X176550333Y-90902418D01*
X176598996Y-90741999D01*
X176678015Y-90594163D01*
X176784361Y-90464581D01*
X176913942Y-90358236D01*
X176929114Y-90350126D01*
X177061778Y-90279216D01*
X177222197Y-90230553D01*
X177389020Y-90214123D01*
X177555842Y-90230553D01*
G37*
G36*
X180095842Y-90230553D02*
G01*
X180256261Y-90279216D01*
X180404097Y-90358235D01*
X180533679Y-90464581D01*
X180640024Y-90594162D01*
X180640025Y-90594164D01*
X180719044Y-90741998D01*
X180767707Y-90902417D01*
X180780020Y-91027436D01*
X180780020Y-91511043D01*
X180767707Y-91636062D01*
X180719044Y-91796482D01*
X180648134Y-91929146D01*
X180640024Y-91944318D01*
X180533679Y-92073899D01*
X180404098Y-92180244D01*
X180404096Y-92180245D01*
X180256262Y-92259264D01*
X180095843Y-92307927D01*
X179929020Y-92324357D01*
X179762198Y-92307927D01*
X179601779Y-92259264D01*
X179453945Y-92180245D01*
X179453943Y-92180244D01*
X179324362Y-92073899D01*
X179218016Y-91944318D01*
X179209906Y-91929146D01*
X179138996Y-91796482D01*
X179090333Y-91636063D01*
X179078020Y-91511044D01*
X179078020Y-91027437D01*
X179090333Y-90902418D01*
X179138996Y-90741999D01*
X179218015Y-90594163D01*
X179324361Y-90464581D01*
X179453942Y-90358236D01*
X179469114Y-90350126D01*
X179601778Y-90279216D01*
X179762197Y-90230553D01*
X179929020Y-90214123D01*
X180095842Y-90230553D01*
G37*
G36*
X182635842Y-90230553D02*
G01*
X182796261Y-90279216D01*
X182944097Y-90358235D01*
X183073679Y-90464581D01*
X183180024Y-90594162D01*
X183180025Y-90594164D01*
X183259044Y-90741998D01*
X183307707Y-90902417D01*
X183320020Y-91027436D01*
X183320020Y-91511043D01*
X183307707Y-91636062D01*
X183259044Y-91796482D01*
X183188134Y-91929146D01*
X183180024Y-91944318D01*
X183073679Y-92073899D01*
X182944098Y-92180244D01*
X182944096Y-92180245D01*
X182796262Y-92259264D01*
X182635843Y-92307927D01*
X182469020Y-92324357D01*
X182302198Y-92307927D01*
X182141779Y-92259264D01*
X181993945Y-92180245D01*
X181993943Y-92180244D01*
X181864362Y-92073899D01*
X181758016Y-91944318D01*
X181749906Y-91929146D01*
X181678996Y-91796482D01*
X181630333Y-91636063D01*
X181618020Y-91511044D01*
X181618020Y-91027437D01*
X181630333Y-90902418D01*
X181678996Y-90741999D01*
X181758015Y-90594163D01*
X181864361Y-90464581D01*
X181993942Y-90358236D01*
X182009114Y-90350126D01*
X182141778Y-90279216D01*
X182302197Y-90230553D01*
X182469020Y-90214123D01*
X182635842Y-90230553D01*
G37*
G36*
X175015842Y-90230553D02*
G01*
X175176261Y-90279216D01*
X175324097Y-90358235D01*
X175453679Y-90464581D01*
X175560024Y-90594162D01*
X175560025Y-90594164D01*
X175639044Y-90741998D01*
X175687707Y-90902417D01*
X175700020Y-91027436D01*
X175700020Y-91511043D01*
X175687707Y-91636062D01*
X175639044Y-91796482D01*
X175568134Y-91929146D01*
X175560024Y-91944318D01*
X175453679Y-92073899D01*
X175324098Y-92180244D01*
X175324096Y-92180245D01*
X175176262Y-92259264D01*
X175015843Y-92307927D01*
X174849020Y-92324357D01*
X174682198Y-92307927D01*
X174521779Y-92259264D01*
X174373945Y-92180245D01*
X174373943Y-92180244D01*
X174244362Y-92073899D01*
X174138016Y-91944318D01*
X174129906Y-91929146D01*
X174058996Y-91796482D01*
X174010333Y-91636063D01*
X173998020Y-91511044D01*
X173998020Y-91027437D01*
X174010333Y-90902418D01*
X174058996Y-90741999D01*
X174138015Y-90594163D01*
X174244361Y-90464581D01*
X174373942Y-90358236D01*
X174389114Y-90350126D01*
X174521778Y-90279216D01*
X174682197Y-90230553D01*
X174849020Y-90214123D01*
X175015842Y-90230553D01*
G37*
G36*
X191037874Y-91044525D02*
G01*
X191075567Y-91055959D01*
X191110303Y-91074526D01*
X191140748Y-91099512D01*
X191165734Y-91129957D01*
X191184301Y-91164693D01*
X191195735Y-91202386D01*
X191200200Y-91247721D01*
X191200200Y-92084399D01*
X191195735Y-92129734D01*
X191184301Y-92167427D01*
X191165734Y-92202163D01*
X191140748Y-92232608D01*
X191110303Y-92257594D01*
X191075567Y-92276161D01*
X191037874Y-92287595D01*
X190992539Y-92292060D01*
X189905861Y-92292060D01*
X189860526Y-92287595D01*
X189822833Y-92276161D01*
X189788097Y-92257594D01*
X189757652Y-92232608D01*
X189732666Y-92202163D01*
X189714099Y-92167427D01*
X189702665Y-92129734D01*
X189698200Y-92084399D01*
X189698200Y-91247721D01*
X189702665Y-91202386D01*
X189714099Y-91164693D01*
X189732666Y-91129957D01*
X189757652Y-91099512D01*
X189788097Y-91074526D01*
X189822833Y-91055959D01*
X189860526Y-91044525D01*
X189905861Y-91040060D01*
X190992539Y-91040060D01*
X191037874Y-91044525D01*
G37*
G36*
X196095740Y-92048760D02*
G01*
X193443740Y-92048760D01*
X193443740Y-90886760D01*
X196095740Y-90886760D01*
X196095740Y-92048760D01*
G37*
G36*
X205022431Y-87155488D02*
G01*
X205081760Y-87180063D01*
X205135150Y-87215737D01*
X205180563Y-87261150D01*
X205216237Y-87314540D01*
X205240812Y-87373869D01*
X205253340Y-87436852D01*
X205253340Y-87501068D01*
X205240812Y-87564051D01*
X205216237Y-87623380D01*
X205180563Y-87676770D01*
X205152760Y-87704573D01*
X205137215Y-87723515D01*
X205125664Y-87745126D01*
X205118551Y-87768575D01*
X205116149Y-87792961D01*
X205118551Y-87817347D01*
X205125664Y-87840796D01*
X205128340Y-87845803D01*
X205128340Y-91092117D01*
X205125664Y-91097124D01*
X205118551Y-91120573D01*
X205116149Y-91144959D01*
X205118551Y-91169345D01*
X205125664Y-91192794D01*
X205137215Y-91214405D01*
X205152760Y-91233347D01*
X205180563Y-91261150D01*
X205216237Y-91314540D01*
X205240812Y-91373869D01*
X205253340Y-91436852D01*
X205253340Y-91501068D01*
X205240812Y-91564051D01*
X205216237Y-91623380D01*
X205180563Y-91676770D01*
X205135150Y-91722183D01*
X205081760Y-91757857D01*
X205022431Y-91782432D01*
X204959448Y-91794960D01*
X204895232Y-91794960D01*
X204832249Y-91782432D01*
X204772920Y-91757857D01*
X204719530Y-91722183D01*
X204674117Y-91676770D01*
X204638443Y-91623380D01*
X204613868Y-91564051D01*
X204601340Y-91501068D01*
X204601340Y-91436852D01*
X204613868Y-91373869D01*
X204638443Y-91314540D01*
X204674117Y-91261150D01*
X204701920Y-91233347D01*
X204717465Y-91214405D01*
X204729016Y-91192794D01*
X204736129Y-91169345D01*
X204738531Y-91144959D01*
X204736129Y-91120573D01*
X204729016Y-91097124D01*
X204717465Y-91075513D01*
X204701920Y-91056571D01*
X204682978Y-91041026D01*
X204661367Y-91029475D01*
X204637918Y-91022362D01*
X204613532Y-91019960D01*
X203226340Y-91019960D01*
X203226340Y-87917960D01*
X204613532Y-87917960D01*
X204637918Y-87915558D01*
X204661367Y-87908445D01*
X204682978Y-87896894D01*
X204701920Y-87881349D01*
X204717465Y-87862407D01*
X204729016Y-87840796D01*
X204736129Y-87817347D01*
X204738531Y-87792961D01*
X204736129Y-87768575D01*
X204729016Y-87745126D01*
X204717465Y-87723515D01*
X204701920Y-87704573D01*
X204674117Y-87676770D01*
X204638443Y-87623380D01*
X204613868Y-87564051D01*
X204601340Y-87501068D01*
X204601340Y-87436852D01*
X204613868Y-87373869D01*
X204638443Y-87314540D01*
X204674117Y-87261150D01*
X204719530Y-87215737D01*
X204772920Y-87180063D01*
X204832249Y-87155488D01*
X204895232Y-87142960D01*
X204959448Y-87142960D01*
X205022431Y-87155488D01*
G37*
G36*
X187474254Y-90442765D02*
G01*
X187511947Y-90454199D01*
X187546683Y-90472766D01*
X187577128Y-90497752D01*
X187602114Y-90528197D01*
X187620681Y-90562933D01*
X187632115Y-90600626D01*
X187636580Y-90645961D01*
X187636580Y-91482639D01*
X187632115Y-91527974D01*
X187620681Y-91565667D01*
X187602114Y-91600403D01*
X187577128Y-91630848D01*
X187546683Y-91655834D01*
X187511947Y-91674401D01*
X187474254Y-91685835D01*
X187428919Y-91690300D01*
X186342241Y-91690300D01*
X186296906Y-91685835D01*
X186259213Y-91674401D01*
X186224477Y-91655834D01*
X186194032Y-91630848D01*
X186169046Y-91600403D01*
X186150479Y-91565667D01*
X186139045Y-91527974D01*
X186134580Y-91482639D01*
X186134580Y-90645961D01*
X186139045Y-90600626D01*
X186150479Y-90562933D01*
X186169046Y-90528197D01*
X186194032Y-90497752D01*
X186224477Y-90472766D01*
X186259213Y-90454199D01*
X186296906Y-90442765D01*
X186342241Y-90438300D01*
X187428919Y-90438300D01*
X187474254Y-90442765D01*
G37*
G36*
X208078340Y-91669960D02*
G01*
X206076340Y-91669960D01*
X206076340Y-89667960D01*
X208078340Y-89667960D01*
X208078340Y-91669960D01*
G37*
G36*
X198711320Y-91058140D02*
G01*
X198009320Y-91058140D01*
X198009320Y-90506140D01*
X198711320Y-90506140D01*
X198711320Y-91058140D01*
G37*
G36*
X200811320Y-91058140D02*
G01*
X200109320Y-91058140D01*
X200109320Y-90506140D01*
X200811320Y-90506140D01*
X200811320Y-91058140D01*
G37*
G36*
X191037874Y-88994525D02*
G01*
X191075567Y-89005959D01*
X191110303Y-89024526D01*
X191140748Y-89049512D01*
X191165734Y-89079957D01*
X191184301Y-89114693D01*
X191195735Y-89152386D01*
X191200200Y-89197721D01*
X191200200Y-90034399D01*
X191195735Y-90079734D01*
X191184301Y-90117427D01*
X191165734Y-90152163D01*
X191140748Y-90182608D01*
X191110303Y-90207594D01*
X191075567Y-90226161D01*
X191037874Y-90237595D01*
X190992539Y-90242060D01*
X189905861Y-90242060D01*
X189860526Y-90237595D01*
X189822833Y-90226161D01*
X189788097Y-90207594D01*
X189757652Y-90182608D01*
X189732666Y-90152163D01*
X189714099Y-90117427D01*
X189702665Y-90079734D01*
X189698200Y-90034399D01*
X189698200Y-89197721D01*
X189702665Y-89152386D01*
X189714099Y-89114693D01*
X189732666Y-89079957D01*
X189757652Y-89049512D01*
X189788097Y-89024526D01*
X189822833Y-89005959D01*
X189860526Y-88994525D01*
X189905861Y-88990060D01*
X190992539Y-88990060D01*
X191037874Y-88994525D01*
G37*
G36*
X187474254Y-88392765D02*
G01*
X187511947Y-88404199D01*
X187546683Y-88422766D01*
X187577128Y-88447752D01*
X187602114Y-88478197D01*
X187620681Y-88512933D01*
X187632115Y-88550626D01*
X187636580Y-88595961D01*
X187636580Y-89432639D01*
X187632115Y-89477974D01*
X187620681Y-89515667D01*
X187602114Y-89550403D01*
X187577128Y-89580848D01*
X187546683Y-89605834D01*
X187511947Y-89624401D01*
X187474254Y-89635835D01*
X187428919Y-89640300D01*
X186342241Y-89640300D01*
X186296906Y-89635835D01*
X186259213Y-89624401D01*
X186224477Y-89605834D01*
X186194032Y-89580848D01*
X186169046Y-89550403D01*
X186150479Y-89515667D01*
X186139045Y-89477974D01*
X186134580Y-89432639D01*
X186134580Y-88595961D01*
X186139045Y-88550626D01*
X186150479Y-88512933D01*
X186169046Y-88478197D01*
X186194032Y-88447752D01*
X186224477Y-88422766D01*
X186259213Y-88404199D01*
X186296906Y-88392765D01*
X186342241Y-88388300D01*
X187428919Y-88388300D01*
X187474254Y-88392765D01*
G37*
G36*
X208078340Y-89269960D02*
G01*
X206076340Y-89269960D01*
X206076340Y-87267960D01*
X208078340Y-87267960D01*
X208078340Y-89269960D01*
G37*
G36*
X192539014Y-87097365D02*
G01*
X192576707Y-87108799D01*
X192611443Y-87127366D01*
X192641888Y-87152352D01*
X192666874Y-87182797D01*
X192685441Y-87217533D01*
X192696875Y-87255226D01*
X192701340Y-87300561D01*
X192701340Y-88137239D01*
X192696875Y-88182574D01*
X192685441Y-88220267D01*
X192666874Y-88255003D01*
X192641888Y-88285448D01*
X192611443Y-88310434D01*
X192576707Y-88329001D01*
X192539014Y-88340435D01*
X192493679Y-88344900D01*
X191407001Y-88344900D01*
X191361666Y-88340435D01*
X191323973Y-88329001D01*
X191289237Y-88310434D01*
X191258792Y-88285448D01*
X191233806Y-88255003D01*
X191215239Y-88220267D01*
X191203805Y-88182574D01*
X191199340Y-88137239D01*
X191199340Y-87300561D01*
X191203805Y-87255226D01*
X191215239Y-87217533D01*
X191233806Y-87182797D01*
X191258792Y-87152352D01*
X191289237Y-87127366D01*
X191323973Y-87108799D01*
X191361666Y-87097365D01*
X191407001Y-87092900D01*
X192493679Y-87092900D01*
X192539014Y-87097365D01*
G37*
G36*
X184569140Y-87743820D02*
G01*
X183817140Y-87743820D01*
X183817140Y-86581820D01*
X184569140Y-86581820D01*
X184569140Y-87743820D01*
G37*
G36*
X186469140Y-87743820D02*
G01*
X185717140Y-87743820D01*
X185717140Y-86581820D01*
X186469140Y-86581820D01*
X186469140Y-87743820D01*
G37*
G36*
X153369670Y-85373857D02*
G01*
X153488144Y-85422931D01*
X153594768Y-85494175D01*
X153685445Y-85584852D01*
X153756690Y-85691478D01*
X153805763Y-85809950D01*
X153830780Y-85935721D01*
X153830780Y-86063959D01*
X153805763Y-86189730D01*
X153768786Y-86279001D01*
X153756689Y-86308204D01*
X153685445Y-86414828D01*
X153594768Y-86505505D01*
X153488144Y-86576749D01*
X153488143Y-86576750D01*
X153488142Y-86576750D01*
X153369670Y-86625823D01*
X153243899Y-86650840D01*
X153115661Y-86650840D01*
X152989890Y-86625823D01*
X152871418Y-86576750D01*
X152871417Y-86576750D01*
X152871416Y-86576749D01*
X152764792Y-86505505D01*
X152674115Y-86414828D01*
X152602871Y-86308204D01*
X152590775Y-86279001D01*
X152553797Y-86189730D01*
X152528780Y-86063959D01*
X152528780Y-85935721D01*
X152553797Y-85809950D01*
X152602870Y-85691478D01*
X152674115Y-85584852D01*
X152764792Y-85494175D01*
X152871416Y-85422931D01*
X152989890Y-85373857D01*
X153115661Y-85348840D01*
X153243899Y-85348840D01*
X153369670Y-85373857D01*
G37*
G36*
X208078340Y-86519960D02*
G01*
X206076340Y-86519960D01*
X206076340Y-84517960D01*
X208078340Y-84517960D01*
X208078340Y-86519960D01*
G37*
G36*
X200196640Y-86437880D02*
G01*
X199494640Y-86437880D01*
X199494640Y-85885880D01*
X200196640Y-85885880D01*
X200196640Y-86437880D01*
G37*
G36*
X198096640Y-86437880D02*
G01*
X197394640Y-86437880D01*
X197394640Y-85885880D01*
X198096640Y-85885880D01*
X198096640Y-86437880D01*
G37*
G36*
X192539014Y-85047365D02*
G01*
X192576707Y-85058799D01*
X192611443Y-85077366D01*
X192641888Y-85102352D01*
X192666874Y-85132797D01*
X192685441Y-85167533D01*
X192696875Y-85205226D01*
X192701340Y-85250561D01*
X192701340Y-86087239D01*
X192696875Y-86132574D01*
X192685441Y-86170267D01*
X192666874Y-86205003D01*
X192641888Y-86235448D01*
X192611443Y-86260434D01*
X192576707Y-86279001D01*
X192539014Y-86290435D01*
X192493679Y-86294900D01*
X191407001Y-86294900D01*
X191361666Y-86290435D01*
X191323973Y-86279001D01*
X191289237Y-86260434D01*
X191258792Y-86235448D01*
X191233806Y-86205003D01*
X191215239Y-86170267D01*
X191203805Y-86132574D01*
X191199340Y-86087239D01*
X191199340Y-85250561D01*
X191203805Y-85205226D01*
X191215239Y-85167533D01*
X191233806Y-85132797D01*
X191258792Y-85102352D01*
X191289237Y-85077366D01*
X191323973Y-85058799D01*
X191361666Y-85047365D01*
X191407001Y-85042900D01*
X192493679Y-85042900D01*
X192539014Y-85047365D01*
G37*
G36*
X186469140Y-85543820D02*
G01*
X183817140Y-85543820D01*
X183817140Y-84381820D01*
X186469140Y-84381820D01*
X186469140Y-85543820D01*
G37*
G36*
X200363000Y-84432720D02*
G01*
X199361000Y-84432720D01*
X199361000Y-83080720D01*
X200363000Y-83080720D01*
X200363000Y-84432720D01*
G37*
G36*
X197363000Y-84432720D02*
G01*
X196361000Y-84432720D01*
X196361000Y-83080720D01*
X197363000Y-83080720D01*
X197363000Y-84432720D01*
G37*
G36*
X195863000Y-84432720D02*
G01*
X194861000Y-84432720D01*
X194861000Y-83080720D01*
X195863000Y-83080720D01*
X195863000Y-84432720D01*
G37*
G36*
X194263000Y-83307720D02*
G01*
X193261000Y-83307720D01*
X193261000Y-82305720D01*
X194263000Y-82305720D01*
X194263000Y-83307720D01*
G37*
G36*
X201963000Y-83307720D02*
G01*
X200961000Y-83307720D01*
X200961000Y-82305720D01*
X201963000Y-82305720D01*
X201963000Y-83307720D01*
G37*
G36*
X163673512Y-81403927D02*
G01*
X163822812Y-81433624D01*
X163986784Y-81501544D01*
X164134354Y-81600147D01*
X164259853Y-81725646D01*
X164358456Y-81873216D01*
X164426376Y-82037188D01*
X164461000Y-82211259D01*
X164461000Y-82388741D01*
X164426376Y-82562812D01*
X164358456Y-82726784D01*
X164259853Y-82874354D01*
X164134354Y-82999853D01*
X163986784Y-83098456D01*
X163822812Y-83166376D01*
X163673512Y-83196073D01*
X163648742Y-83201000D01*
X163471258Y-83201000D01*
X163446488Y-83196073D01*
X163297188Y-83166376D01*
X163133216Y-83098456D01*
X162985646Y-82999853D01*
X162860147Y-82874354D01*
X162761544Y-82726784D01*
X162693624Y-82562812D01*
X162659000Y-82388741D01*
X162659000Y-82211259D01*
X162693624Y-82037188D01*
X162761544Y-81873216D01*
X162860147Y-81725646D01*
X162985646Y-81600147D01*
X163133216Y-81501544D01*
X163297188Y-81433624D01*
X163446488Y-81403927D01*
X163471258Y-81399000D01*
X163648742Y-81399000D01*
X163673512Y-81403927D01*
G37*
G36*
X167001000Y-83201000D02*
G01*
X165199000Y-83201000D01*
X165199000Y-81399000D01*
X167001000Y-81399000D01*
X167001000Y-83201000D01*
G37*
G36*
X185618134Y-81140525D02*
G01*
X185655827Y-81151959D01*
X185690563Y-81170526D01*
X185721008Y-81195512D01*
X185745994Y-81225957D01*
X185764561Y-81260693D01*
X185775995Y-81298386D01*
X185780460Y-81343721D01*
X185780460Y-82430399D01*
X185775995Y-82475734D01*
X185764561Y-82513427D01*
X185745994Y-82548163D01*
X185721008Y-82578608D01*
X185690563Y-82603594D01*
X185655827Y-82622161D01*
X185618134Y-82633595D01*
X185572799Y-82638060D01*
X184736121Y-82638060D01*
X184690786Y-82633595D01*
X184653093Y-82622161D01*
X184618357Y-82603594D01*
X184587912Y-82578608D01*
X184562926Y-82548163D01*
X184544359Y-82513427D01*
X184532925Y-82475734D01*
X184528460Y-82430399D01*
X184528460Y-81343721D01*
X184532925Y-81298386D01*
X184544359Y-81260693D01*
X184562926Y-81225957D01*
X184587912Y-81195512D01*
X184618357Y-81170526D01*
X184653093Y-81151959D01*
X184690786Y-81140525D01*
X184736121Y-81136060D01*
X185572799Y-81136060D01*
X185618134Y-81140525D01*
G37*
G36*
X187668134Y-81140525D02*
G01*
X187705827Y-81151959D01*
X187740563Y-81170526D01*
X187771008Y-81195512D01*
X187795994Y-81225957D01*
X187814561Y-81260693D01*
X187825995Y-81298386D01*
X187830460Y-81343721D01*
X187830460Y-82430399D01*
X187825995Y-82475734D01*
X187814561Y-82513427D01*
X187795994Y-82548163D01*
X187771008Y-82578608D01*
X187740563Y-82603594D01*
X187705827Y-82622161D01*
X187668134Y-82633595D01*
X187622799Y-82638060D01*
X186786121Y-82638060D01*
X186740786Y-82633595D01*
X186703093Y-82622161D01*
X186668357Y-82603594D01*
X186637912Y-82578608D01*
X186612926Y-82548163D01*
X186594359Y-82513427D01*
X186582925Y-82475734D01*
X186578460Y-82430399D01*
X186578460Y-81343721D01*
X186582925Y-81298386D01*
X186594359Y-81260693D01*
X186612926Y-81225957D01*
X186637912Y-81195512D01*
X186668357Y-81170526D01*
X186703093Y-81151959D01*
X186740786Y-81140525D01*
X186786121Y-81136060D01*
X187622799Y-81136060D01*
X187668134Y-81140525D01*
G37*
G36*
X199236260Y-81297091D02*
G01*
X199270071Y-81311096D01*
X199313784Y-81329202D01*
X199313787Y-81329204D01*
X199383559Y-81375824D01*
X199442896Y-81435161D01*
X199442897Y-81435163D01*
X199489518Y-81504936D01*
X199507624Y-81548649D01*
X199521629Y-81582460D01*
X199538000Y-81664763D01*
X199538000Y-81748677D01*
X199521629Y-81830980D01*
X199507624Y-81864791D01*
X199489518Y-81908504D01*
X199489516Y-81908507D01*
X199442896Y-81978279D01*
X199383559Y-82037616D01*
X199313787Y-82084236D01*
X199313784Y-82084238D01*
X199270071Y-82102344D01*
X199236260Y-82116349D01*
X199153957Y-82132720D01*
X199070043Y-82132720D01*
X198987740Y-82116349D01*
X198953929Y-82102344D01*
X198910216Y-82084238D01*
X198910213Y-82084236D01*
X198840441Y-82037616D01*
X198781104Y-81978279D01*
X198734484Y-81908507D01*
X198734482Y-81908504D01*
X198716376Y-81864791D01*
X198702371Y-81830980D01*
X198686000Y-81748677D01*
X198686000Y-81664763D01*
X198702371Y-81582460D01*
X198716376Y-81548649D01*
X198734482Y-81504936D01*
X198781103Y-81435163D01*
X198781104Y-81435161D01*
X198840441Y-81375824D01*
X198910213Y-81329204D01*
X198910216Y-81329202D01*
X198953929Y-81311096D01*
X198987740Y-81297091D01*
X199070043Y-81280720D01*
X199153957Y-81280720D01*
X199236260Y-81297091D01*
G37*
G36*
X196236260Y-81297091D02*
G01*
X196270071Y-81311096D01*
X196313784Y-81329202D01*
X196313787Y-81329204D01*
X196383559Y-81375824D01*
X196442896Y-81435161D01*
X196442897Y-81435163D01*
X196489518Y-81504936D01*
X196507624Y-81548649D01*
X196521629Y-81582460D01*
X196538000Y-81664763D01*
X196538000Y-81748677D01*
X196521629Y-81830980D01*
X196507624Y-81864791D01*
X196489518Y-81908504D01*
X196489516Y-81908507D01*
X196442896Y-81978279D01*
X196383559Y-82037616D01*
X196313787Y-82084236D01*
X196313784Y-82084238D01*
X196270071Y-82102344D01*
X196236260Y-82116349D01*
X196153957Y-82132720D01*
X196070043Y-82132720D01*
X195987740Y-82116349D01*
X195953929Y-82102344D01*
X195910216Y-82084238D01*
X195910213Y-82084236D01*
X195840441Y-82037616D01*
X195781104Y-81978279D01*
X195734484Y-81908507D01*
X195734482Y-81908504D01*
X195716376Y-81864791D01*
X195702371Y-81830980D01*
X195686000Y-81748677D01*
X195686000Y-81664763D01*
X195702371Y-81582460D01*
X195716376Y-81548649D01*
X195734482Y-81504936D01*
X195781103Y-81435163D01*
X195781104Y-81435161D01*
X195840441Y-81375824D01*
X195910213Y-81329204D01*
X195910216Y-81329202D01*
X195953929Y-81311096D01*
X195987740Y-81297091D01*
X196070043Y-81280720D01*
X196153957Y-81280720D01*
X196236260Y-81297091D01*
G37*
G36*
X194263000Y-81107720D02*
G01*
X193261000Y-81107720D01*
X193261000Y-80105720D01*
X194263000Y-80105720D01*
X194263000Y-81107720D01*
G37*
G36*
X201963000Y-81107720D02*
G01*
X200961000Y-81107720D01*
X200961000Y-80105720D01*
X201963000Y-80105720D01*
X201963000Y-81107720D01*
G37*
G36*
X153369670Y-79373857D02*
G01*
X153488144Y-79422931D01*
X153594768Y-79494175D01*
X153685445Y-79584852D01*
X153756689Y-79691476D01*
X153805763Y-79809950D01*
X153830780Y-79935722D01*
X153830780Y-80063958D01*
X153805763Y-80189730D01*
X153756689Y-80308204D01*
X153685445Y-80414828D01*
X153594768Y-80505505D01*
X153488144Y-80576749D01*
X153488143Y-80576750D01*
X153488142Y-80576750D01*
X153369670Y-80625823D01*
X153243899Y-80650840D01*
X153115661Y-80650840D01*
X152989890Y-80625823D01*
X152871418Y-80576750D01*
X152871417Y-80576750D01*
X152871416Y-80576749D01*
X152764792Y-80505505D01*
X152674115Y-80414828D01*
X152602871Y-80308204D01*
X152553797Y-80189730D01*
X152528780Y-80063958D01*
X152528780Y-79935722D01*
X152553797Y-79809950D01*
X152602871Y-79691476D01*
X152674115Y-79584852D01*
X152764792Y-79494175D01*
X152871416Y-79422931D01*
X152989890Y-79373857D01*
X153115661Y-79348840D01*
X153243899Y-79348840D01*
X153369670Y-79373857D01*
G37*
M02*
