G04 #@! TF.GenerationSoftware,KiCad,Pcbnew,5.1.5-52549c5~84~ubuntu16.04.1*
G04 #@! TF.CreationDate,2020-03-24T16:17:06-03:00*
G04 #@! TF.ProjectId,microbit_hat1_rd,6d696372-6f62-4697-945f-686174315f72,rev?*
G04 #@! TF.SameCoordinates,Original*
G04 #@! TF.FileFunction,Copper,L1,Top*
G04 #@! TF.FilePolarity,Positive*
%FSLAX46Y46*%
G04 Gerber Fmt 4.6, Leading zero omitted, Abs format (unit mm)*
G04 Created by KiCad (PCBNEW 5.1.5-52549c5~84~ubuntu16.04.1) date 2020-03-24 16:17:06*
%MOMM*%
%LPD*%
G04 APERTURE LIST*
%ADD10R,1.100000X5.500000*%
%ADD11R,0.500000X1.800000*%
%ADD12R,0.800000X2.500000*%
%ADD13O,1.600000X2.000000*%
%ADD14O,1.700000X1.700000*%
%ADD15R,1.700000X1.700000*%
%ADD16R,0.650000X1.060000*%
%ADD17R,0.900000X0.900000*%
%ADD18R,0.900000X1.250000*%
%ADD19C,0.750000*%
%ADD20C,0.100000*%
%ADD21O,1.000000X1.000000*%
%ADD22R,1.000000X1.000000*%
%ADD23R,1.900000X1.900000*%
%ADD24R,1.800000X0.400000*%
%ADD25R,0.600000X0.450000*%
%ADD26C,1.000000*%
%ADD27C,0.800000*%
%ADD28C,0.250000*%
%ADD29C,0.254000*%
G04 APERTURE END LIST*
D10*
X205148240Y-105901160D03*
X151148240Y-105901160D03*
D11*
X205148240Y-105901160D03*
X151148240Y-105901160D03*
D12*
X203313240Y-113861160D03*
X202043240Y-113861160D03*
X200773240Y-113861160D03*
X199503240Y-113861160D03*
X198233240Y-113861160D03*
X196963240Y-113861160D03*
X195693240Y-113861160D03*
X194423240Y-113861160D03*
X193153240Y-113861160D03*
X191883240Y-113861160D03*
X190613240Y-113861160D03*
X189343240Y-113861160D03*
X188073240Y-113861160D03*
X186803240Y-113861160D03*
X185533240Y-113861160D03*
X184263240Y-113861160D03*
X182993240Y-113861160D03*
X181723240Y-113861160D03*
X180453240Y-113861160D03*
X179183240Y-113861160D03*
X177913240Y-113861160D03*
X176643240Y-113861160D03*
X175373240Y-113861160D03*
X174103240Y-113861160D03*
X172833240Y-113852960D03*
X171563240Y-113861160D03*
X170293240Y-113861160D03*
X169023240Y-113861160D03*
X167753240Y-113861160D03*
X166483240Y-113861160D03*
X165213240Y-113861160D03*
X163943240Y-113861160D03*
X162673240Y-113861160D03*
X161403240Y-113861160D03*
X160133240Y-113861160D03*
X158863240Y-113861160D03*
X157593240Y-113861160D03*
X156323240Y-113861160D03*
X155053240Y-113861160D03*
X153783240Y-113861160D03*
D13*
X179929020Y-91269240D03*
X182469020Y-91269240D03*
X177389020Y-91269240D03*
X174849020Y-91269240D03*
D14*
X153090880Y-126232920D03*
X155630880Y-126232920D03*
X158170880Y-126232920D03*
X160710880Y-126232920D03*
X163250880Y-126232920D03*
X165790880Y-126232920D03*
X168330880Y-126232920D03*
X170870880Y-126232920D03*
X173410880Y-126232920D03*
X175950880Y-126232920D03*
X178490880Y-126232920D03*
X181030880Y-126232920D03*
X183570880Y-126232920D03*
X186110880Y-126232920D03*
X188650880Y-126232920D03*
X191190880Y-126232920D03*
X193730880Y-126232920D03*
X196270880Y-126232920D03*
X198810880Y-126232920D03*
X201350880Y-126232920D03*
D15*
X203890880Y-126232920D03*
D16*
X186093140Y-87162820D03*
X184193140Y-87162820D03*
X184193140Y-84962820D03*
X185143140Y-84962820D03*
X186093140Y-84962820D03*
X195719740Y-93667760D03*
X193819740Y-93667760D03*
X193819740Y-91467760D03*
X194769740Y-91467760D03*
X195719740Y-91467760D03*
D17*
X193762000Y-80606720D03*
X193762000Y-82806720D03*
X201462000Y-80606720D03*
X201462000Y-82806720D03*
D18*
X195362000Y-83756720D03*
X196862000Y-83756720D03*
X199862000Y-83756720D03*
D19*
X199112000Y-81706720D03*
X196112000Y-81706720D03*
G04 #@! TA.AperFunction,SMDPad,CuDef*
D20*
G36*
X180454445Y-97540784D02*
G01*
X180478713Y-97544384D01*
X180502512Y-97550345D01*
X180525611Y-97558610D01*
X180547790Y-97569100D01*
X180568833Y-97581712D01*
X180588539Y-97596327D01*
X180606717Y-97612803D01*
X180623193Y-97630981D01*
X180637808Y-97650687D01*
X180650420Y-97671730D01*
X180660910Y-97693909D01*
X180669175Y-97717008D01*
X180675136Y-97740807D01*
X180678736Y-97765075D01*
X180679940Y-97789579D01*
X180679940Y-98689581D01*
X180678736Y-98714085D01*
X180675136Y-98738353D01*
X180669175Y-98762152D01*
X180660910Y-98785251D01*
X180650420Y-98807430D01*
X180637808Y-98828473D01*
X180623193Y-98848179D01*
X180606717Y-98866357D01*
X180588539Y-98882833D01*
X180568833Y-98897448D01*
X180547790Y-98910060D01*
X180525611Y-98920550D01*
X180502512Y-98928815D01*
X180478713Y-98934776D01*
X180454445Y-98938376D01*
X180429941Y-98939580D01*
X179779939Y-98939580D01*
X179755435Y-98938376D01*
X179731167Y-98934776D01*
X179707368Y-98928815D01*
X179684269Y-98920550D01*
X179662090Y-98910060D01*
X179641047Y-98897448D01*
X179621341Y-98882833D01*
X179603163Y-98866357D01*
X179586687Y-98848179D01*
X179572072Y-98828473D01*
X179559460Y-98807430D01*
X179548970Y-98785251D01*
X179540705Y-98762152D01*
X179534744Y-98738353D01*
X179531144Y-98714085D01*
X179529940Y-98689581D01*
X179529940Y-97789579D01*
X179531144Y-97765075D01*
X179534744Y-97740807D01*
X179540705Y-97717008D01*
X179548970Y-97693909D01*
X179559460Y-97671730D01*
X179572072Y-97650687D01*
X179586687Y-97630981D01*
X179603163Y-97612803D01*
X179621341Y-97596327D01*
X179641047Y-97581712D01*
X179662090Y-97569100D01*
X179684269Y-97558610D01*
X179707368Y-97550345D01*
X179731167Y-97544384D01*
X179755435Y-97540784D01*
X179779939Y-97539580D01*
X180429941Y-97539580D01*
X180454445Y-97540784D01*
G37*
G04 #@! TD.AperFunction*
G04 #@! TA.AperFunction,SMDPad,CuDef*
G36*
X182504445Y-97540784D02*
G01*
X182528713Y-97544384D01*
X182552512Y-97550345D01*
X182575611Y-97558610D01*
X182597790Y-97569100D01*
X182618833Y-97581712D01*
X182638539Y-97596327D01*
X182656717Y-97612803D01*
X182673193Y-97630981D01*
X182687808Y-97650687D01*
X182700420Y-97671730D01*
X182710910Y-97693909D01*
X182719175Y-97717008D01*
X182725136Y-97740807D01*
X182728736Y-97765075D01*
X182729940Y-97789579D01*
X182729940Y-98689581D01*
X182728736Y-98714085D01*
X182725136Y-98738353D01*
X182719175Y-98762152D01*
X182710910Y-98785251D01*
X182700420Y-98807430D01*
X182687808Y-98828473D01*
X182673193Y-98848179D01*
X182656717Y-98866357D01*
X182638539Y-98882833D01*
X182618833Y-98897448D01*
X182597790Y-98910060D01*
X182575611Y-98920550D01*
X182552512Y-98928815D01*
X182528713Y-98934776D01*
X182504445Y-98938376D01*
X182479941Y-98939580D01*
X181829939Y-98939580D01*
X181805435Y-98938376D01*
X181781167Y-98934776D01*
X181757368Y-98928815D01*
X181734269Y-98920550D01*
X181712090Y-98910060D01*
X181691047Y-98897448D01*
X181671341Y-98882833D01*
X181653163Y-98866357D01*
X181636687Y-98848179D01*
X181622072Y-98828473D01*
X181609460Y-98807430D01*
X181598970Y-98785251D01*
X181590705Y-98762152D01*
X181584744Y-98738353D01*
X181581144Y-98714085D01*
X181579940Y-98689581D01*
X181579940Y-97789579D01*
X181581144Y-97765075D01*
X181584744Y-97740807D01*
X181590705Y-97717008D01*
X181598970Y-97693909D01*
X181609460Y-97671730D01*
X181622072Y-97650687D01*
X181636687Y-97630981D01*
X181653163Y-97612803D01*
X181671341Y-97596327D01*
X181691047Y-97581712D01*
X181712090Y-97569100D01*
X181734269Y-97558610D01*
X181757368Y-97550345D01*
X181781167Y-97544384D01*
X181805435Y-97540784D01*
X181829939Y-97539580D01*
X182479941Y-97539580D01*
X182504445Y-97540784D01*
G37*
G04 #@! TD.AperFunction*
G04 #@! TA.AperFunction,SMDPad,CuDef*
G36*
X180649405Y-93215704D02*
G01*
X180673673Y-93219304D01*
X180697472Y-93225265D01*
X180720571Y-93233530D01*
X180742750Y-93244020D01*
X180763793Y-93256632D01*
X180783499Y-93271247D01*
X180801677Y-93287723D01*
X180818153Y-93305901D01*
X180832768Y-93325607D01*
X180845380Y-93346650D01*
X180855870Y-93368829D01*
X180864135Y-93391928D01*
X180870096Y-93415727D01*
X180873696Y-93439995D01*
X180874900Y-93464499D01*
X180874900Y-94114501D01*
X180873696Y-94139005D01*
X180870096Y-94163273D01*
X180864135Y-94187072D01*
X180855870Y-94210171D01*
X180845380Y-94232350D01*
X180832768Y-94253393D01*
X180818153Y-94273099D01*
X180801677Y-94291277D01*
X180783499Y-94307753D01*
X180763793Y-94322368D01*
X180742750Y-94334980D01*
X180720571Y-94345470D01*
X180697472Y-94353735D01*
X180673673Y-94359696D01*
X180649405Y-94363296D01*
X180624901Y-94364500D01*
X179724899Y-94364500D01*
X179700395Y-94363296D01*
X179676127Y-94359696D01*
X179652328Y-94353735D01*
X179629229Y-94345470D01*
X179607050Y-94334980D01*
X179586007Y-94322368D01*
X179566301Y-94307753D01*
X179548123Y-94291277D01*
X179531647Y-94273099D01*
X179517032Y-94253393D01*
X179504420Y-94232350D01*
X179493930Y-94210171D01*
X179485665Y-94187072D01*
X179479704Y-94163273D01*
X179476104Y-94139005D01*
X179474900Y-94114501D01*
X179474900Y-93464499D01*
X179476104Y-93439995D01*
X179479704Y-93415727D01*
X179485665Y-93391928D01*
X179493930Y-93368829D01*
X179504420Y-93346650D01*
X179517032Y-93325607D01*
X179531647Y-93305901D01*
X179548123Y-93287723D01*
X179566301Y-93271247D01*
X179586007Y-93256632D01*
X179607050Y-93244020D01*
X179629229Y-93233530D01*
X179652328Y-93225265D01*
X179676127Y-93219304D01*
X179700395Y-93215704D01*
X179724899Y-93214500D01*
X180624901Y-93214500D01*
X180649405Y-93215704D01*
G37*
G04 #@! TD.AperFunction*
G04 #@! TA.AperFunction,SMDPad,CuDef*
G36*
X180649405Y-95265704D02*
G01*
X180673673Y-95269304D01*
X180697472Y-95275265D01*
X180720571Y-95283530D01*
X180742750Y-95294020D01*
X180763793Y-95306632D01*
X180783499Y-95321247D01*
X180801677Y-95337723D01*
X180818153Y-95355901D01*
X180832768Y-95375607D01*
X180845380Y-95396650D01*
X180855870Y-95418829D01*
X180864135Y-95441928D01*
X180870096Y-95465727D01*
X180873696Y-95489995D01*
X180874900Y-95514499D01*
X180874900Y-96164501D01*
X180873696Y-96189005D01*
X180870096Y-96213273D01*
X180864135Y-96237072D01*
X180855870Y-96260171D01*
X180845380Y-96282350D01*
X180832768Y-96303393D01*
X180818153Y-96323099D01*
X180801677Y-96341277D01*
X180783499Y-96357753D01*
X180763793Y-96372368D01*
X180742750Y-96384980D01*
X180720571Y-96395470D01*
X180697472Y-96403735D01*
X180673673Y-96409696D01*
X180649405Y-96413296D01*
X180624901Y-96414500D01*
X179724899Y-96414500D01*
X179700395Y-96413296D01*
X179676127Y-96409696D01*
X179652328Y-96403735D01*
X179629229Y-96395470D01*
X179607050Y-96384980D01*
X179586007Y-96372368D01*
X179566301Y-96357753D01*
X179548123Y-96341277D01*
X179531647Y-96323099D01*
X179517032Y-96303393D01*
X179504420Y-96282350D01*
X179493930Y-96260171D01*
X179485665Y-96237072D01*
X179479704Y-96213273D01*
X179476104Y-96189005D01*
X179474900Y-96164501D01*
X179474900Y-95514499D01*
X179476104Y-95489995D01*
X179479704Y-95465727D01*
X179485665Y-95441928D01*
X179493930Y-95418829D01*
X179504420Y-95396650D01*
X179517032Y-95375607D01*
X179531647Y-95355901D01*
X179548123Y-95337723D01*
X179566301Y-95321247D01*
X179586007Y-95306632D01*
X179607050Y-95294020D01*
X179629229Y-95283530D01*
X179652328Y-95275265D01*
X179676127Y-95269304D01*
X179700395Y-95265704D01*
X179724899Y-95264500D01*
X180624901Y-95264500D01*
X180649405Y-95265704D01*
G37*
G04 #@! TD.AperFunction*
G04 #@! TA.AperFunction,SMDPad,CuDef*
G36*
X186267345Y-93240564D02*
G01*
X186291613Y-93244164D01*
X186315412Y-93250125D01*
X186338511Y-93258390D01*
X186360690Y-93268880D01*
X186381733Y-93281492D01*
X186401439Y-93296107D01*
X186419617Y-93312583D01*
X186436093Y-93330761D01*
X186450708Y-93350467D01*
X186463320Y-93371510D01*
X186473810Y-93393689D01*
X186482075Y-93416788D01*
X186488036Y-93440587D01*
X186491636Y-93464855D01*
X186492840Y-93489359D01*
X186492840Y-94389361D01*
X186491636Y-94413865D01*
X186488036Y-94438133D01*
X186482075Y-94461932D01*
X186473810Y-94485031D01*
X186463320Y-94507210D01*
X186450708Y-94528253D01*
X186436093Y-94547959D01*
X186419617Y-94566137D01*
X186401439Y-94582613D01*
X186381733Y-94597228D01*
X186360690Y-94609840D01*
X186338511Y-94620330D01*
X186315412Y-94628595D01*
X186291613Y-94634556D01*
X186267345Y-94638156D01*
X186242841Y-94639360D01*
X185592839Y-94639360D01*
X185568335Y-94638156D01*
X185544067Y-94634556D01*
X185520268Y-94628595D01*
X185497169Y-94620330D01*
X185474990Y-94609840D01*
X185453947Y-94597228D01*
X185434241Y-94582613D01*
X185416063Y-94566137D01*
X185399587Y-94547959D01*
X185384972Y-94528253D01*
X185372360Y-94507210D01*
X185361870Y-94485031D01*
X185353605Y-94461932D01*
X185347644Y-94438133D01*
X185344044Y-94413865D01*
X185342840Y-94389361D01*
X185342840Y-93489359D01*
X185344044Y-93464855D01*
X185347644Y-93440587D01*
X185353605Y-93416788D01*
X185361870Y-93393689D01*
X185372360Y-93371510D01*
X185384972Y-93350467D01*
X185399587Y-93330761D01*
X185416063Y-93312583D01*
X185434241Y-93296107D01*
X185453947Y-93281492D01*
X185474990Y-93268880D01*
X185497169Y-93258390D01*
X185520268Y-93250125D01*
X185544067Y-93244164D01*
X185568335Y-93240564D01*
X185592839Y-93239360D01*
X186242841Y-93239360D01*
X186267345Y-93240564D01*
G37*
G04 #@! TD.AperFunction*
G04 #@! TA.AperFunction,SMDPad,CuDef*
G36*
X184217345Y-93240564D02*
G01*
X184241613Y-93244164D01*
X184265412Y-93250125D01*
X184288511Y-93258390D01*
X184310690Y-93268880D01*
X184331733Y-93281492D01*
X184351439Y-93296107D01*
X184369617Y-93312583D01*
X184386093Y-93330761D01*
X184400708Y-93350467D01*
X184413320Y-93371510D01*
X184423810Y-93393689D01*
X184432075Y-93416788D01*
X184438036Y-93440587D01*
X184441636Y-93464855D01*
X184442840Y-93489359D01*
X184442840Y-94389361D01*
X184441636Y-94413865D01*
X184438036Y-94438133D01*
X184432075Y-94461932D01*
X184423810Y-94485031D01*
X184413320Y-94507210D01*
X184400708Y-94528253D01*
X184386093Y-94547959D01*
X184369617Y-94566137D01*
X184351439Y-94582613D01*
X184331733Y-94597228D01*
X184310690Y-94609840D01*
X184288511Y-94620330D01*
X184265412Y-94628595D01*
X184241613Y-94634556D01*
X184217345Y-94638156D01*
X184192841Y-94639360D01*
X183542839Y-94639360D01*
X183518335Y-94638156D01*
X183494067Y-94634556D01*
X183470268Y-94628595D01*
X183447169Y-94620330D01*
X183424990Y-94609840D01*
X183403947Y-94597228D01*
X183384241Y-94582613D01*
X183366063Y-94566137D01*
X183349587Y-94547959D01*
X183334972Y-94528253D01*
X183322360Y-94507210D01*
X183311870Y-94485031D01*
X183303605Y-94461932D01*
X183297644Y-94438133D01*
X183294044Y-94413865D01*
X183292840Y-94389361D01*
X183292840Y-93489359D01*
X183294044Y-93464855D01*
X183297644Y-93440587D01*
X183303605Y-93416788D01*
X183311870Y-93393689D01*
X183322360Y-93371510D01*
X183334972Y-93350467D01*
X183349587Y-93330761D01*
X183366063Y-93312583D01*
X183384241Y-93296107D01*
X183403947Y-93281492D01*
X183424990Y-93268880D01*
X183447169Y-93258390D01*
X183470268Y-93250125D01*
X183494067Y-93244164D01*
X183518335Y-93240564D01*
X183542839Y-93239360D01*
X184192841Y-93239360D01*
X184217345Y-93240564D01*
G37*
G04 #@! TD.AperFunction*
G04 #@! TA.AperFunction,SMDPad,CuDef*
G36*
X187553965Y-81188264D02*
G01*
X187578233Y-81191864D01*
X187602032Y-81197825D01*
X187625131Y-81206090D01*
X187647310Y-81216580D01*
X187668353Y-81229192D01*
X187688059Y-81243807D01*
X187706237Y-81260283D01*
X187722713Y-81278461D01*
X187737328Y-81298167D01*
X187749940Y-81319210D01*
X187760430Y-81341389D01*
X187768695Y-81364488D01*
X187774656Y-81388287D01*
X187778256Y-81412555D01*
X187779460Y-81437059D01*
X187779460Y-82337061D01*
X187778256Y-82361565D01*
X187774656Y-82385833D01*
X187768695Y-82409632D01*
X187760430Y-82432731D01*
X187749940Y-82454910D01*
X187737328Y-82475953D01*
X187722713Y-82495659D01*
X187706237Y-82513837D01*
X187688059Y-82530313D01*
X187668353Y-82544928D01*
X187647310Y-82557540D01*
X187625131Y-82568030D01*
X187602032Y-82576295D01*
X187578233Y-82582256D01*
X187553965Y-82585856D01*
X187529461Y-82587060D01*
X186879459Y-82587060D01*
X186854955Y-82585856D01*
X186830687Y-82582256D01*
X186806888Y-82576295D01*
X186783789Y-82568030D01*
X186761610Y-82557540D01*
X186740567Y-82544928D01*
X186720861Y-82530313D01*
X186702683Y-82513837D01*
X186686207Y-82495659D01*
X186671592Y-82475953D01*
X186658980Y-82454910D01*
X186648490Y-82432731D01*
X186640225Y-82409632D01*
X186634264Y-82385833D01*
X186630664Y-82361565D01*
X186629460Y-82337061D01*
X186629460Y-81437059D01*
X186630664Y-81412555D01*
X186634264Y-81388287D01*
X186640225Y-81364488D01*
X186648490Y-81341389D01*
X186658980Y-81319210D01*
X186671592Y-81298167D01*
X186686207Y-81278461D01*
X186702683Y-81260283D01*
X186720861Y-81243807D01*
X186740567Y-81229192D01*
X186761610Y-81216580D01*
X186783789Y-81206090D01*
X186806888Y-81197825D01*
X186830687Y-81191864D01*
X186854955Y-81188264D01*
X186879459Y-81187060D01*
X187529461Y-81187060D01*
X187553965Y-81188264D01*
G37*
G04 #@! TD.AperFunction*
G04 #@! TA.AperFunction,SMDPad,CuDef*
G36*
X185503965Y-81188264D02*
G01*
X185528233Y-81191864D01*
X185552032Y-81197825D01*
X185575131Y-81206090D01*
X185597310Y-81216580D01*
X185618353Y-81229192D01*
X185638059Y-81243807D01*
X185656237Y-81260283D01*
X185672713Y-81278461D01*
X185687328Y-81298167D01*
X185699940Y-81319210D01*
X185710430Y-81341389D01*
X185718695Y-81364488D01*
X185724656Y-81388287D01*
X185728256Y-81412555D01*
X185729460Y-81437059D01*
X185729460Y-82337061D01*
X185728256Y-82361565D01*
X185724656Y-82385833D01*
X185718695Y-82409632D01*
X185710430Y-82432731D01*
X185699940Y-82454910D01*
X185687328Y-82475953D01*
X185672713Y-82495659D01*
X185656237Y-82513837D01*
X185638059Y-82530313D01*
X185618353Y-82544928D01*
X185597310Y-82557540D01*
X185575131Y-82568030D01*
X185552032Y-82576295D01*
X185528233Y-82582256D01*
X185503965Y-82585856D01*
X185479461Y-82587060D01*
X184829459Y-82587060D01*
X184804955Y-82585856D01*
X184780687Y-82582256D01*
X184756888Y-82576295D01*
X184733789Y-82568030D01*
X184711610Y-82557540D01*
X184690567Y-82544928D01*
X184670861Y-82530313D01*
X184652683Y-82513837D01*
X184636207Y-82495659D01*
X184621592Y-82475953D01*
X184608980Y-82454910D01*
X184598490Y-82432731D01*
X184590225Y-82409632D01*
X184584264Y-82385833D01*
X184580664Y-82361565D01*
X184579460Y-82337061D01*
X184579460Y-81437059D01*
X184580664Y-81412555D01*
X184584264Y-81388287D01*
X184590225Y-81364488D01*
X184598490Y-81341389D01*
X184608980Y-81319210D01*
X184621592Y-81298167D01*
X184636207Y-81278461D01*
X184652683Y-81260283D01*
X184670861Y-81243807D01*
X184690567Y-81229192D01*
X184711610Y-81216580D01*
X184733789Y-81206090D01*
X184756888Y-81197825D01*
X184780687Y-81191864D01*
X184804955Y-81188264D01*
X184829459Y-81187060D01*
X185479461Y-81187060D01*
X185503965Y-81188264D01*
G37*
G04 #@! TD.AperFunction*
G04 #@! TA.AperFunction,SMDPad,CuDef*
G36*
X200821545Y-93319304D02*
G01*
X200845813Y-93322904D01*
X200869612Y-93328865D01*
X200892711Y-93337130D01*
X200914890Y-93347620D01*
X200935933Y-93360232D01*
X200955639Y-93374847D01*
X200973817Y-93391323D01*
X200990293Y-93409501D01*
X201004908Y-93429207D01*
X201017520Y-93450250D01*
X201028010Y-93472429D01*
X201036275Y-93495528D01*
X201042236Y-93519327D01*
X201045836Y-93543595D01*
X201047040Y-93568099D01*
X201047040Y-94468101D01*
X201045836Y-94492605D01*
X201042236Y-94516873D01*
X201036275Y-94540672D01*
X201028010Y-94563771D01*
X201017520Y-94585950D01*
X201004908Y-94606993D01*
X200990293Y-94626699D01*
X200973817Y-94644877D01*
X200955639Y-94661353D01*
X200935933Y-94675968D01*
X200914890Y-94688580D01*
X200892711Y-94699070D01*
X200869612Y-94707335D01*
X200845813Y-94713296D01*
X200821545Y-94716896D01*
X200797041Y-94718100D01*
X200147039Y-94718100D01*
X200122535Y-94716896D01*
X200098267Y-94713296D01*
X200074468Y-94707335D01*
X200051369Y-94699070D01*
X200029190Y-94688580D01*
X200008147Y-94675968D01*
X199988441Y-94661353D01*
X199970263Y-94644877D01*
X199953787Y-94626699D01*
X199939172Y-94606993D01*
X199926560Y-94585950D01*
X199916070Y-94563771D01*
X199907805Y-94540672D01*
X199901844Y-94516873D01*
X199898244Y-94492605D01*
X199897040Y-94468101D01*
X199897040Y-93568099D01*
X199898244Y-93543595D01*
X199901844Y-93519327D01*
X199907805Y-93495528D01*
X199916070Y-93472429D01*
X199926560Y-93450250D01*
X199939172Y-93429207D01*
X199953787Y-93409501D01*
X199970263Y-93391323D01*
X199988441Y-93374847D01*
X200008147Y-93360232D01*
X200029190Y-93347620D01*
X200051369Y-93337130D01*
X200074468Y-93328865D01*
X200098267Y-93322904D01*
X200122535Y-93319304D01*
X200147039Y-93318100D01*
X200797041Y-93318100D01*
X200821545Y-93319304D01*
G37*
G04 #@! TD.AperFunction*
G04 #@! TA.AperFunction,SMDPad,CuDef*
G36*
X198771545Y-93319304D02*
G01*
X198795813Y-93322904D01*
X198819612Y-93328865D01*
X198842711Y-93337130D01*
X198864890Y-93347620D01*
X198885933Y-93360232D01*
X198905639Y-93374847D01*
X198923817Y-93391323D01*
X198940293Y-93409501D01*
X198954908Y-93429207D01*
X198967520Y-93450250D01*
X198978010Y-93472429D01*
X198986275Y-93495528D01*
X198992236Y-93519327D01*
X198995836Y-93543595D01*
X198997040Y-93568099D01*
X198997040Y-94468101D01*
X198995836Y-94492605D01*
X198992236Y-94516873D01*
X198986275Y-94540672D01*
X198978010Y-94563771D01*
X198967520Y-94585950D01*
X198954908Y-94606993D01*
X198940293Y-94626699D01*
X198923817Y-94644877D01*
X198905639Y-94661353D01*
X198885933Y-94675968D01*
X198864890Y-94688580D01*
X198842711Y-94699070D01*
X198819612Y-94707335D01*
X198795813Y-94713296D01*
X198771545Y-94716896D01*
X198747041Y-94718100D01*
X198097039Y-94718100D01*
X198072535Y-94716896D01*
X198048267Y-94713296D01*
X198024468Y-94707335D01*
X198001369Y-94699070D01*
X197979190Y-94688580D01*
X197958147Y-94675968D01*
X197938441Y-94661353D01*
X197920263Y-94644877D01*
X197903787Y-94626699D01*
X197889172Y-94606993D01*
X197876560Y-94585950D01*
X197866070Y-94563771D01*
X197857805Y-94540672D01*
X197851844Y-94516873D01*
X197848244Y-94492605D01*
X197847040Y-94468101D01*
X197847040Y-93568099D01*
X197848244Y-93543595D01*
X197851844Y-93519327D01*
X197857805Y-93495528D01*
X197866070Y-93472429D01*
X197876560Y-93450250D01*
X197889172Y-93429207D01*
X197903787Y-93409501D01*
X197920263Y-93391323D01*
X197938441Y-93374847D01*
X197958147Y-93360232D01*
X197979190Y-93347620D01*
X198001369Y-93337130D01*
X198024468Y-93328865D01*
X198048267Y-93322904D01*
X198072535Y-93319304D01*
X198097039Y-93318100D01*
X198747041Y-93318100D01*
X198771545Y-93319304D01*
G37*
G04 #@! TD.AperFunction*
G04 #@! TA.AperFunction,SMDPad,CuDef*
G36*
X196159485Y-94914424D02*
G01*
X196183753Y-94918024D01*
X196207552Y-94923985D01*
X196230651Y-94932250D01*
X196252830Y-94942740D01*
X196273873Y-94955352D01*
X196293579Y-94969967D01*
X196311757Y-94986443D01*
X196328233Y-95004621D01*
X196342848Y-95024327D01*
X196355460Y-95045370D01*
X196365950Y-95067549D01*
X196374215Y-95090648D01*
X196380176Y-95114447D01*
X196383776Y-95138715D01*
X196384980Y-95163219D01*
X196384980Y-96063221D01*
X196383776Y-96087725D01*
X196380176Y-96111993D01*
X196374215Y-96135792D01*
X196365950Y-96158891D01*
X196355460Y-96181070D01*
X196342848Y-96202113D01*
X196328233Y-96221819D01*
X196311757Y-96239997D01*
X196293579Y-96256473D01*
X196273873Y-96271088D01*
X196252830Y-96283700D01*
X196230651Y-96294190D01*
X196207552Y-96302455D01*
X196183753Y-96308416D01*
X196159485Y-96312016D01*
X196134981Y-96313220D01*
X195484979Y-96313220D01*
X195460475Y-96312016D01*
X195436207Y-96308416D01*
X195412408Y-96302455D01*
X195389309Y-96294190D01*
X195367130Y-96283700D01*
X195346087Y-96271088D01*
X195326381Y-96256473D01*
X195308203Y-96239997D01*
X195291727Y-96221819D01*
X195277112Y-96202113D01*
X195264500Y-96181070D01*
X195254010Y-96158891D01*
X195245745Y-96135792D01*
X195239784Y-96111993D01*
X195236184Y-96087725D01*
X195234980Y-96063221D01*
X195234980Y-95163219D01*
X195236184Y-95138715D01*
X195239784Y-95114447D01*
X195245745Y-95090648D01*
X195254010Y-95067549D01*
X195264500Y-95045370D01*
X195277112Y-95024327D01*
X195291727Y-95004621D01*
X195308203Y-94986443D01*
X195326381Y-94969967D01*
X195346087Y-94955352D01*
X195367130Y-94942740D01*
X195389309Y-94932250D01*
X195412408Y-94923985D01*
X195436207Y-94918024D01*
X195460475Y-94914424D01*
X195484979Y-94913220D01*
X196134981Y-94913220D01*
X196159485Y-94914424D01*
G37*
G04 #@! TD.AperFunction*
G04 #@! TA.AperFunction,SMDPad,CuDef*
G36*
X194109485Y-94914424D02*
G01*
X194133753Y-94918024D01*
X194157552Y-94923985D01*
X194180651Y-94932250D01*
X194202830Y-94942740D01*
X194223873Y-94955352D01*
X194243579Y-94969967D01*
X194261757Y-94986443D01*
X194278233Y-95004621D01*
X194292848Y-95024327D01*
X194305460Y-95045370D01*
X194315950Y-95067549D01*
X194324215Y-95090648D01*
X194330176Y-95114447D01*
X194333776Y-95138715D01*
X194334980Y-95163219D01*
X194334980Y-96063221D01*
X194333776Y-96087725D01*
X194330176Y-96111993D01*
X194324215Y-96135792D01*
X194315950Y-96158891D01*
X194305460Y-96181070D01*
X194292848Y-96202113D01*
X194278233Y-96221819D01*
X194261757Y-96239997D01*
X194243579Y-96256473D01*
X194223873Y-96271088D01*
X194202830Y-96283700D01*
X194180651Y-96294190D01*
X194157552Y-96302455D01*
X194133753Y-96308416D01*
X194109485Y-96312016D01*
X194084981Y-96313220D01*
X193434979Y-96313220D01*
X193410475Y-96312016D01*
X193386207Y-96308416D01*
X193362408Y-96302455D01*
X193339309Y-96294190D01*
X193317130Y-96283700D01*
X193296087Y-96271088D01*
X193276381Y-96256473D01*
X193258203Y-96239997D01*
X193241727Y-96221819D01*
X193227112Y-96202113D01*
X193214500Y-96181070D01*
X193204010Y-96158891D01*
X193195745Y-96135792D01*
X193189784Y-96111993D01*
X193186184Y-96087725D01*
X193184980Y-96063221D01*
X193184980Y-95163219D01*
X193186184Y-95138715D01*
X193189784Y-95114447D01*
X193195745Y-95090648D01*
X193204010Y-95067549D01*
X193214500Y-95045370D01*
X193227112Y-95024327D01*
X193241727Y-95004621D01*
X193258203Y-94986443D01*
X193276381Y-94969967D01*
X193296087Y-94955352D01*
X193317130Y-94942740D01*
X193339309Y-94932250D01*
X193362408Y-94923985D01*
X193386207Y-94918024D01*
X193410475Y-94914424D01*
X193434979Y-94913220D01*
X194084981Y-94913220D01*
X194109485Y-94914424D01*
G37*
G04 #@! TD.AperFunction*
D14*
X199572880Y-122557540D03*
X199572880Y-120017540D03*
D15*
X199572880Y-117477540D03*
D14*
X194358260Y-122532140D03*
X194358260Y-119992140D03*
D15*
X194358260Y-117452140D03*
D14*
X178889660Y-122648980D03*
X178889660Y-120108980D03*
D15*
X178889660Y-117568980D03*
D14*
X150576280Y-117546120D03*
X150576280Y-120086120D03*
D15*
X150576280Y-122626120D03*
D14*
X154358340Y-117546120D03*
X154358340Y-120086120D03*
D15*
X154358340Y-122626120D03*
D21*
X207835500Y-124452380D03*
D22*
X207835500Y-123182380D03*
D23*
X207077340Y-90668960D03*
X207077340Y-88268960D03*
X207077340Y-85518960D03*
X207077340Y-93418960D03*
D24*
X204177340Y-88168960D03*
X204177340Y-88818960D03*
X204177340Y-89468960D03*
X204177340Y-90768960D03*
X204177340Y-90118960D03*
D25*
X197745640Y-86161880D03*
X199845640Y-86161880D03*
G04 #@! TA.AperFunction,SMDPad,CuDef*
D20*
G36*
X192601885Y-98965724D02*
G01*
X192626153Y-98969324D01*
X192649952Y-98975285D01*
X192673051Y-98983550D01*
X192695230Y-98994040D01*
X192716273Y-99006652D01*
X192735979Y-99021267D01*
X192754157Y-99037743D01*
X192770633Y-99055921D01*
X192785248Y-99075627D01*
X192797860Y-99096670D01*
X192808350Y-99118849D01*
X192816615Y-99141948D01*
X192822576Y-99165747D01*
X192826176Y-99190015D01*
X192827380Y-99214519D01*
X192827380Y-100114521D01*
X192826176Y-100139025D01*
X192822576Y-100163293D01*
X192816615Y-100187092D01*
X192808350Y-100210191D01*
X192797860Y-100232370D01*
X192785248Y-100253413D01*
X192770633Y-100273119D01*
X192754157Y-100291297D01*
X192735979Y-100307773D01*
X192716273Y-100322388D01*
X192695230Y-100335000D01*
X192673051Y-100345490D01*
X192649952Y-100353755D01*
X192626153Y-100359716D01*
X192601885Y-100363316D01*
X192577381Y-100364520D01*
X191927379Y-100364520D01*
X191902875Y-100363316D01*
X191878607Y-100359716D01*
X191854808Y-100353755D01*
X191831709Y-100345490D01*
X191809530Y-100335000D01*
X191788487Y-100322388D01*
X191768781Y-100307773D01*
X191750603Y-100291297D01*
X191734127Y-100273119D01*
X191719512Y-100253413D01*
X191706900Y-100232370D01*
X191696410Y-100210191D01*
X191688145Y-100187092D01*
X191682184Y-100163293D01*
X191678584Y-100139025D01*
X191677380Y-100114521D01*
X191677380Y-99214519D01*
X191678584Y-99190015D01*
X191682184Y-99165747D01*
X191688145Y-99141948D01*
X191696410Y-99118849D01*
X191706900Y-99096670D01*
X191719512Y-99075627D01*
X191734127Y-99055921D01*
X191750603Y-99037743D01*
X191768781Y-99021267D01*
X191788487Y-99006652D01*
X191809530Y-98994040D01*
X191831709Y-98983550D01*
X191854808Y-98975285D01*
X191878607Y-98969324D01*
X191902875Y-98965724D01*
X191927379Y-98964520D01*
X192577381Y-98964520D01*
X192601885Y-98965724D01*
G37*
G04 #@! TD.AperFunction*
G04 #@! TA.AperFunction,SMDPad,CuDef*
G36*
X194651885Y-98965724D02*
G01*
X194676153Y-98969324D01*
X194699952Y-98975285D01*
X194723051Y-98983550D01*
X194745230Y-98994040D01*
X194766273Y-99006652D01*
X194785979Y-99021267D01*
X194804157Y-99037743D01*
X194820633Y-99055921D01*
X194835248Y-99075627D01*
X194847860Y-99096670D01*
X194858350Y-99118849D01*
X194866615Y-99141948D01*
X194872576Y-99165747D01*
X194876176Y-99190015D01*
X194877380Y-99214519D01*
X194877380Y-100114521D01*
X194876176Y-100139025D01*
X194872576Y-100163293D01*
X194866615Y-100187092D01*
X194858350Y-100210191D01*
X194847860Y-100232370D01*
X194835248Y-100253413D01*
X194820633Y-100273119D01*
X194804157Y-100291297D01*
X194785979Y-100307773D01*
X194766273Y-100322388D01*
X194745230Y-100335000D01*
X194723051Y-100345490D01*
X194699952Y-100353755D01*
X194676153Y-100359716D01*
X194651885Y-100363316D01*
X194627381Y-100364520D01*
X193977379Y-100364520D01*
X193952875Y-100363316D01*
X193928607Y-100359716D01*
X193904808Y-100353755D01*
X193881709Y-100345490D01*
X193859530Y-100335000D01*
X193838487Y-100322388D01*
X193818781Y-100307773D01*
X193800603Y-100291297D01*
X193784127Y-100273119D01*
X193769512Y-100253413D01*
X193756900Y-100232370D01*
X193746410Y-100210191D01*
X193738145Y-100187092D01*
X193732184Y-100163293D01*
X193728584Y-100139025D01*
X193727380Y-100114521D01*
X193727380Y-99214519D01*
X193728584Y-99190015D01*
X193732184Y-99165747D01*
X193738145Y-99141948D01*
X193746410Y-99118849D01*
X193756900Y-99096670D01*
X193769512Y-99075627D01*
X193784127Y-99055921D01*
X193800603Y-99037743D01*
X193818781Y-99021267D01*
X193838487Y-99006652D01*
X193859530Y-98994040D01*
X193881709Y-98983550D01*
X193904808Y-98975285D01*
X193928607Y-98969324D01*
X193952875Y-98965724D01*
X193977379Y-98964520D01*
X194627381Y-98964520D01*
X194651885Y-98965724D01*
G37*
G04 #@! TD.AperFunction*
D25*
X200460320Y-90782140D03*
X198360320Y-90782140D03*
G04 #@! TA.AperFunction,SMDPad,CuDef*
D20*
G36*
X178487865Y-93238344D02*
G01*
X178512133Y-93241944D01*
X178535932Y-93247905D01*
X178559031Y-93256170D01*
X178581210Y-93266660D01*
X178602253Y-93279272D01*
X178621959Y-93293887D01*
X178640137Y-93310363D01*
X178656613Y-93328541D01*
X178671228Y-93348247D01*
X178683840Y-93369290D01*
X178694330Y-93391469D01*
X178702595Y-93414568D01*
X178708556Y-93438367D01*
X178712156Y-93462635D01*
X178713360Y-93487139D01*
X178713360Y-94137141D01*
X178712156Y-94161645D01*
X178708556Y-94185913D01*
X178702595Y-94209712D01*
X178694330Y-94232811D01*
X178683840Y-94254990D01*
X178671228Y-94276033D01*
X178656613Y-94295739D01*
X178640137Y-94313917D01*
X178621959Y-94330393D01*
X178602253Y-94345008D01*
X178581210Y-94357620D01*
X178559031Y-94368110D01*
X178535932Y-94376375D01*
X178512133Y-94382336D01*
X178487865Y-94385936D01*
X178463361Y-94387140D01*
X177563359Y-94387140D01*
X177538855Y-94385936D01*
X177514587Y-94382336D01*
X177490788Y-94376375D01*
X177467689Y-94368110D01*
X177445510Y-94357620D01*
X177424467Y-94345008D01*
X177404761Y-94330393D01*
X177386583Y-94313917D01*
X177370107Y-94295739D01*
X177355492Y-94276033D01*
X177342880Y-94254990D01*
X177332390Y-94232811D01*
X177324125Y-94209712D01*
X177318164Y-94185913D01*
X177314564Y-94161645D01*
X177313360Y-94137141D01*
X177313360Y-93487139D01*
X177314564Y-93462635D01*
X177318164Y-93438367D01*
X177324125Y-93414568D01*
X177332390Y-93391469D01*
X177342880Y-93369290D01*
X177355492Y-93348247D01*
X177370107Y-93328541D01*
X177386583Y-93310363D01*
X177404761Y-93293887D01*
X177424467Y-93279272D01*
X177445510Y-93266660D01*
X177467689Y-93256170D01*
X177490788Y-93247905D01*
X177514587Y-93241944D01*
X177538855Y-93238344D01*
X177563359Y-93237140D01*
X178463361Y-93237140D01*
X178487865Y-93238344D01*
G37*
G04 #@! TD.AperFunction*
G04 #@! TA.AperFunction,SMDPad,CuDef*
G36*
X178487865Y-95288344D02*
G01*
X178512133Y-95291944D01*
X178535932Y-95297905D01*
X178559031Y-95306170D01*
X178581210Y-95316660D01*
X178602253Y-95329272D01*
X178621959Y-95343887D01*
X178640137Y-95360363D01*
X178656613Y-95378541D01*
X178671228Y-95398247D01*
X178683840Y-95419290D01*
X178694330Y-95441469D01*
X178702595Y-95464568D01*
X178708556Y-95488367D01*
X178712156Y-95512635D01*
X178713360Y-95537139D01*
X178713360Y-96187141D01*
X178712156Y-96211645D01*
X178708556Y-96235913D01*
X178702595Y-96259712D01*
X178694330Y-96282811D01*
X178683840Y-96304990D01*
X178671228Y-96326033D01*
X178656613Y-96345739D01*
X178640137Y-96363917D01*
X178621959Y-96380393D01*
X178602253Y-96395008D01*
X178581210Y-96407620D01*
X178559031Y-96418110D01*
X178535932Y-96426375D01*
X178512133Y-96432336D01*
X178487865Y-96435936D01*
X178463361Y-96437140D01*
X177563359Y-96437140D01*
X177538855Y-96435936D01*
X177514587Y-96432336D01*
X177490788Y-96426375D01*
X177467689Y-96418110D01*
X177445510Y-96407620D01*
X177424467Y-96395008D01*
X177404761Y-96380393D01*
X177386583Y-96363917D01*
X177370107Y-96345739D01*
X177355492Y-96326033D01*
X177342880Y-96304990D01*
X177332390Y-96282811D01*
X177324125Y-96259712D01*
X177318164Y-96235913D01*
X177314564Y-96211645D01*
X177313360Y-96187141D01*
X177313360Y-95537139D01*
X177314564Y-95512635D01*
X177318164Y-95488367D01*
X177324125Y-95464568D01*
X177332390Y-95441469D01*
X177342880Y-95419290D01*
X177355492Y-95398247D01*
X177370107Y-95378541D01*
X177386583Y-95360363D01*
X177404761Y-95343887D01*
X177424467Y-95329272D01*
X177445510Y-95316660D01*
X177467689Y-95306170D01*
X177490788Y-95297905D01*
X177514587Y-95291944D01*
X177538855Y-95288344D01*
X177563359Y-95287140D01*
X178463361Y-95287140D01*
X178487865Y-95288344D01*
G37*
G04 #@! TD.AperFunction*
G04 #@! TA.AperFunction,SMDPad,CuDef*
G36*
X192424845Y-87145104D02*
G01*
X192449113Y-87148704D01*
X192472912Y-87154665D01*
X192496011Y-87162930D01*
X192518190Y-87173420D01*
X192539233Y-87186032D01*
X192558939Y-87200647D01*
X192577117Y-87217123D01*
X192593593Y-87235301D01*
X192608208Y-87255007D01*
X192620820Y-87276050D01*
X192631310Y-87298229D01*
X192639575Y-87321328D01*
X192645536Y-87345127D01*
X192649136Y-87369395D01*
X192650340Y-87393899D01*
X192650340Y-88043901D01*
X192649136Y-88068405D01*
X192645536Y-88092673D01*
X192639575Y-88116472D01*
X192631310Y-88139571D01*
X192620820Y-88161750D01*
X192608208Y-88182793D01*
X192593593Y-88202499D01*
X192577117Y-88220677D01*
X192558939Y-88237153D01*
X192539233Y-88251768D01*
X192518190Y-88264380D01*
X192496011Y-88274870D01*
X192472912Y-88283135D01*
X192449113Y-88289096D01*
X192424845Y-88292696D01*
X192400341Y-88293900D01*
X191500339Y-88293900D01*
X191475835Y-88292696D01*
X191451567Y-88289096D01*
X191427768Y-88283135D01*
X191404669Y-88274870D01*
X191382490Y-88264380D01*
X191361447Y-88251768D01*
X191341741Y-88237153D01*
X191323563Y-88220677D01*
X191307087Y-88202499D01*
X191292472Y-88182793D01*
X191279860Y-88161750D01*
X191269370Y-88139571D01*
X191261105Y-88116472D01*
X191255144Y-88092673D01*
X191251544Y-88068405D01*
X191250340Y-88043901D01*
X191250340Y-87393899D01*
X191251544Y-87369395D01*
X191255144Y-87345127D01*
X191261105Y-87321328D01*
X191269370Y-87298229D01*
X191279860Y-87276050D01*
X191292472Y-87255007D01*
X191307087Y-87235301D01*
X191323563Y-87217123D01*
X191341741Y-87200647D01*
X191361447Y-87186032D01*
X191382490Y-87173420D01*
X191404669Y-87162930D01*
X191427768Y-87154665D01*
X191451567Y-87148704D01*
X191475835Y-87145104D01*
X191500339Y-87143900D01*
X192400341Y-87143900D01*
X192424845Y-87145104D01*
G37*
G04 #@! TD.AperFunction*
G04 #@! TA.AperFunction,SMDPad,CuDef*
G36*
X192424845Y-85095104D02*
G01*
X192449113Y-85098704D01*
X192472912Y-85104665D01*
X192496011Y-85112930D01*
X192518190Y-85123420D01*
X192539233Y-85136032D01*
X192558939Y-85150647D01*
X192577117Y-85167123D01*
X192593593Y-85185301D01*
X192608208Y-85205007D01*
X192620820Y-85226050D01*
X192631310Y-85248229D01*
X192639575Y-85271328D01*
X192645536Y-85295127D01*
X192649136Y-85319395D01*
X192650340Y-85343899D01*
X192650340Y-85993901D01*
X192649136Y-86018405D01*
X192645536Y-86042673D01*
X192639575Y-86066472D01*
X192631310Y-86089571D01*
X192620820Y-86111750D01*
X192608208Y-86132793D01*
X192593593Y-86152499D01*
X192577117Y-86170677D01*
X192558939Y-86187153D01*
X192539233Y-86201768D01*
X192518190Y-86214380D01*
X192496011Y-86224870D01*
X192472912Y-86233135D01*
X192449113Y-86239096D01*
X192424845Y-86242696D01*
X192400341Y-86243900D01*
X191500339Y-86243900D01*
X191475835Y-86242696D01*
X191451567Y-86239096D01*
X191427768Y-86233135D01*
X191404669Y-86224870D01*
X191382490Y-86214380D01*
X191361447Y-86201768D01*
X191341741Y-86187153D01*
X191323563Y-86170677D01*
X191307087Y-86152499D01*
X191292472Y-86132793D01*
X191279860Y-86111750D01*
X191269370Y-86089571D01*
X191261105Y-86066472D01*
X191255144Y-86042673D01*
X191251544Y-86018405D01*
X191250340Y-85993901D01*
X191250340Y-85343899D01*
X191251544Y-85319395D01*
X191255144Y-85295127D01*
X191261105Y-85271328D01*
X191269370Y-85248229D01*
X191279860Y-85226050D01*
X191292472Y-85205007D01*
X191307087Y-85185301D01*
X191323563Y-85167123D01*
X191341741Y-85150647D01*
X191361447Y-85136032D01*
X191382490Y-85123420D01*
X191404669Y-85112930D01*
X191427768Y-85104665D01*
X191451567Y-85098704D01*
X191475835Y-85095104D01*
X191500339Y-85093900D01*
X192400341Y-85093900D01*
X192424845Y-85095104D01*
G37*
G04 #@! TD.AperFunction*
G04 #@! TA.AperFunction,SMDPad,CuDef*
G36*
X187360085Y-88440504D02*
G01*
X187384353Y-88444104D01*
X187408152Y-88450065D01*
X187431251Y-88458330D01*
X187453430Y-88468820D01*
X187474473Y-88481432D01*
X187494179Y-88496047D01*
X187512357Y-88512523D01*
X187528833Y-88530701D01*
X187543448Y-88550407D01*
X187556060Y-88571450D01*
X187566550Y-88593629D01*
X187574815Y-88616728D01*
X187580776Y-88640527D01*
X187584376Y-88664795D01*
X187585580Y-88689299D01*
X187585580Y-89339301D01*
X187584376Y-89363805D01*
X187580776Y-89388073D01*
X187574815Y-89411872D01*
X187566550Y-89434971D01*
X187556060Y-89457150D01*
X187543448Y-89478193D01*
X187528833Y-89497899D01*
X187512357Y-89516077D01*
X187494179Y-89532553D01*
X187474473Y-89547168D01*
X187453430Y-89559780D01*
X187431251Y-89570270D01*
X187408152Y-89578535D01*
X187384353Y-89584496D01*
X187360085Y-89588096D01*
X187335581Y-89589300D01*
X186435579Y-89589300D01*
X186411075Y-89588096D01*
X186386807Y-89584496D01*
X186363008Y-89578535D01*
X186339909Y-89570270D01*
X186317730Y-89559780D01*
X186296687Y-89547168D01*
X186276981Y-89532553D01*
X186258803Y-89516077D01*
X186242327Y-89497899D01*
X186227712Y-89478193D01*
X186215100Y-89457150D01*
X186204610Y-89434971D01*
X186196345Y-89411872D01*
X186190384Y-89388073D01*
X186186784Y-89363805D01*
X186185580Y-89339301D01*
X186185580Y-88689299D01*
X186186784Y-88664795D01*
X186190384Y-88640527D01*
X186196345Y-88616728D01*
X186204610Y-88593629D01*
X186215100Y-88571450D01*
X186227712Y-88550407D01*
X186242327Y-88530701D01*
X186258803Y-88512523D01*
X186276981Y-88496047D01*
X186296687Y-88481432D01*
X186317730Y-88468820D01*
X186339909Y-88458330D01*
X186363008Y-88450065D01*
X186386807Y-88444104D01*
X186411075Y-88440504D01*
X186435579Y-88439300D01*
X187335581Y-88439300D01*
X187360085Y-88440504D01*
G37*
G04 #@! TD.AperFunction*
G04 #@! TA.AperFunction,SMDPad,CuDef*
G36*
X187360085Y-90490504D02*
G01*
X187384353Y-90494104D01*
X187408152Y-90500065D01*
X187431251Y-90508330D01*
X187453430Y-90518820D01*
X187474473Y-90531432D01*
X187494179Y-90546047D01*
X187512357Y-90562523D01*
X187528833Y-90580701D01*
X187543448Y-90600407D01*
X187556060Y-90621450D01*
X187566550Y-90643629D01*
X187574815Y-90666728D01*
X187580776Y-90690527D01*
X187584376Y-90714795D01*
X187585580Y-90739299D01*
X187585580Y-91389301D01*
X187584376Y-91413805D01*
X187580776Y-91438073D01*
X187574815Y-91461872D01*
X187566550Y-91484971D01*
X187556060Y-91507150D01*
X187543448Y-91528193D01*
X187528833Y-91547899D01*
X187512357Y-91566077D01*
X187494179Y-91582553D01*
X187474473Y-91597168D01*
X187453430Y-91609780D01*
X187431251Y-91620270D01*
X187408152Y-91628535D01*
X187384353Y-91634496D01*
X187360085Y-91638096D01*
X187335581Y-91639300D01*
X186435579Y-91639300D01*
X186411075Y-91638096D01*
X186386807Y-91634496D01*
X186363008Y-91628535D01*
X186339909Y-91620270D01*
X186317730Y-91609780D01*
X186296687Y-91597168D01*
X186276981Y-91582553D01*
X186258803Y-91566077D01*
X186242327Y-91547899D01*
X186227712Y-91528193D01*
X186215100Y-91507150D01*
X186204610Y-91484971D01*
X186196345Y-91461872D01*
X186190384Y-91438073D01*
X186186784Y-91413805D01*
X186185580Y-91389301D01*
X186185580Y-90739299D01*
X186186784Y-90714795D01*
X186190384Y-90690527D01*
X186196345Y-90666728D01*
X186204610Y-90643629D01*
X186215100Y-90621450D01*
X186227712Y-90600407D01*
X186242327Y-90580701D01*
X186258803Y-90562523D01*
X186276981Y-90546047D01*
X186296687Y-90531432D01*
X186317730Y-90518820D01*
X186339909Y-90508330D01*
X186363008Y-90500065D01*
X186386807Y-90494104D01*
X186411075Y-90490504D01*
X186435579Y-90489300D01*
X187335581Y-90489300D01*
X187360085Y-90490504D01*
G37*
G04 #@! TD.AperFunction*
G04 #@! TA.AperFunction,SMDPad,CuDef*
G36*
X190923705Y-89042264D02*
G01*
X190947973Y-89045864D01*
X190971772Y-89051825D01*
X190994871Y-89060090D01*
X191017050Y-89070580D01*
X191038093Y-89083192D01*
X191057799Y-89097807D01*
X191075977Y-89114283D01*
X191092453Y-89132461D01*
X191107068Y-89152167D01*
X191119680Y-89173210D01*
X191130170Y-89195389D01*
X191138435Y-89218488D01*
X191144396Y-89242287D01*
X191147996Y-89266555D01*
X191149200Y-89291059D01*
X191149200Y-89941061D01*
X191147996Y-89965565D01*
X191144396Y-89989833D01*
X191138435Y-90013632D01*
X191130170Y-90036731D01*
X191119680Y-90058910D01*
X191107068Y-90079953D01*
X191092453Y-90099659D01*
X191075977Y-90117837D01*
X191057799Y-90134313D01*
X191038093Y-90148928D01*
X191017050Y-90161540D01*
X190994871Y-90172030D01*
X190971772Y-90180295D01*
X190947973Y-90186256D01*
X190923705Y-90189856D01*
X190899201Y-90191060D01*
X189999199Y-90191060D01*
X189974695Y-90189856D01*
X189950427Y-90186256D01*
X189926628Y-90180295D01*
X189903529Y-90172030D01*
X189881350Y-90161540D01*
X189860307Y-90148928D01*
X189840601Y-90134313D01*
X189822423Y-90117837D01*
X189805947Y-90099659D01*
X189791332Y-90079953D01*
X189778720Y-90058910D01*
X189768230Y-90036731D01*
X189759965Y-90013632D01*
X189754004Y-89989833D01*
X189750404Y-89965565D01*
X189749200Y-89941061D01*
X189749200Y-89291059D01*
X189750404Y-89266555D01*
X189754004Y-89242287D01*
X189759965Y-89218488D01*
X189768230Y-89195389D01*
X189778720Y-89173210D01*
X189791332Y-89152167D01*
X189805947Y-89132461D01*
X189822423Y-89114283D01*
X189840601Y-89097807D01*
X189860307Y-89083192D01*
X189881350Y-89070580D01*
X189903529Y-89060090D01*
X189926628Y-89051825D01*
X189950427Y-89045864D01*
X189974695Y-89042264D01*
X189999199Y-89041060D01*
X190899201Y-89041060D01*
X190923705Y-89042264D01*
G37*
G04 #@! TD.AperFunction*
G04 #@! TA.AperFunction,SMDPad,CuDef*
G36*
X190923705Y-91092264D02*
G01*
X190947973Y-91095864D01*
X190971772Y-91101825D01*
X190994871Y-91110090D01*
X191017050Y-91120580D01*
X191038093Y-91133192D01*
X191057799Y-91147807D01*
X191075977Y-91164283D01*
X191092453Y-91182461D01*
X191107068Y-91202167D01*
X191119680Y-91223210D01*
X191130170Y-91245389D01*
X191138435Y-91268488D01*
X191144396Y-91292287D01*
X191147996Y-91316555D01*
X191149200Y-91341059D01*
X191149200Y-91991061D01*
X191147996Y-92015565D01*
X191144396Y-92039833D01*
X191138435Y-92063632D01*
X191130170Y-92086731D01*
X191119680Y-92108910D01*
X191107068Y-92129953D01*
X191092453Y-92149659D01*
X191075977Y-92167837D01*
X191057799Y-92184313D01*
X191038093Y-92198928D01*
X191017050Y-92211540D01*
X190994871Y-92222030D01*
X190971772Y-92230295D01*
X190947973Y-92236256D01*
X190923705Y-92239856D01*
X190899201Y-92241060D01*
X189999199Y-92241060D01*
X189974695Y-92239856D01*
X189950427Y-92236256D01*
X189926628Y-92230295D01*
X189903529Y-92222030D01*
X189881350Y-92211540D01*
X189860307Y-92198928D01*
X189840601Y-92184313D01*
X189822423Y-92167837D01*
X189805947Y-92149659D01*
X189791332Y-92129953D01*
X189778720Y-92108910D01*
X189768230Y-92086731D01*
X189759965Y-92063632D01*
X189754004Y-92039833D01*
X189750404Y-92015565D01*
X189749200Y-91991061D01*
X189749200Y-91341059D01*
X189750404Y-91316555D01*
X189754004Y-91292287D01*
X189759965Y-91268488D01*
X189768230Y-91245389D01*
X189778720Y-91223210D01*
X189791332Y-91202167D01*
X189805947Y-91182461D01*
X189822423Y-91164283D01*
X189840601Y-91147807D01*
X189860307Y-91133192D01*
X189881350Y-91120580D01*
X189903529Y-91110090D01*
X189926628Y-91101825D01*
X189950427Y-91095864D01*
X189974695Y-91092264D01*
X189999199Y-91091060D01*
X190899201Y-91091060D01*
X190923705Y-91092264D01*
G37*
G04 #@! TD.AperFunction*
G04 #@! TA.AperFunction,SMDPad,CuDef*
G36*
X190306485Y-96850664D02*
G01*
X190330753Y-96854264D01*
X190354552Y-96860225D01*
X190377651Y-96868490D01*
X190399830Y-96878980D01*
X190420873Y-96891592D01*
X190440579Y-96906207D01*
X190458757Y-96922683D01*
X190475233Y-96940861D01*
X190489848Y-96960567D01*
X190502460Y-96981610D01*
X190512950Y-97003789D01*
X190521215Y-97026888D01*
X190527176Y-97050687D01*
X190530776Y-97074955D01*
X190531980Y-97099459D01*
X190531980Y-97749461D01*
X190530776Y-97773965D01*
X190527176Y-97798233D01*
X190521215Y-97822032D01*
X190512950Y-97845131D01*
X190502460Y-97867310D01*
X190489848Y-97888353D01*
X190475233Y-97908059D01*
X190458757Y-97926237D01*
X190440579Y-97942713D01*
X190420873Y-97957328D01*
X190399830Y-97969940D01*
X190377651Y-97980430D01*
X190354552Y-97988695D01*
X190330753Y-97994656D01*
X190306485Y-97998256D01*
X190281981Y-97999460D01*
X189381979Y-97999460D01*
X189357475Y-97998256D01*
X189333207Y-97994656D01*
X189309408Y-97988695D01*
X189286309Y-97980430D01*
X189264130Y-97969940D01*
X189243087Y-97957328D01*
X189223381Y-97942713D01*
X189205203Y-97926237D01*
X189188727Y-97908059D01*
X189174112Y-97888353D01*
X189161500Y-97867310D01*
X189151010Y-97845131D01*
X189142745Y-97822032D01*
X189136784Y-97798233D01*
X189133184Y-97773965D01*
X189131980Y-97749461D01*
X189131980Y-97099459D01*
X189133184Y-97074955D01*
X189136784Y-97050687D01*
X189142745Y-97026888D01*
X189151010Y-97003789D01*
X189161500Y-96981610D01*
X189174112Y-96960567D01*
X189188727Y-96940861D01*
X189205203Y-96922683D01*
X189223381Y-96906207D01*
X189243087Y-96891592D01*
X189264130Y-96878980D01*
X189286309Y-96868490D01*
X189309408Y-96860225D01*
X189333207Y-96854264D01*
X189357475Y-96850664D01*
X189381979Y-96849460D01*
X190281981Y-96849460D01*
X190306485Y-96850664D01*
G37*
G04 #@! TD.AperFunction*
G04 #@! TA.AperFunction,SMDPad,CuDef*
G36*
X190306485Y-94800664D02*
G01*
X190330753Y-94804264D01*
X190354552Y-94810225D01*
X190377651Y-94818490D01*
X190399830Y-94828980D01*
X190420873Y-94841592D01*
X190440579Y-94856207D01*
X190458757Y-94872683D01*
X190475233Y-94890861D01*
X190489848Y-94910567D01*
X190502460Y-94931610D01*
X190512950Y-94953789D01*
X190521215Y-94976888D01*
X190527176Y-95000687D01*
X190530776Y-95024955D01*
X190531980Y-95049459D01*
X190531980Y-95699461D01*
X190530776Y-95723965D01*
X190527176Y-95748233D01*
X190521215Y-95772032D01*
X190512950Y-95795131D01*
X190502460Y-95817310D01*
X190489848Y-95838353D01*
X190475233Y-95858059D01*
X190458757Y-95876237D01*
X190440579Y-95892713D01*
X190420873Y-95907328D01*
X190399830Y-95919940D01*
X190377651Y-95930430D01*
X190354552Y-95938695D01*
X190330753Y-95944656D01*
X190306485Y-95948256D01*
X190281981Y-95949460D01*
X189381979Y-95949460D01*
X189357475Y-95948256D01*
X189333207Y-95944656D01*
X189309408Y-95938695D01*
X189286309Y-95930430D01*
X189264130Y-95919940D01*
X189243087Y-95907328D01*
X189223381Y-95892713D01*
X189205203Y-95876237D01*
X189188727Y-95858059D01*
X189174112Y-95838353D01*
X189161500Y-95817310D01*
X189151010Y-95795131D01*
X189142745Y-95772032D01*
X189136784Y-95748233D01*
X189133184Y-95723965D01*
X189131980Y-95699461D01*
X189131980Y-95049459D01*
X189133184Y-95024955D01*
X189136784Y-95000687D01*
X189142745Y-94976888D01*
X189151010Y-94953789D01*
X189161500Y-94931610D01*
X189174112Y-94910567D01*
X189188727Y-94890861D01*
X189205203Y-94872683D01*
X189223381Y-94856207D01*
X189243087Y-94841592D01*
X189264130Y-94828980D01*
X189286309Y-94818490D01*
X189309408Y-94810225D01*
X189333207Y-94804264D01*
X189357475Y-94800664D01*
X189381979Y-94799460D01*
X190281981Y-94799460D01*
X190306485Y-94800664D01*
G37*
G04 #@! TD.AperFunction*
D26*
X177639980Y-98209100D03*
D15*
X166100000Y-82300000D03*
D14*
X163560000Y-82300000D03*
D27*
X175700000Y-110500000D03*
X176222660Y-95910400D03*
X174724765Y-88276995D03*
X172671740Y-86028260D03*
X203954380Y-124264420D03*
X203311760Y-116055140D03*
X158112460Y-104952800D03*
X156311600Y-107391200D03*
X156352240Y-106408220D03*
X156367480Y-103347520D03*
X157972760Y-109176820D03*
X156497020Y-95656400D03*
X180233320Y-85907880D03*
X182031640Y-84251800D03*
X182100220Y-87563960D03*
X198508620Y-92202000D03*
X197096380Y-88656160D03*
X201579480Y-84782660D03*
X204840840Y-85803740D03*
X203332080Y-86537800D03*
X203575920Y-94084140D03*
X190240920Y-87843360D03*
X188688980Y-89392760D03*
X185958480Y-95755460D03*
X187548520Y-94040960D03*
X182275480Y-95841820D03*
X178742340Y-100116640D03*
X189964060Y-99113340D03*
X187909200Y-97416620D03*
X200484740Y-95796100D03*
X207360520Y-96034860D03*
X207137000Y-83510120D03*
X203070460Y-80606900D03*
X203001880Y-82773520D03*
X195163440Y-79471520D03*
X191726820Y-82186780D03*
X188770260Y-81843880D03*
X192247520Y-117396260D03*
X192072260Y-89618820D03*
X192519300Y-90540840D03*
X203418440Y-110291880D03*
X200667620Y-110309660D03*
X197210680Y-110398560D03*
X200853040Y-106667300D03*
X200736200Y-100007420D03*
X203555600Y-99562920D03*
X198843900Y-101676200D03*
X183121300Y-79994760D03*
X170815000Y-79783940D03*
X172928280Y-82054700D03*
X169986960Y-87932260D03*
X168094660Y-86039960D03*
X170075860Y-84457540D03*
X163299140Y-98407220D03*
X161325560Y-100091240D03*
X171183300Y-110924340D03*
X163410900Y-111178340D03*
X164914580Y-103586280D03*
X193824860Y-104828340D03*
X205813660Y-126235460D03*
X149164040Y-111282480D03*
X151899620Y-99326700D03*
X149072600Y-91660980D03*
X170939460Y-103286560D03*
X171048680Y-95620840D03*
X165572440Y-89816940D03*
X185569860Y-104383840D03*
X191686180Y-122471180D03*
X187286900Y-117172740D03*
X202582780Y-117678200D03*
X202575160Y-119258080D03*
X202575160Y-120870980D03*
X182186580Y-111213900D03*
X179743100Y-111191040D03*
X176154080Y-102560120D03*
X178450240Y-107795060D03*
X176428400Y-107904280D03*
X156992320Y-82049620D03*
X160141920Y-80180180D03*
X149618700Y-84472780D03*
X203316840Y-105204260D03*
X157002480Y-123042680D03*
X151399240Y-114129820D03*
X155021280Y-110406180D03*
X197355460Y-90266520D03*
X197017640Y-95613220D03*
X156761180Y-117553740D03*
X193977260Y-110622740D03*
X185200000Y-110600000D03*
D28*
X177670460Y-98239580D02*
X177639980Y-98209100D01*
X180104940Y-98239580D02*
X177670460Y-98239580D01*
X180104940Y-95909460D02*
X180174900Y-95839500D01*
X180104940Y-98239580D02*
X180104940Y-95909460D01*
X177639980Y-96235520D02*
X178013360Y-95862140D01*
X177639980Y-98209100D02*
X177639980Y-96235520D01*
X177965100Y-95910400D02*
X178013360Y-95862140D01*
X176222660Y-95910400D02*
X177965100Y-95910400D01*
X188073240Y-113861160D02*
X189343240Y-113861160D01*
X189343240Y-113861160D02*
X190613240Y-113861160D01*
X190613240Y-113861160D02*
X191883240Y-113861160D01*
X191883240Y-113861160D02*
X193153240Y-113861160D01*
X193153240Y-112361160D02*
X193909340Y-111605060D01*
X193153240Y-113861160D02*
X193153240Y-112361160D01*
X203292142Y-111605060D02*
X204444600Y-112757518D01*
X193909340Y-111605060D02*
X193977260Y-111605060D01*
X201350880Y-125030839D02*
X201350880Y-126232920D01*
X204444600Y-121937119D02*
X201350880Y-125030839D01*
X204444600Y-112757518D02*
X204444600Y-121937119D01*
X185518140Y-87162820D02*
X186093140Y-87162820D01*
X185310780Y-87370180D02*
X185518140Y-87162820D01*
X193977260Y-111605060D02*
X203292142Y-111605060D01*
X188073240Y-112361160D02*
X188073240Y-113861160D01*
X174947580Y-99235500D02*
X188073240Y-112361160D01*
X174947580Y-99235500D02*
X174947580Y-99225100D01*
X174947580Y-99225100D02*
X173060360Y-97337880D01*
X173060360Y-91266896D02*
X173065440Y-91261816D01*
X173060360Y-97337880D02*
X173060360Y-91266896D01*
X173065440Y-91261816D02*
X173065440Y-89794080D01*
X173065440Y-89794080D02*
X174619920Y-88239600D01*
X185280300Y-90159020D02*
X185280300Y-89639140D01*
X186885580Y-91064300D02*
X186185580Y-91064300D01*
X185280300Y-89639140D02*
X185310780Y-87370180D01*
X186803240Y-113861160D02*
X188073240Y-113861160D01*
X183373861Y-88288961D02*
X185310780Y-90225880D01*
X186185580Y-91064300D02*
X185310780Y-90225880D01*
X185310780Y-90225880D02*
X185280300Y-90159020D01*
X181702858Y-88239600D02*
X181752219Y-88288961D01*
X176532540Y-88239600D02*
X181702858Y-88239600D01*
X176532540Y-88239600D02*
X176899380Y-88239600D01*
X181752219Y-88288961D02*
X183373861Y-88288961D01*
X174619920Y-88239600D02*
X176532540Y-88239600D01*
X167200000Y-82300000D02*
X166100000Y-82300000D01*
X169509165Y-82300000D02*
X167200000Y-82300000D01*
X172671740Y-85462575D02*
X169509165Y-82300000D01*
X172671740Y-86028260D02*
X172671740Y-85462575D01*
X203890880Y-126232920D02*
X203890880Y-123578620D01*
X203890880Y-123578620D02*
X203890880Y-123578620D01*
X202540140Y-88656160D02*
X197096380Y-88656160D01*
X196401406Y-88656160D02*
X195694300Y-88656160D01*
X203027340Y-88168960D02*
X202540140Y-88656160D01*
X204177340Y-88168960D02*
X203027340Y-88168960D01*
X203313240Y-115361160D02*
X203311760Y-115362640D01*
X203313240Y-113861160D02*
X203313240Y-115361160D01*
X203311760Y-115362640D02*
X203311760Y-116055140D01*
X203311760Y-116055140D02*
X203311760Y-116055140D01*
X191149200Y-89616060D02*
X191151960Y-89618820D01*
X190449200Y-89616060D02*
X191149200Y-89616060D01*
X191151960Y-89618820D02*
X192072260Y-89618820D01*
X192072260Y-89618820D02*
X192072260Y-89618820D01*
X191950340Y-89496900D02*
X192072260Y-89618820D01*
X191950340Y-87718900D02*
X191950340Y-89496900D01*
X197096380Y-88656160D02*
X196401406Y-88656160D01*
X192072260Y-89618820D02*
X192072260Y-89618820D01*
X185143140Y-85742820D02*
X184815520Y-86070440D01*
X185143140Y-84962820D02*
X185143140Y-85742820D01*
X184815520Y-86070440D02*
X183558180Y-86070440D01*
X183558180Y-85778340D02*
X182031640Y-84251800D01*
X183558180Y-86070440D02*
X183558180Y-85778340D01*
X194769740Y-89380060D02*
X194769740Y-91467760D01*
X195693240Y-115344750D02*
X196004180Y-115655690D01*
X195693240Y-113861160D02*
X195693240Y-115344750D01*
X196004180Y-115655690D02*
X196004180Y-118612920D01*
X197408800Y-120017540D02*
X199572880Y-120017540D01*
X196004180Y-118612920D02*
X197408800Y-120017540D01*
X194423240Y-114711160D02*
X194423240Y-113861160D01*
X195533261Y-115821181D02*
X194423240Y-114711160D01*
X195533261Y-118817139D02*
X195533261Y-115821181D01*
X194358260Y-119992140D02*
X195533261Y-118817139D01*
X185533240Y-118035280D02*
X193730880Y-126232920D01*
X185533240Y-113861160D02*
X185533240Y-118035280D01*
X184263240Y-119305280D02*
X191190880Y-126232920D01*
X184263240Y-113861160D02*
X184263240Y-119305280D01*
X182993240Y-120575280D02*
X188650880Y-126232920D01*
X182993240Y-113861160D02*
X182993240Y-120575280D01*
X181723240Y-121845280D02*
X186110880Y-126232920D01*
X181723240Y-113861160D02*
X181723240Y-121845280D01*
X180453240Y-113861160D02*
X179183240Y-113861160D01*
X177913240Y-113861160D02*
X179183240Y-113861160D01*
X176643240Y-113861160D02*
X177913240Y-113861160D01*
X179739659Y-119258981D02*
X178889660Y-120108980D01*
X180064661Y-116242581D02*
X180064661Y-118933979D01*
X180064661Y-118933979D02*
X179739659Y-119258981D01*
X179183240Y-115361160D02*
X180064661Y-116242581D01*
X179183240Y-113861160D02*
X179183240Y-115361160D01*
X180180881Y-125382921D02*
X181030880Y-126232920D01*
X179379883Y-125382921D02*
X180180881Y-125382921D01*
X175373240Y-121376278D02*
X179379883Y-125382921D01*
X175373240Y-113861160D02*
X175373240Y-121376278D01*
X174103240Y-121845280D02*
X178490880Y-126232920D01*
X174103240Y-113861160D02*
X174103240Y-121845280D01*
X172833240Y-123115280D02*
X175950880Y-126232920D01*
X172833240Y-113852960D02*
X172833240Y-123115280D01*
X171563240Y-124385280D02*
X173410880Y-126232920D01*
X171563240Y-113861160D02*
X171563240Y-124385280D01*
X170293240Y-125655280D02*
X170870880Y-126232920D01*
X170293240Y-113861160D02*
X170293240Y-125655280D01*
X163943240Y-124385280D02*
X165790880Y-126232920D01*
X163943240Y-113861160D02*
X163943240Y-124385280D01*
X162673240Y-125655280D02*
X163250880Y-126232920D01*
X162673240Y-113861160D02*
X162673240Y-125655280D01*
X161403240Y-125540560D02*
X160710880Y-126232920D01*
X161403240Y-113861160D02*
X161403240Y-125540560D01*
X160133240Y-113861160D02*
X160133240Y-119566480D01*
X158170880Y-121528840D02*
X158170880Y-126232920D01*
X160133240Y-119566480D02*
X158170880Y-121528840D01*
X158863240Y-113861160D02*
X157593240Y-113861160D01*
X156323240Y-113861160D02*
X157593240Y-113861160D01*
X155053240Y-113861160D02*
X156323240Y-113861160D01*
X157593240Y-118053301D02*
X157593240Y-115361160D01*
X155560421Y-120086120D02*
X157593240Y-118053301D01*
X157593240Y-115361160D02*
X157593240Y-113861160D01*
X154358340Y-120086120D02*
X155560421Y-120086120D01*
X156480879Y-125382921D02*
X156480879Y-123564281D01*
X155630880Y-126232920D02*
X156480879Y-125382921D01*
X156480879Y-123564281D02*
X157002480Y-123042680D01*
X157002480Y-123042680D02*
X157038040Y-123007120D01*
X153133240Y-113861160D02*
X152864580Y-114129820D01*
X153783240Y-113861160D02*
X153133240Y-113861160D01*
X152864580Y-114129820D02*
X151399240Y-114129820D01*
X151399240Y-114129820D02*
X151251920Y-114129820D01*
X193244740Y-93667760D02*
X193819740Y-93667760D01*
X190963680Y-93667760D02*
X193244740Y-93667760D01*
X189831980Y-94799460D02*
X190963680Y-93667760D01*
X189831980Y-95374460D02*
X189831980Y-94799460D01*
X190531980Y-95374460D02*
X189831980Y-95374460D01*
X192252380Y-97094860D02*
X190531980Y-95374460D01*
X192252380Y-99664520D02*
X192252380Y-97094860D01*
X198360320Y-91257140D02*
X197072560Y-92544900D01*
X198360320Y-90782140D02*
X198360320Y-91257140D01*
X193819740Y-92887760D02*
X193819740Y-93667760D01*
X194162600Y-92544900D02*
X193819740Y-92887760D01*
X197072560Y-92544900D02*
X194162600Y-92544900D01*
X197745640Y-86636880D02*
X197745640Y-86161880D01*
X197080180Y-87302340D02*
X197745640Y-86636880D01*
X193819740Y-88310060D02*
X194827460Y-87302340D01*
X193819740Y-91467760D02*
X193819740Y-88310060D01*
X193621440Y-91666060D02*
X193819740Y-91467760D01*
X190449200Y-91666060D02*
X193621440Y-91666060D01*
X189749200Y-91666060D02*
X190449200Y-91666060D01*
X188616759Y-94170183D02*
X188616759Y-92798501D01*
X188616759Y-92798501D02*
X189749200Y-91666060D01*
X184547362Y-98239580D02*
X188616759Y-94170183D01*
X182154940Y-98239580D02*
X184547362Y-98239580D01*
X207835500Y-122432380D02*
X207751680Y-122348560D01*
X207835500Y-123182380D02*
X207835500Y-122432380D01*
X207751680Y-122348560D02*
X207751680Y-99936300D01*
X206653299Y-98837919D02*
X198872941Y-98837919D01*
X207751680Y-99936300D02*
X206653299Y-98837919D01*
X198872941Y-98837919D02*
X195318380Y-102392480D01*
X195318380Y-102392480D02*
X188417200Y-102392480D01*
X184547362Y-98522642D02*
X184547362Y-98239580D01*
X188417200Y-102392480D02*
X184547362Y-98522642D01*
X197080180Y-87302340D02*
X194827460Y-87302340D01*
X196862000Y-84631720D02*
X196862000Y-83756720D01*
X195824820Y-85668900D02*
X196862000Y-84631720D01*
X191950340Y-85668900D02*
X195824820Y-85668900D01*
X191950340Y-85093900D02*
X191950340Y-85668900D01*
X191819260Y-84962820D02*
X191950340Y-85093900D01*
X186093140Y-84962820D02*
X191819260Y-84962820D01*
X186668140Y-84962820D02*
X186093140Y-84962820D01*
X187204460Y-84426500D02*
X186668140Y-84962820D01*
X187204460Y-81887060D02*
X187204460Y-84426500D01*
X149726281Y-116696121D02*
X149726281Y-113824119D01*
X150576280Y-117546120D02*
X149726281Y-116696121D01*
X149726281Y-113824119D02*
X149726281Y-113824119D01*
X153144220Y-110406180D02*
X149726281Y-113824119D01*
X155021280Y-110406180D02*
X153144220Y-110406180D01*
X204164160Y-90782140D02*
X204177340Y-90768960D01*
X200460320Y-90782140D02*
X204164160Y-90782140D01*
X194302380Y-96155620D02*
X193759980Y-95613220D01*
X194302380Y-99664520D02*
X194302380Y-96155620D01*
X199845640Y-83773080D02*
X199862000Y-83756720D01*
X199845640Y-86161880D02*
X199845640Y-83773080D01*
X207077340Y-86718960D02*
X207077340Y-88268960D01*
X207077340Y-85518960D02*
X207077340Y-86718960D01*
X207077340Y-88268960D02*
X207077340Y-90668960D01*
X207077340Y-90668960D02*
X207077340Y-93418960D01*
X150576280Y-122626120D02*
X150576280Y-124955300D01*
X151853900Y-126232920D02*
X153090880Y-126232920D01*
X150576280Y-124955300D02*
X151853900Y-126232920D01*
X182720881Y-125382921D02*
X183570880Y-126232920D01*
X180836939Y-123498979D02*
X182720881Y-125382921D01*
X179739659Y-123498979D02*
X180836939Y-123498979D01*
X178889660Y-122648980D02*
X179739659Y-123498979D01*
X194358260Y-124320300D02*
X196270880Y-126232920D01*
X194358260Y-122532140D02*
X194358260Y-124320300D01*
X199572880Y-125470920D02*
X198810880Y-126232920D01*
X199572880Y-122557540D02*
X199572880Y-125470920D01*
X153116280Y-122626120D02*
X154358340Y-122626120D01*
X150576280Y-120086120D02*
X153116280Y-122626120D01*
X195719740Y-90687760D02*
X196161300Y-90246200D01*
X195719740Y-91467760D02*
X195719740Y-90687760D01*
X196161300Y-90246200D02*
X196639180Y-90246200D01*
X196639180Y-90246200D02*
X196639180Y-90246200D01*
X195809980Y-95613220D02*
X196384980Y-95613220D01*
X196384980Y-95613220D02*
X197017640Y-95613220D01*
X197017640Y-95613220D02*
X197017640Y-95613220D01*
X196659500Y-90266520D02*
X196639180Y-90246200D01*
X197355460Y-90266520D02*
X196659500Y-90266520D01*
X197017640Y-95613220D02*
X197017640Y-95613220D01*
X198071700Y-93667760D02*
X198422040Y-94018100D01*
X195719740Y-93667760D02*
X198071700Y-93667760D01*
X184193140Y-84182820D02*
X184193140Y-84962820D01*
X184193140Y-83548380D02*
X184193140Y-84182820D01*
X185154460Y-82587060D02*
X184193140Y-83548380D01*
X185154460Y-81887060D02*
X185154460Y-82587060D01*
X183717980Y-93789500D02*
X183867840Y-93939360D01*
X180174900Y-93789500D02*
X183717980Y-93789500D01*
X169023240Y-113861160D02*
X167753240Y-113861160D01*
X167753240Y-113861160D02*
X166483240Y-113861160D01*
X166483240Y-113861160D02*
X165213240Y-113861160D01*
X167753240Y-125655280D02*
X168330880Y-126232920D01*
X167753240Y-113861160D02*
X167753240Y-125655280D01*
X155560421Y-117546120D02*
X155568041Y-117553740D01*
X154358340Y-117546120D02*
X155560421Y-117546120D01*
X155568041Y-117553740D02*
X156761180Y-117553740D01*
X156761180Y-117553740D02*
X156761180Y-117553740D01*
X175633961Y-110466039D02*
X175525001Y-110574999D01*
X182511721Y-110466039D02*
X175633961Y-110466039D01*
X182645682Y-110600000D02*
X182511721Y-110466039D01*
X185200000Y-110600000D02*
X182645682Y-110600000D01*
D29*
G36*
X152594788Y-78905397D02*
G01*
X152392513Y-79040553D01*
X152220493Y-79212573D01*
X152085337Y-79414848D01*
X151992240Y-79639604D01*
X151944780Y-79878203D01*
X151944780Y-80121477D01*
X151992240Y-80360076D01*
X152085337Y-80584832D01*
X152220493Y-80787107D01*
X152392513Y-80959127D01*
X152594788Y-81094283D01*
X152819544Y-81187380D01*
X153058143Y-81234840D01*
X153301417Y-81234840D01*
X153540016Y-81187380D01*
X153764772Y-81094283D01*
X153967047Y-80959127D01*
X154139067Y-80787107D01*
X154274223Y-80584832D01*
X154367320Y-80360076D01*
X154407769Y-80156720D01*
X192673928Y-80156720D01*
X192673928Y-81056720D01*
X192686188Y-81181202D01*
X192722498Y-81300900D01*
X192781463Y-81411214D01*
X192860815Y-81507905D01*
X192957506Y-81587257D01*
X193067820Y-81646222D01*
X193187518Y-81682532D01*
X193312000Y-81694792D01*
X194212000Y-81694792D01*
X194336482Y-81682532D01*
X194456180Y-81646222D01*
X194566494Y-81587257D01*
X194663185Y-81507905D01*
X194742537Y-81411214D01*
X194801502Y-81300900D01*
X194837812Y-81181202D01*
X194850072Y-81056720D01*
X194850072Y-80156720D01*
X200373928Y-80156720D01*
X200373928Y-81056720D01*
X200386188Y-81181202D01*
X200422498Y-81300900D01*
X200481463Y-81411214D01*
X200560815Y-81507905D01*
X200657506Y-81587257D01*
X200767820Y-81646222D01*
X200887518Y-81682532D01*
X201012000Y-81694792D01*
X201912000Y-81694792D01*
X202036482Y-81682532D01*
X202156180Y-81646222D01*
X202266494Y-81587257D01*
X202363185Y-81507905D01*
X202442537Y-81411214D01*
X202501502Y-81300900D01*
X202537812Y-81181202D01*
X202550072Y-81056720D01*
X202550072Y-80156720D01*
X202537812Y-80032238D01*
X202501502Y-79912540D01*
X202442537Y-79802226D01*
X202363185Y-79705535D01*
X202266494Y-79626183D01*
X202156180Y-79567218D01*
X202036482Y-79530908D01*
X201912000Y-79518648D01*
X201012000Y-79518648D01*
X200887518Y-79530908D01*
X200767820Y-79567218D01*
X200657506Y-79626183D01*
X200560815Y-79705535D01*
X200481463Y-79802226D01*
X200422498Y-79912540D01*
X200386188Y-80032238D01*
X200373928Y-80156720D01*
X194850072Y-80156720D01*
X194837812Y-80032238D01*
X194801502Y-79912540D01*
X194742537Y-79802226D01*
X194663185Y-79705535D01*
X194566494Y-79626183D01*
X194456180Y-79567218D01*
X194336482Y-79530908D01*
X194212000Y-79518648D01*
X193312000Y-79518648D01*
X193187518Y-79530908D01*
X193067820Y-79567218D01*
X192957506Y-79626183D01*
X192860815Y-79705535D01*
X192781463Y-79802226D01*
X192722498Y-79912540D01*
X192686188Y-80032238D01*
X192673928Y-80156720D01*
X154407769Y-80156720D01*
X154414780Y-80121477D01*
X154414780Y-79878203D01*
X154367320Y-79639604D01*
X154274223Y-79414848D01*
X154139067Y-79212573D01*
X153967047Y-79040553D01*
X153764772Y-78905397D01*
X153655174Y-78860000D01*
X209000000Y-78860000D01*
X209000001Y-127540000D01*
X205184882Y-127540000D01*
X205192065Y-127534105D01*
X205271417Y-127437414D01*
X205330382Y-127327100D01*
X205366692Y-127207402D01*
X205378952Y-127082920D01*
X205375880Y-126518670D01*
X205217130Y-126359920D01*
X204017880Y-126359920D01*
X204017880Y-126379920D01*
X203763880Y-126379920D01*
X203763880Y-126359920D01*
X203743880Y-126359920D01*
X203743880Y-126105920D01*
X203763880Y-126105920D01*
X203763880Y-124906670D01*
X204017880Y-124906670D01*
X204017880Y-126105920D01*
X205217130Y-126105920D01*
X205375880Y-125947170D01*
X205378952Y-125382920D01*
X205366692Y-125258438D01*
X205330382Y-125138740D01*
X205271417Y-125028426D01*
X205192065Y-124931735D01*
X205095374Y-124852383D01*
X204985060Y-124793418D01*
X204865362Y-124757108D01*
X204836384Y-124754254D01*
X206741381Y-124754254D01*
X206758054Y-124809244D01*
X206848377Y-125012586D01*
X206976635Y-125194400D01*
X207137899Y-125347698D01*
X207325971Y-125466590D01*
X207533624Y-125546506D01*
X207708500Y-125421509D01*
X207708500Y-124579380D01*
X207962500Y-124579380D01*
X207962500Y-125421509D01*
X208137376Y-125546506D01*
X208345029Y-125466590D01*
X208533101Y-125347698D01*
X208694365Y-125194400D01*
X208822623Y-125012586D01*
X208912946Y-124809244D01*
X208929619Y-124754254D01*
X208803454Y-124579380D01*
X207962500Y-124579380D01*
X207708500Y-124579380D01*
X206867546Y-124579380D01*
X206741381Y-124754254D01*
X204836384Y-124754254D01*
X204740880Y-124744848D01*
X204176630Y-124747920D01*
X204017880Y-124906670D01*
X203763880Y-124906670D01*
X203605130Y-124747920D01*
X203040880Y-124744848D01*
X202916398Y-124757108D01*
X202796700Y-124793418D01*
X202686386Y-124852383D01*
X202589695Y-124931735D01*
X202510343Y-125028426D01*
X202451378Y-125138740D01*
X202429367Y-125211300D01*
X202337294Y-125119227D01*
X204955603Y-122500918D01*
X204984601Y-122477120D01*
X205079574Y-122361395D01*
X205150146Y-122229366D01*
X205193603Y-122086105D01*
X205204600Y-121974452D01*
X205204600Y-121974444D01*
X205208276Y-121937119D01*
X205204600Y-121899794D01*
X205204600Y-112794843D01*
X205208276Y-112757518D01*
X205204600Y-112720193D01*
X205204600Y-112720185D01*
X205193603Y-112608532D01*
X205150146Y-112465271D01*
X205079574Y-112333242D01*
X204984601Y-112217517D01*
X204955604Y-112193720D01*
X203855946Y-111094063D01*
X203832143Y-111065059D01*
X203716418Y-110970086D01*
X203584389Y-110899514D01*
X203441128Y-110856057D01*
X203329475Y-110845060D01*
X203329464Y-110845060D01*
X203292142Y-110841384D01*
X203254820Y-110845060D01*
X194988315Y-110845060D01*
X195012260Y-110724679D01*
X195012260Y-110520801D01*
X194972486Y-110320842D01*
X194894465Y-110132484D01*
X194781197Y-109962966D01*
X194637034Y-109818803D01*
X194467516Y-109705535D01*
X194279158Y-109627514D01*
X194079199Y-109587740D01*
X193875321Y-109587740D01*
X193675362Y-109627514D01*
X193487004Y-109705535D01*
X193317486Y-109818803D01*
X193173323Y-109962966D01*
X193060055Y-110132484D01*
X192982034Y-110320842D01*
X192942260Y-110520801D01*
X192942260Y-110724679D01*
X192982034Y-110924638D01*
X193060055Y-111112996D01*
X193166819Y-111272780D01*
X192642238Y-111797361D01*
X192613240Y-111821159D01*
X192589443Y-111850156D01*
X192589441Y-111850158D01*
X192518266Y-111936884D01*
X192480552Y-112007441D01*
X192407722Y-111985348D01*
X192283240Y-111973088D01*
X191483240Y-111973088D01*
X191358758Y-111985348D01*
X191248240Y-112018873D01*
X191137722Y-111985348D01*
X191013240Y-111973088D01*
X190213240Y-111973088D01*
X190088758Y-111985348D01*
X189978240Y-112018873D01*
X189867722Y-111985348D01*
X189743240Y-111973088D01*
X188943240Y-111973088D01*
X188818758Y-111985348D01*
X188745928Y-112007441D01*
X188708214Y-111936884D01*
X188675733Y-111897306D01*
X188637039Y-111850156D01*
X188637035Y-111850152D01*
X188613241Y-111821159D01*
X188584250Y-111797367D01*
X184206708Y-107419825D01*
X189713240Y-107419825D01*
X189713240Y-107702495D01*
X189768387Y-107979734D01*
X189876560Y-108240887D01*
X190033603Y-108475919D01*
X190233481Y-108675797D01*
X190468513Y-108832840D01*
X190729666Y-108941013D01*
X191006905Y-108996160D01*
X191289575Y-108996160D01*
X191566814Y-108941013D01*
X191827967Y-108832840D01*
X192062999Y-108675797D01*
X192262877Y-108475919D01*
X192419920Y-108240887D01*
X192528093Y-107979734D01*
X192583240Y-107702495D01*
X192583240Y-107419825D01*
X192528093Y-107142586D01*
X192419920Y-106881433D01*
X192262877Y-106646401D01*
X192062999Y-106446523D01*
X191827967Y-106289480D01*
X191566814Y-106181307D01*
X191289575Y-106126160D01*
X191006905Y-106126160D01*
X190729666Y-106181307D01*
X190468513Y-106289480D01*
X190233481Y-106446523D01*
X190033603Y-106646401D01*
X189876560Y-106881433D01*
X189768387Y-107142586D01*
X189713240Y-107419825D01*
X184206708Y-107419825D01*
X175558983Y-98772102D01*
X175511379Y-98714097D01*
X175511378Y-98714096D01*
X175487581Y-98685099D01*
X175458583Y-98661301D01*
X173820360Y-97023079D01*
X173820360Y-92477817D01*
X173829413Y-92488848D01*
X174047920Y-92668172D01*
X174297213Y-92801422D01*
X174567712Y-92883476D01*
X174849020Y-92911183D01*
X175130329Y-92883476D01*
X175400828Y-92801422D01*
X175650121Y-92668172D01*
X175868628Y-92488848D01*
X176047952Y-92270341D01*
X176119020Y-92137382D01*
X176190088Y-92270341D01*
X176369413Y-92488848D01*
X176587920Y-92668172D01*
X176837213Y-92801422D01*
X176847036Y-92804402D01*
X176782823Y-92882646D01*
X176723858Y-92992960D01*
X176687548Y-93112658D01*
X176675288Y-93237140D01*
X176678360Y-93526390D01*
X176837110Y-93685140D01*
X177886360Y-93685140D01*
X177886360Y-93665140D01*
X178140360Y-93665140D01*
X178140360Y-93685140D01*
X178160360Y-93685140D01*
X178160360Y-93939140D01*
X178140360Y-93939140D01*
X178140360Y-93959140D01*
X177886360Y-93959140D01*
X177886360Y-93939140D01*
X176837110Y-93939140D01*
X176678360Y-94097890D01*
X176675288Y-94387140D01*
X176687548Y-94511622D01*
X176723858Y-94631320D01*
X176782823Y-94741634D01*
X176862175Y-94838325D01*
X176941954Y-94903798D01*
X176935398Y-94909178D01*
X176824955Y-95043753D01*
X176815383Y-95061661D01*
X176712916Y-94993195D01*
X176524558Y-94915174D01*
X176324599Y-94875400D01*
X176120721Y-94875400D01*
X175920762Y-94915174D01*
X175732404Y-94993195D01*
X175562886Y-95106463D01*
X175418723Y-95250626D01*
X175305455Y-95420144D01*
X175227434Y-95608502D01*
X175187660Y-95808461D01*
X175187660Y-96012339D01*
X175227434Y-96212298D01*
X175305455Y-96400656D01*
X175418723Y-96570174D01*
X175562886Y-96714337D01*
X175732404Y-96827605D01*
X175920762Y-96905626D01*
X176120721Y-96945400D01*
X176324599Y-96945400D01*
X176524558Y-96905626D01*
X176712916Y-96827605D01*
X176863232Y-96727167D01*
X176879981Y-96747576D01*
X176879980Y-97363968D01*
X176758368Y-97485580D01*
X176634156Y-97671476D01*
X176548597Y-97878033D01*
X176504980Y-98097312D01*
X176504980Y-98320888D01*
X176548597Y-98540167D01*
X176634156Y-98746724D01*
X176758368Y-98932620D01*
X176916460Y-99090712D01*
X177102356Y-99214924D01*
X177308913Y-99300483D01*
X177528192Y-99344100D01*
X177751768Y-99344100D01*
X177971047Y-99300483D01*
X178177604Y-99214924D01*
X178363500Y-99090712D01*
X178454632Y-98999580D01*
X178950413Y-98999580D01*
X178959468Y-99029431D01*
X179041535Y-99182967D01*
X179151978Y-99317542D01*
X179286553Y-99427985D01*
X179440089Y-99510052D01*
X179606685Y-99560588D01*
X179779939Y-99577652D01*
X180429941Y-99577652D01*
X180603195Y-99560588D01*
X180769791Y-99510052D01*
X180923327Y-99427985D01*
X181057902Y-99317542D01*
X181129940Y-99229764D01*
X181201978Y-99317542D01*
X181336553Y-99427985D01*
X181490089Y-99510052D01*
X181656685Y-99560588D01*
X181829939Y-99577652D01*
X182479941Y-99577652D01*
X182653195Y-99560588D01*
X182819791Y-99510052D01*
X182973327Y-99427985D01*
X183107902Y-99317542D01*
X183218345Y-99182967D01*
X183300412Y-99029431D01*
X183309467Y-98999580D01*
X183955607Y-98999580D01*
X184007361Y-99062643D01*
X184036365Y-99086446D01*
X187853405Y-102903488D01*
X187877199Y-102932481D01*
X187906192Y-102956275D01*
X187906196Y-102956279D01*
X187976885Y-103014291D01*
X187992924Y-103027454D01*
X188124953Y-103098026D01*
X188268214Y-103141483D01*
X188379867Y-103152480D01*
X188379876Y-103152480D01*
X188417199Y-103156156D01*
X188454522Y-103152480D01*
X195281058Y-103152480D01*
X195318380Y-103156156D01*
X195355702Y-103152480D01*
X195355713Y-103152480D01*
X195369115Y-103151160D01*
X203960168Y-103151160D01*
X203960168Y-108651160D01*
X203972428Y-108775642D01*
X204008738Y-108895340D01*
X204067703Y-109005654D01*
X204147055Y-109102345D01*
X204243746Y-109181697D01*
X204354060Y-109240662D01*
X204473758Y-109276972D01*
X204598240Y-109289232D01*
X205698240Y-109289232D01*
X205822722Y-109276972D01*
X205942420Y-109240662D01*
X206052734Y-109181697D01*
X206149425Y-109102345D01*
X206228777Y-109005654D01*
X206287742Y-108895340D01*
X206324052Y-108775642D01*
X206336312Y-108651160D01*
X206336312Y-103151160D01*
X206324052Y-103026678D01*
X206287742Y-102906980D01*
X206228777Y-102796666D01*
X206149425Y-102699975D01*
X206052734Y-102620623D01*
X205942420Y-102561658D01*
X205822722Y-102525348D01*
X205698240Y-102513088D01*
X204598240Y-102513088D01*
X204473758Y-102525348D01*
X204354060Y-102561658D01*
X204243746Y-102620623D01*
X204147055Y-102699975D01*
X204067703Y-102796666D01*
X204008738Y-102906980D01*
X203972428Y-103026678D01*
X203960168Y-103151160D01*
X195369115Y-103151160D01*
X195467366Y-103141483D01*
X195610627Y-103098026D01*
X195742656Y-103027454D01*
X195858381Y-102932481D01*
X195882184Y-102903477D01*
X199187744Y-99597919D01*
X206338498Y-99597919D01*
X206991681Y-100251103D01*
X206991680Y-122146138D01*
X206981006Y-122151843D01*
X206884315Y-122231195D01*
X206804963Y-122327886D01*
X206745998Y-122438200D01*
X206709688Y-122557898D01*
X206697428Y-122682380D01*
X206697428Y-123682380D01*
X206709688Y-123806862D01*
X206745998Y-123926560D01*
X206793570Y-124015560D01*
X206758054Y-124095516D01*
X206741381Y-124150506D01*
X206867546Y-124325380D01*
X207708500Y-124325380D01*
X207708500Y-124320452D01*
X207962500Y-124320452D01*
X207962500Y-124325380D01*
X208803454Y-124325380D01*
X208929619Y-124150506D01*
X208912946Y-124095516D01*
X208877430Y-124015560D01*
X208925002Y-123926560D01*
X208961312Y-123806862D01*
X208973572Y-123682380D01*
X208973572Y-122682380D01*
X208961312Y-122557898D01*
X208925002Y-122438200D01*
X208866037Y-122327886D01*
X208786685Y-122231195D01*
X208689994Y-122151843D01*
X208579680Y-122092878D01*
X208511680Y-122072250D01*
X208511680Y-99973622D01*
X208515356Y-99936299D01*
X208511680Y-99898976D01*
X208511680Y-99898967D01*
X208500683Y-99787314D01*
X208457226Y-99644053D01*
X208386654Y-99512024D01*
X208291681Y-99396299D01*
X208262683Y-99372501D01*
X207217103Y-98326921D01*
X207193300Y-98297918D01*
X207077575Y-98202945D01*
X206945546Y-98132373D01*
X206802285Y-98088916D01*
X206690632Y-98077919D01*
X206690621Y-98077919D01*
X206653299Y-98074243D01*
X206615977Y-98077919D01*
X198910263Y-98077919D01*
X198872940Y-98074243D01*
X198835617Y-98077919D01*
X198835608Y-98077919D01*
X198723955Y-98088916D01*
X198580694Y-98132373D01*
X198448665Y-98202945D01*
X198448663Y-98202946D01*
X198448664Y-98202946D01*
X198361937Y-98274120D01*
X198361933Y-98274124D01*
X198332940Y-98297918D01*
X198309146Y-98326911D01*
X195003579Y-101632480D01*
X188732003Y-101632480D01*
X185480632Y-98381111D01*
X185862283Y-97999460D01*
X188493908Y-97999460D01*
X188506168Y-98123942D01*
X188542478Y-98243640D01*
X188601443Y-98353954D01*
X188680795Y-98450645D01*
X188777486Y-98529997D01*
X188887800Y-98588962D01*
X189007498Y-98625272D01*
X189131980Y-98637532D01*
X189546230Y-98634460D01*
X189704980Y-98475710D01*
X189704980Y-97551460D01*
X189958980Y-97551460D01*
X189958980Y-98475710D01*
X190117730Y-98634460D01*
X190531980Y-98637532D01*
X190656462Y-98625272D01*
X190776160Y-98588962D01*
X190886474Y-98529997D01*
X190983165Y-98450645D01*
X191062517Y-98353954D01*
X191121482Y-98243640D01*
X191157792Y-98123942D01*
X191170052Y-97999460D01*
X191166980Y-97710210D01*
X191008230Y-97551460D01*
X189958980Y-97551460D01*
X189704980Y-97551460D01*
X188655730Y-97551460D01*
X188496980Y-97710210D01*
X188493908Y-97999460D01*
X185862283Y-97999460D01*
X188493908Y-95367837D01*
X188493908Y-95699461D01*
X188510972Y-95872715D01*
X188561508Y-96039311D01*
X188643575Y-96192847D01*
X188754018Y-96327422D01*
X188760574Y-96332802D01*
X188680795Y-96398275D01*
X188601443Y-96494966D01*
X188542478Y-96605280D01*
X188506168Y-96724978D01*
X188493908Y-96849460D01*
X188496980Y-97138710D01*
X188655730Y-97297460D01*
X189704980Y-97297460D01*
X189704980Y-97277460D01*
X189958980Y-97277460D01*
X189958980Y-97297460D01*
X191008230Y-97297460D01*
X191166980Y-97138710D01*
X191167552Y-97084834D01*
X191492381Y-97409663D01*
X191492380Y-98444906D01*
X191433993Y-98476115D01*
X191299418Y-98586558D01*
X191188975Y-98721133D01*
X191106908Y-98874669D01*
X191056372Y-99041265D01*
X191039308Y-99214519D01*
X191039308Y-100114521D01*
X191056372Y-100287775D01*
X191106908Y-100454371D01*
X191188975Y-100607907D01*
X191299418Y-100742482D01*
X191433993Y-100852925D01*
X191587529Y-100934992D01*
X191754125Y-100985528D01*
X191927379Y-101002592D01*
X192577381Y-101002592D01*
X192750635Y-100985528D01*
X192917231Y-100934992D01*
X193070767Y-100852925D01*
X193205342Y-100742482D01*
X193277380Y-100654704D01*
X193349418Y-100742482D01*
X193483993Y-100852925D01*
X193637529Y-100934992D01*
X193804125Y-100985528D01*
X193977379Y-101002592D01*
X194627381Y-101002592D01*
X194800635Y-100985528D01*
X194967231Y-100934992D01*
X195120767Y-100852925D01*
X195255342Y-100742482D01*
X195365785Y-100607907D01*
X195447852Y-100454371D01*
X195498388Y-100287775D01*
X195515452Y-100114521D01*
X195515452Y-99214519D01*
X195498388Y-99041265D01*
X195447852Y-98874669D01*
X195365785Y-98721133D01*
X195255342Y-98586558D01*
X195120767Y-98476115D01*
X195062380Y-98444906D01*
X195062380Y-96839462D01*
X195145129Y-96883692D01*
X195311725Y-96934228D01*
X195484979Y-96951292D01*
X196134981Y-96951292D01*
X196308235Y-96934228D01*
X196474831Y-96883692D01*
X196628367Y-96801625D01*
X196762942Y-96691182D01*
X196814689Y-96628128D01*
X196915701Y-96648220D01*
X197119579Y-96648220D01*
X197319538Y-96608446D01*
X197507896Y-96530425D01*
X197677414Y-96417157D01*
X197821577Y-96272994D01*
X197934845Y-96103476D01*
X198012866Y-95915118D01*
X198052640Y-95715159D01*
X198052640Y-95511281D01*
X198020283Y-95348612D01*
X198097039Y-95356172D01*
X198747041Y-95356172D01*
X198920295Y-95339108D01*
X199086891Y-95288572D01*
X199240427Y-95206505D01*
X199375002Y-95096062D01*
X199380382Y-95089506D01*
X199445855Y-95169285D01*
X199542546Y-95248637D01*
X199652860Y-95307602D01*
X199772558Y-95343912D01*
X199897040Y-95356172D01*
X200186290Y-95353100D01*
X200345040Y-95194350D01*
X200345040Y-94145100D01*
X200599040Y-94145100D01*
X200599040Y-95194350D01*
X200757790Y-95353100D01*
X201047040Y-95356172D01*
X201171522Y-95343912D01*
X201291220Y-95307602D01*
X201401534Y-95248637D01*
X201498225Y-95169285D01*
X201577577Y-95072594D01*
X201636542Y-94962280D01*
X201672852Y-94842582D01*
X201685112Y-94718100D01*
X201682040Y-94303850D01*
X201523290Y-94145100D01*
X200599040Y-94145100D01*
X200345040Y-94145100D01*
X200325040Y-94145100D01*
X200325040Y-93891100D01*
X200345040Y-93891100D01*
X200345040Y-92841850D01*
X200599040Y-92841850D01*
X200599040Y-93891100D01*
X201523290Y-93891100D01*
X201682040Y-93732350D01*
X201685112Y-93318100D01*
X201672852Y-93193618D01*
X201636542Y-93073920D01*
X201577577Y-92963606D01*
X201498225Y-92866915D01*
X201401534Y-92787563D01*
X201291220Y-92728598D01*
X201171522Y-92692288D01*
X201047040Y-92680028D01*
X200757790Y-92683100D01*
X200599040Y-92841850D01*
X200345040Y-92841850D01*
X200186290Y-92683100D01*
X199897040Y-92680028D01*
X199772558Y-92692288D01*
X199652860Y-92728598D01*
X199542546Y-92787563D01*
X199445855Y-92866915D01*
X199380382Y-92946694D01*
X199375002Y-92940138D01*
X199240427Y-92829695D01*
X199086891Y-92747628D01*
X198920295Y-92697092D01*
X198747041Y-92680028D01*
X198097039Y-92680028D01*
X198002968Y-92689293D01*
X198871323Y-91820939D01*
X198900321Y-91797141D01*
X198995294Y-91681416D01*
X199065866Y-91549387D01*
X199087517Y-91478011D01*
X199111505Y-91458325D01*
X199190857Y-91361634D01*
X199249822Y-91251320D01*
X199286132Y-91131622D01*
X199298392Y-91007140D01*
X199298392Y-90557140D01*
X199522248Y-90557140D01*
X199522248Y-91007140D01*
X199534508Y-91131622D01*
X199570818Y-91251320D01*
X199629783Y-91361634D01*
X199709135Y-91458325D01*
X199805826Y-91537677D01*
X199916140Y-91596642D01*
X200035838Y-91632952D01*
X200160320Y-91645212D01*
X200760320Y-91645212D01*
X200884802Y-91632952D01*
X201004500Y-91596642D01*
X201106464Y-91542140D01*
X203002624Y-91542140D01*
X203033160Y-91558462D01*
X203152858Y-91594772D01*
X203277340Y-91607032D01*
X204026976Y-91607032D01*
X204052311Y-91734397D01*
X204120909Y-91900007D01*
X204220497Y-92049051D01*
X204347249Y-92175803D01*
X204496293Y-92275391D01*
X204661903Y-92343989D01*
X204837713Y-92378960D01*
X205016967Y-92378960D01*
X205192777Y-92343989D01*
X205358387Y-92275391D01*
X205507431Y-92175803D01*
X205634183Y-92049051D01*
X205645250Y-92032487D01*
X205654666Y-92043960D01*
X205596803Y-92114466D01*
X205537838Y-92224780D01*
X205501528Y-92344478D01*
X205489268Y-92468960D01*
X205489268Y-94368960D01*
X205501528Y-94493442D01*
X205537838Y-94613140D01*
X205596803Y-94723454D01*
X205676155Y-94820145D01*
X205772846Y-94899497D01*
X205883160Y-94958462D01*
X206002858Y-94994772D01*
X206127340Y-95007032D01*
X208027340Y-95007032D01*
X208151822Y-94994772D01*
X208271520Y-94958462D01*
X208381834Y-94899497D01*
X208478525Y-94820145D01*
X208557877Y-94723454D01*
X208616842Y-94613140D01*
X208653152Y-94493442D01*
X208665412Y-94368960D01*
X208665412Y-92468960D01*
X208653152Y-92344478D01*
X208616842Y-92224780D01*
X208557877Y-92114466D01*
X208500014Y-92043960D01*
X208557877Y-91973454D01*
X208616842Y-91863140D01*
X208653152Y-91743442D01*
X208665412Y-91618960D01*
X208665412Y-89718960D01*
X208653152Y-89594478D01*
X208616842Y-89474780D01*
X208613731Y-89468960D01*
X208616842Y-89463140D01*
X208653152Y-89343442D01*
X208665412Y-89218960D01*
X208665412Y-87318960D01*
X208653152Y-87194478D01*
X208616842Y-87074780D01*
X208557877Y-86964466D01*
X208500014Y-86893960D01*
X208557877Y-86823454D01*
X208616842Y-86713140D01*
X208653152Y-86593442D01*
X208665412Y-86468960D01*
X208665412Y-84568960D01*
X208653152Y-84444478D01*
X208616842Y-84324780D01*
X208557877Y-84214466D01*
X208478525Y-84117775D01*
X208381834Y-84038423D01*
X208271520Y-83979458D01*
X208151822Y-83943148D01*
X208027340Y-83930888D01*
X206127340Y-83930888D01*
X206002858Y-83943148D01*
X205883160Y-83979458D01*
X205772846Y-84038423D01*
X205676155Y-84117775D01*
X205596803Y-84214466D01*
X205537838Y-84324780D01*
X205501528Y-84444478D01*
X205489268Y-84568960D01*
X205489268Y-86468960D01*
X205501528Y-86593442D01*
X205537838Y-86713140D01*
X205596803Y-86823454D01*
X205654666Y-86893960D01*
X205645250Y-86905433D01*
X205634183Y-86888869D01*
X205507431Y-86762117D01*
X205358387Y-86662529D01*
X205192777Y-86593931D01*
X205016967Y-86558960D01*
X204837713Y-86558960D01*
X204661903Y-86593931D01*
X204496293Y-86662529D01*
X204347249Y-86762117D01*
X204220497Y-86888869D01*
X204120909Y-87037913D01*
X204052311Y-87203523D01*
X204017340Y-87379333D01*
X204017340Y-87459710D01*
X203891590Y-87333960D01*
X203285659Y-87330942D01*
X203161028Y-87341579D01*
X203040867Y-87376325D01*
X202929793Y-87433846D01*
X202832076Y-87511931D01*
X202751469Y-87607579D01*
X202691072Y-87717115D01*
X202653205Y-87836330D01*
X202642340Y-87937210D01*
X202801090Y-88095960D01*
X202913662Y-88095960D01*
X202826155Y-88167775D01*
X202746803Y-88264466D01*
X202710308Y-88332742D01*
X202642340Y-88400710D01*
X202652200Y-88492262D01*
X202651528Y-88494478D01*
X202639268Y-88618960D01*
X202639268Y-89018960D01*
X202651528Y-89143442D01*
X202651685Y-89143960D01*
X202651528Y-89144478D01*
X202639268Y-89268960D01*
X202639268Y-89668960D01*
X202651528Y-89793442D01*
X202651685Y-89793960D01*
X202651528Y-89794478D01*
X202639268Y-89918960D01*
X202639268Y-90022140D01*
X201106464Y-90022140D01*
X201004500Y-89967638D01*
X200884802Y-89931328D01*
X200760320Y-89919068D01*
X200160320Y-89919068D01*
X200035838Y-89931328D01*
X199916140Y-89967638D01*
X199805826Y-90026603D01*
X199709135Y-90105955D01*
X199629783Y-90202646D01*
X199570818Y-90312960D01*
X199534508Y-90432658D01*
X199522248Y-90557140D01*
X199298392Y-90557140D01*
X199286132Y-90432658D01*
X199249822Y-90312960D01*
X199190857Y-90202646D01*
X199111505Y-90105955D01*
X199014814Y-90026603D01*
X198904500Y-89967638D01*
X198784802Y-89931328D01*
X198660320Y-89919068D01*
X198331817Y-89919068D01*
X198272665Y-89776264D01*
X198159397Y-89606746D01*
X198015234Y-89462583D01*
X197845716Y-89349315D01*
X197657358Y-89271294D01*
X197457399Y-89231520D01*
X197253521Y-89231520D01*
X197053562Y-89271294D01*
X196865204Y-89349315D01*
X196695686Y-89462583D01*
X196672467Y-89485802D01*
X196639180Y-89482524D01*
X196601858Y-89486200D01*
X196198622Y-89486200D01*
X196161299Y-89482524D01*
X196123976Y-89486200D01*
X196123967Y-89486200D01*
X196012314Y-89497197D01*
X195915061Y-89526698D01*
X195869053Y-89540654D01*
X195737023Y-89611226D01*
X195717441Y-89627297D01*
X195621299Y-89706199D01*
X195597496Y-89735203D01*
X195208738Y-90123961D01*
X195179740Y-90147759D01*
X195155942Y-90176757D01*
X195155941Y-90176758D01*
X195084766Y-90263484D01*
X195064134Y-90302083D01*
X195055490Y-90302760D01*
X194896740Y-90461510D01*
X194896740Y-90543619D01*
X194864203Y-90583266D01*
X194805238Y-90693580D01*
X194769740Y-90810601D01*
X194734242Y-90693580D01*
X194675277Y-90583266D01*
X194642740Y-90543619D01*
X194642740Y-90461510D01*
X194579740Y-90398510D01*
X194579740Y-88624861D01*
X195142262Y-88062340D01*
X197042858Y-88062340D01*
X197080180Y-88066016D01*
X197117502Y-88062340D01*
X197117513Y-88062340D01*
X197229166Y-88051343D01*
X197372427Y-88007886D01*
X197504456Y-87937314D01*
X197620181Y-87842341D01*
X197643983Y-87813338D01*
X198256644Y-87200678D01*
X198285641Y-87176881D01*
X198380614Y-87061156D01*
X198451186Y-86929127D01*
X198472837Y-86857751D01*
X198496825Y-86838065D01*
X198576177Y-86741374D01*
X198635142Y-86631060D01*
X198671452Y-86511362D01*
X198683712Y-86386880D01*
X198683712Y-85936880D01*
X198671452Y-85812398D01*
X198635142Y-85692700D01*
X198576177Y-85582386D01*
X198496825Y-85485695D01*
X198400134Y-85406343D01*
X198289820Y-85347378D01*
X198170122Y-85311068D01*
X198045640Y-85298808D01*
X197445640Y-85298808D01*
X197321158Y-85311068D01*
X197229715Y-85338807D01*
X197373004Y-85195518D01*
X197402001Y-85171721D01*
X197451173Y-85111805D01*
X197496974Y-85055997D01*
X197539599Y-84976252D01*
X197556180Y-84971222D01*
X197666494Y-84912257D01*
X197763185Y-84832905D01*
X197842537Y-84736214D01*
X197901502Y-84625900D01*
X197937812Y-84506202D01*
X197950072Y-84381720D01*
X197950072Y-83131720D01*
X197937812Y-83007238D01*
X197901502Y-82887540D01*
X197842537Y-82777226D01*
X197763185Y-82680535D01*
X197666494Y-82601183D01*
X197556180Y-82542218D01*
X197436482Y-82505908D01*
X197312000Y-82493648D01*
X196752230Y-82493648D01*
X196755837Y-82491238D01*
X196896518Y-82350557D01*
X197007050Y-82185134D01*
X197083186Y-82001326D01*
X197122000Y-81806196D01*
X197122000Y-81607244D01*
X198102000Y-81607244D01*
X198102000Y-81806196D01*
X198140814Y-82001326D01*
X198216950Y-82185134D01*
X198327482Y-82350557D01*
X198468163Y-82491238D01*
X198633586Y-82601770D01*
X198817394Y-82677906D01*
X198942543Y-82702800D01*
X198881463Y-82777226D01*
X198822498Y-82887540D01*
X198786188Y-83007238D01*
X198773928Y-83131720D01*
X198773928Y-84381720D01*
X198786188Y-84506202D01*
X198822498Y-84625900D01*
X198881463Y-84736214D01*
X198960815Y-84832905D01*
X199057506Y-84912257D01*
X199085641Y-84927295D01*
X199085640Y-85496436D01*
X199015103Y-85582386D01*
X198956138Y-85692700D01*
X198919828Y-85812398D01*
X198907568Y-85936880D01*
X198907568Y-86386880D01*
X198919828Y-86511362D01*
X198956138Y-86631060D01*
X199015103Y-86741374D01*
X199094455Y-86838065D01*
X199191146Y-86917417D01*
X199301460Y-86976382D01*
X199421158Y-87012692D01*
X199545640Y-87024952D01*
X200145640Y-87024952D01*
X200270122Y-87012692D01*
X200389820Y-86976382D01*
X200500134Y-86917417D01*
X200596825Y-86838065D01*
X200676177Y-86741374D01*
X200735142Y-86631060D01*
X200771452Y-86511362D01*
X200783712Y-86386880D01*
X200783712Y-85936880D01*
X200771452Y-85812398D01*
X200735142Y-85692700D01*
X200676177Y-85582386D01*
X200605640Y-85496436D01*
X200605640Y-84944785D01*
X200666494Y-84912257D01*
X200763185Y-84832905D01*
X200842537Y-84736214D01*
X200901502Y-84625900D01*
X200937812Y-84506202D01*
X200950072Y-84381720D01*
X200950072Y-83888693D01*
X201012000Y-83894792D01*
X201912000Y-83894792D01*
X202036482Y-83882532D01*
X202156180Y-83846222D01*
X202266494Y-83787257D01*
X202363185Y-83707905D01*
X202442537Y-83611214D01*
X202501502Y-83500900D01*
X202537812Y-83381202D01*
X202550072Y-83256720D01*
X202550072Y-82356720D01*
X202537812Y-82232238D01*
X202501502Y-82112540D01*
X202442537Y-82002226D01*
X202363185Y-81905535D01*
X202266494Y-81826183D01*
X202156180Y-81767218D01*
X202036482Y-81730908D01*
X201912000Y-81718648D01*
X201012000Y-81718648D01*
X200887518Y-81730908D01*
X200767820Y-81767218D01*
X200657506Y-81826183D01*
X200560815Y-81905535D01*
X200481463Y-82002226D01*
X200422498Y-82112540D01*
X200386188Y-82232238D01*
X200373928Y-82356720D01*
X200373928Y-82499747D01*
X200312000Y-82493648D01*
X199752230Y-82493648D01*
X199755837Y-82491238D01*
X199896518Y-82350557D01*
X200007050Y-82185134D01*
X200083186Y-82001326D01*
X200122000Y-81806196D01*
X200122000Y-81607244D01*
X200083186Y-81412114D01*
X200007050Y-81228306D01*
X199896518Y-81062883D01*
X199755837Y-80922202D01*
X199590414Y-80811670D01*
X199406606Y-80735534D01*
X199211476Y-80696720D01*
X199012524Y-80696720D01*
X198817394Y-80735534D01*
X198633586Y-80811670D01*
X198468163Y-80922202D01*
X198327482Y-81062883D01*
X198216950Y-81228306D01*
X198140814Y-81412114D01*
X198102000Y-81607244D01*
X197122000Y-81607244D01*
X197083186Y-81412114D01*
X197007050Y-81228306D01*
X196896518Y-81062883D01*
X196755837Y-80922202D01*
X196590414Y-80811670D01*
X196406606Y-80735534D01*
X196211476Y-80696720D01*
X196012524Y-80696720D01*
X195817394Y-80735534D01*
X195633586Y-80811670D01*
X195468163Y-80922202D01*
X195327482Y-81062883D01*
X195216950Y-81228306D01*
X195140814Y-81412114D01*
X195102000Y-81607244D01*
X195102000Y-81806196D01*
X195140814Y-82001326D01*
X195216950Y-82185134D01*
X195327482Y-82350557D01*
X195468163Y-82491238D01*
X195471770Y-82493648D01*
X194912000Y-82493648D01*
X194850072Y-82499747D01*
X194850072Y-82356720D01*
X194837812Y-82232238D01*
X194801502Y-82112540D01*
X194742537Y-82002226D01*
X194663185Y-81905535D01*
X194566494Y-81826183D01*
X194456180Y-81767218D01*
X194336482Y-81730908D01*
X194212000Y-81718648D01*
X193312000Y-81718648D01*
X193187518Y-81730908D01*
X193067820Y-81767218D01*
X192957506Y-81826183D01*
X192860815Y-81905535D01*
X192781463Y-82002226D01*
X192722498Y-82112540D01*
X192686188Y-82232238D01*
X192673928Y-82356720D01*
X192673928Y-83256720D01*
X192686188Y-83381202D01*
X192722498Y-83500900D01*
X192781463Y-83611214D01*
X192860815Y-83707905D01*
X192957506Y-83787257D01*
X193067820Y-83846222D01*
X193187518Y-83882532D01*
X193312000Y-83894792D01*
X194212000Y-83894792D01*
X194273928Y-83888693D01*
X194273928Y-84381720D01*
X194286188Y-84506202D01*
X194322498Y-84625900D01*
X194381463Y-84736214D01*
X194460815Y-84832905D01*
X194553415Y-84908900D01*
X193169954Y-84908900D01*
X193138745Y-84850513D01*
X193028302Y-84715938D01*
X192893727Y-84605495D01*
X192740191Y-84523428D01*
X192573595Y-84472892D01*
X192400341Y-84455828D01*
X192387069Y-84455828D01*
X192383064Y-84451823D01*
X192359261Y-84422819D01*
X192243536Y-84327846D01*
X192111507Y-84257274D01*
X191968246Y-84213817D01*
X191856593Y-84202820D01*
X191856582Y-84202820D01*
X191819260Y-84199144D01*
X191781938Y-84202820D01*
X187964460Y-84202820D01*
X187964460Y-83106674D01*
X188022847Y-83075465D01*
X188157422Y-82965022D01*
X188267865Y-82830447D01*
X188349932Y-82676911D01*
X188400468Y-82510315D01*
X188417532Y-82337061D01*
X188417532Y-81437059D01*
X188400468Y-81263805D01*
X188349932Y-81097209D01*
X188267865Y-80943673D01*
X188157422Y-80809098D01*
X188022847Y-80698655D01*
X187869311Y-80616588D01*
X187702715Y-80566052D01*
X187529461Y-80548988D01*
X186879459Y-80548988D01*
X186706205Y-80566052D01*
X186539609Y-80616588D01*
X186386073Y-80698655D01*
X186251498Y-80809098D01*
X186179460Y-80896876D01*
X186107422Y-80809098D01*
X185972847Y-80698655D01*
X185819311Y-80616588D01*
X185652715Y-80566052D01*
X185479461Y-80548988D01*
X184829459Y-80548988D01*
X184656205Y-80566052D01*
X184489609Y-80616588D01*
X184336073Y-80698655D01*
X184201498Y-80809098D01*
X184091055Y-80943673D01*
X184008988Y-81097209D01*
X183958452Y-81263805D01*
X183941388Y-81437059D01*
X183941388Y-82337061D01*
X183958452Y-82510315D01*
X184004524Y-82662195D01*
X183682142Y-82984576D01*
X183653139Y-83008379D01*
X183610775Y-83060000D01*
X183558166Y-83124104D01*
X183513286Y-83208068D01*
X183487594Y-83256134D01*
X183444137Y-83399395D01*
X183433140Y-83511048D01*
X183433140Y-83511058D01*
X183429464Y-83548380D01*
X183433140Y-83585702D01*
X183433140Y-83968352D01*
X183416955Y-83981635D01*
X183337603Y-84078326D01*
X183278638Y-84188640D01*
X183242328Y-84308338D01*
X183230068Y-84432820D01*
X183230068Y-85492820D01*
X183242328Y-85617302D01*
X183278638Y-85737000D01*
X183337603Y-85847314D01*
X183416955Y-85944005D01*
X183513646Y-86023357D01*
X183587475Y-86062820D01*
X183513646Y-86102283D01*
X183416955Y-86181635D01*
X183337603Y-86278326D01*
X183278638Y-86388640D01*
X183242328Y-86508338D01*
X183230068Y-86632820D01*
X183230068Y-87528961D01*
X181978315Y-87528961D01*
X181851844Y-87490597D01*
X181740191Y-87479600D01*
X181740180Y-87479600D01*
X181702858Y-87475924D01*
X181665536Y-87479600D01*
X175391081Y-87479600D01*
X175384539Y-87473058D01*
X175215021Y-87359790D01*
X175026663Y-87281769D01*
X174826704Y-87241995D01*
X174622826Y-87241995D01*
X174422867Y-87281769D01*
X174234509Y-87359790D01*
X174064991Y-87473058D01*
X173920828Y-87617221D01*
X173807560Y-87786739D01*
X173729539Y-87975097D01*
X173709655Y-88075064D01*
X172554438Y-89230281D01*
X172525440Y-89254079D01*
X172501642Y-89283077D01*
X172501641Y-89283078D01*
X172430466Y-89369804D01*
X172359894Y-89501834D01*
X172316438Y-89645095D01*
X172301764Y-89794080D01*
X172305441Y-89831412D01*
X172305440Y-91177995D01*
X172300361Y-91229563D01*
X172296684Y-91266896D01*
X172300361Y-91304228D01*
X172300360Y-97300557D01*
X172296684Y-97337880D01*
X172300360Y-97375202D01*
X172300360Y-97375212D01*
X172311357Y-97486865D01*
X172337827Y-97574126D01*
X172354814Y-97630126D01*
X172425386Y-97762156D01*
X172447892Y-97789579D01*
X172520359Y-97877881D01*
X172549363Y-97901684D01*
X174336186Y-99688508D01*
X174347137Y-99701852D01*
X174407579Y-99775501D01*
X174436583Y-99799304D01*
X184477277Y-109840000D01*
X182946884Y-109840000D01*
X182935997Y-109831065D01*
X182803968Y-109760493D01*
X182660707Y-109717036D01*
X182549054Y-109706039D01*
X182549043Y-109706039D01*
X182511721Y-109702363D01*
X182474399Y-109706039D01*
X176369750Y-109706039D01*
X176359774Y-109696063D01*
X176190256Y-109582795D01*
X176001898Y-109504774D01*
X175801939Y-109465000D01*
X175598061Y-109465000D01*
X175398102Y-109504774D01*
X175209744Y-109582795D01*
X175040226Y-109696063D01*
X174896063Y-109840226D01*
X174782795Y-110009744D01*
X174704774Y-110198102D01*
X174665000Y-110398061D01*
X174665000Y-110601939D01*
X174704774Y-110801898D01*
X174782795Y-110990256D01*
X174896063Y-111159774D01*
X175040226Y-111303937D01*
X175209744Y-111417205D01*
X175398102Y-111495226D01*
X175598061Y-111535000D01*
X175801939Y-111535000D01*
X176001898Y-111495226D01*
X176190256Y-111417205D01*
X176359774Y-111303937D01*
X176437672Y-111226039D01*
X182210519Y-111226039D01*
X182221406Y-111234974D01*
X182353435Y-111305546D01*
X182496696Y-111349003D01*
X182608349Y-111360000D01*
X182608359Y-111360000D01*
X182645681Y-111363676D01*
X182683004Y-111360000D01*
X184496289Y-111360000D01*
X184540226Y-111403937D01*
X184709744Y-111517205D01*
X184898102Y-111595226D01*
X185098061Y-111635000D01*
X185301939Y-111635000D01*
X185501898Y-111595226D01*
X185690256Y-111517205D01*
X185859774Y-111403937D01*
X185950494Y-111313217D01*
X186610365Y-111973088D01*
X186403240Y-111973088D01*
X186278758Y-111985348D01*
X186168240Y-112018873D01*
X186057722Y-111985348D01*
X185933240Y-111973088D01*
X185133240Y-111973088D01*
X185008758Y-111985348D01*
X184898240Y-112018873D01*
X184787722Y-111985348D01*
X184663240Y-111973088D01*
X183863240Y-111973088D01*
X183738758Y-111985348D01*
X183628240Y-112018873D01*
X183517722Y-111985348D01*
X183393240Y-111973088D01*
X182593240Y-111973088D01*
X182468758Y-111985348D01*
X182358240Y-112018873D01*
X182247722Y-111985348D01*
X182123240Y-111973088D01*
X181323240Y-111973088D01*
X181198758Y-111985348D01*
X181088240Y-112018873D01*
X180977722Y-111985348D01*
X180853240Y-111973088D01*
X180053240Y-111973088D01*
X179928758Y-111985348D01*
X179818240Y-112018873D01*
X179707722Y-111985348D01*
X179583240Y-111973088D01*
X178783240Y-111973088D01*
X178658758Y-111985348D01*
X178548240Y-112018873D01*
X178437722Y-111985348D01*
X178313240Y-111973088D01*
X177513240Y-111973088D01*
X177388758Y-111985348D01*
X177278240Y-112018873D01*
X177167722Y-111985348D01*
X177043240Y-111973088D01*
X176243240Y-111973088D01*
X176118758Y-111985348D01*
X176008240Y-112018873D01*
X175897722Y-111985348D01*
X175773240Y-111973088D01*
X174973240Y-111973088D01*
X174848758Y-111985348D01*
X174738240Y-112018873D01*
X174627722Y-111985348D01*
X174503240Y-111973088D01*
X173703240Y-111973088D01*
X173578758Y-111985348D01*
X173480560Y-112015136D01*
X173477420Y-112013458D01*
X173357722Y-111977148D01*
X173233240Y-111964888D01*
X172433240Y-111964888D01*
X172308758Y-111977148D01*
X172189060Y-112013458D01*
X172185920Y-112015136D01*
X172087722Y-111985348D01*
X171963240Y-111973088D01*
X171163240Y-111973088D01*
X171038758Y-111985348D01*
X170928240Y-112018873D01*
X170817722Y-111985348D01*
X170693240Y-111973088D01*
X169893240Y-111973088D01*
X169768758Y-111985348D01*
X169658240Y-112018873D01*
X169547722Y-111985348D01*
X169423240Y-111973088D01*
X168623240Y-111973088D01*
X168498758Y-111985348D01*
X168388240Y-112018873D01*
X168277722Y-111985348D01*
X168153240Y-111973088D01*
X167353240Y-111973088D01*
X167228758Y-111985348D01*
X167118240Y-112018873D01*
X167007722Y-111985348D01*
X166883240Y-111973088D01*
X166083240Y-111973088D01*
X165958758Y-111985348D01*
X165848240Y-112018873D01*
X165737722Y-111985348D01*
X165613240Y-111973088D01*
X164813240Y-111973088D01*
X164688758Y-111985348D01*
X164578240Y-112018873D01*
X164467722Y-111985348D01*
X164343240Y-111973088D01*
X163543240Y-111973088D01*
X163418758Y-111985348D01*
X163308240Y-112018873D01*
X163197722Y-111985348D01*
X163073240Y-111973088D01*
X162273240Y-111973088D01*
X162148758Y-111985348D01*
X162038240Y-112018873D01*
X161927722Y-111985348D01*
X161803240Y-111973088D01*
X161003240Y-111973088D01*
X160878758Y-111985348D01*
X160768240Y-112018873D01*
X160657722Y-111985348D01*
X160533240Y-111973088D01*
X159733240Y-111973088D01*
X159608758Y-111985348D01*
X159498240Y-112018873D01*
X159387722Y-111985348D01*
X159263240Y-111973088D01*
X158463240Y-111973088D01*
X158338758Y-111985348D01*
X158228240Y-112018873D01*
X158117722Y-111985348D01*
X157993240Y-111973088D01*
X157193240Y-111973088D01*
X157068758Y-111985348D01*
X156958240Y-112018873D01*
X156847722Y-111985348D01*
X156723240Y-111973088D01*
X155923240Y-111973088D01*
X155798758Y-111985348D01*
X155688240Y-112018873D01*
X155577722Y-111985348D01*
X155453240Y-111973088D01*
X154653240Y-111973088D01*
X154528758Y-111985348D01*
X154418240Y-112018873D01*
X154307722Y-111985348D01*
X154183240Y-111973088D01*
X153383240Y-111973088D01*
X153258758Y-111985348D01*
X153139060Y-112021658D01*
X153028746Y-112080623D01*
X152932055Y-112159975D01*
X152852703Y-112256666D01*
X152793738Y-112366980D01*
X152757428Y-112486678D01*
X152745168Y-112611160D01*
X152745168Y-113206834D01*
X152708964Y-113226186D01*
X152593239Y-113321159D01*
X152569436Y-113350163D01*
X152549779Y-113369820D01*
X152102951Y-113369820D01*
X152059014Y-113325883D01*
X151889496Y-113212615D01*
X151701138Y-113134594D01*
X151525536Y-113099665D01*
X153459022Y-111166180D01*
X154317569Y-111166180D01*
X154361506Y-111210117D01*
X154531024Y-111323385D01*
X154719382Y-111401406D01*
X154919341Y-111441180D01*
X155123219Y-111441180D01*
X155323178Y-111401406D01*
X155511536Y-111323385D01*
X155681054Y-111210117D01*
X155825217Y-111065954D01*
X155938485Y-110896436D01*
X156016506Y-110708078D01*
X156056280Y-110508119D01*
X156056280Y-110304241D01*
X156016506Y-110104282D01*
X155938485Y-109915924D01*
X155825217Y-109746406D01*
X155681054Y-109602243D01*
X155511536Y-109488975D01*
X155323178Y-109410954D01*
X155123219Y-109371180D01*
X154919341Y-109371180D01*
X154719382Y-109410954D01*
X154531024Y-109488975D01*
X154361506Y-109602243D01*
X154317569Y-109646180D01*
X153181545Y-109646180D01*
X153144220Y-109642504D01*
X153106895Y-109646180D01*
X153106887Y-109646180D01*
X152995234Y-109657177D01*
X152851973Y-109700634D01*
X152719944Y-109771206D01*
X152604219Y-109866179D01*
X152580421Y-109895177D01*
X149215284Y-113260315D01*
X149186280Y-113284118D01*
X149091307Y-113399843D01*
X149020735Y-113531872D01*
X148977278Y-113675133D01*
X148962604Y-113824119D01*
X148966282Y-113861462D01*
X148966281Y-116658798D01*
X148962605Y-116696121D01*
X148966281Y-116733443D01*
X148966281Y-116733453D01*
X148977278Y-116845106D01*
X149008529Y-116948127D01*
X149020735Y-116988367D01*
X149091307Y-117120397D01*
X149131152Y-117168947D01*
X149136029Y-117174891D01*
X149091280Y-117399860D01*
X149091280Y-117692380D01*
X149148348Y-117979278D01*
X149260290Y-118249531D01*
X149422805Y-118492752D01*
X149629648Y-118699595D01*
X149804040Y-118816120D01*
X149629648Y-118932645D01*
X149422805Y-119139488D01*
X149260290Y-119382709D01*
X149148348Y-119652962D01*
X149091280Y-119939860D01*
X149091280Y-120232380D01*
X149148348Y-120519278D01*
X149260290Y-120789531D01*
X149422805Y-121032752D01*
X149554660Y-121164607D01*
X149482100Y-121186618D01*
X149371786Y-121245583D01*
X149275095Y-121324935D01*
X149195743Y-121421626D01*
X149136778Y-121531940D01*
X149100468Y-121651638D01*
X149088208Y-121776120D01*
X149088208Y-123476120D01*
X149100468Y-123600602D01*
X149136778Y-123720300D01*
X149195743Y-123830614D01*
X149275095Y-123927305D01*
X149371786Y-124006657D01*
X149482100Y-124065622D01*
X149601798Y-124101932D01*
X149726280Y-124114192D01*
X149816281Y-124114192D01*
X149816281Y-124917968D01*
X149812604Y-124955300D01*
X149816281Y-124992633D01*
X149827278Y-125104286D01*
X149836377Y-125134283D01*
X149870734Y-125247546D01*
X149941306Y-125379576D01*
X150003300Y-125455115D01*
X150036280Y-125495301D01*
X150065278Y-125519099D01*
X151290101Y-126743923D01*
X151313899Y-126772921D01*
X151342897Y-126796719D01*
X151429624Y-126867894D01*
X151561653Y-126938466D01*
X151704914Y-126981923D01*
X151812429Y-126992512D01*
X151937405Y-127179552D01*
X152144248Y-127386395D01*
X152374134Y-127540000D01*
X147320000Y-127540000D01*
X147320000Y-103151160D01*
X149960168Y-103151160D01*
X149960168Y-108651160D01*
X149972428Y-108775642D01*
X150008738Y-108895340D01*
X150067703Y-109005654D01*
X150147055Y-109102345D01*
X150243746Y-109181697D01*
X150354060Y-109240662D01*
X150473758Y-109276972D01*
X150598240Y-109289232D01*
X151698240Y-109289232D01*
X151822722Y-109276972D01*
X151942420Y-109240662D01*
X152052734Y-109181697D01*
X152149425Y-109102345D01*
X152228777Y-109005654D01*
X152287742Y-108895340D01*
X152324052Y-108775642D01*
X152336312Y-108651160D01*
X152336312Y-107419825D01*
X163713240Y-107419825D01*
X163713240Y-107702495D01*
X163768387Y-107979734D01*
X163876560Y-108240887D01*
X164033603Y-108475919D01*
X164233481Y-108675797D01*
X164468513Y-108832840D01*
X164729666Y-108941013D01*
X165006905Y-108996160D01*
X165289575Y-108996160D01*
X165566814Y-108941013D01*
X165827967Y-108832840D01*
X166062999Y-108675797D01*
X166262877Y-108475919D01*
X166419920Y-108240887D01*
X166528093Y-107979734D01*
X166583240Y-107702495D01*
X166583240Y-107419825D01*
X166528093Y-107142586D01*
X166419920Y-106881433D01*
X166262877Y-106646401D01*
X166062999Y-106446523D01*
X165827967Y-106289480D01*
X165566814Y-106181307D01*
X165289575Y-106126160D01*
X165006905Y-106126160D01*
X164729666Y-106181307D01*
X164468513Y-106289480D01*
X164233481Y-106446523D01*
X164033603Y-106646401D01*
X163876560Y-106881433D01*
X163768387Y-107142586D01*
X163713240Y-107419825D01*
X152336312Y-107419825D01*
X152336312Y-103151160D01*
X152324052Y-103026678D01*
X152287742Y-102906980D01*
X152228777Y-102796666D01*
X152149425Y-102699975D01*
X152052734Y-102620623D01*
X151942420Y-102561658D01*
X151822722Y-102525348D01*
X151698240Y-102513088D01*
X150598240Y-102513088D01*
X150473758Y-102525348D01*
X150354060Y-102561658D01*
X150243746Y-102620623D01*
X150147055Y-102699975D01*
X150067703Y-102796666D01*
X150008738Y-102906980D01*
X149972428Y-103026678D01*
X149960168Y-103151160D01*
X147320000Y-103151160D01*
X147320000Y-85878203D01*
X151944780Y-85878203D01*
X151944780Y-86121477D01*
X151992240Y-86360076D01*
X152085337Y-86584832D01*
X152220493Y-86787107D01*
X152392513Y-86959127D01*
X152594788Y-87094283D01*
X152819544Y-87187380D01*
X153058143Y-87234840D01*
X153301417Y-87234840D01*
X153540016Y-87187380D01*
X153764772Y-87094283D01*
X153967047Y-86959127D01*
X154139067Y-86787107D01*
X154274223Y-86584832D01*
X154367320Y-86360076D01*
X154414780Y-86121477D01*
X154414780Y-85878203D01*
X154367320Y-85639604D01*
X154274223Y-85414848D01*
X154139067Y-85212573D01*
X153967047Y-85040553D01*
X153764772Y-84905397D01*
X153540016Y-84812300D01*
X153301417Y-84764840D01*
X153058143Y-84764840D01*
X152819544Y-84812300D01*
X152594788Y-84905397D01*
X152392513Y-85040553D01*
X152220493Y-85212573D01*
X152085337Y-85414848D01*
X151992240Y-85639604D01*
X151944780Y-85878203D01*
X147320000Y-85878203D01*
X147320000Y-82153740D01*
X162075000Y-82153740D01*
X162075000Y-82446260D01*
X162132068Y-82733158D01*
X162244010Y-83003411D01*
X162406525Y-83246632D01*
X162613368Y-83453475D01*
X162856589Y-83615990D01*
X163126842Y-83727932D01*
X163413740Y-83785000D01*
X163706260Y-83785000D01*
X163993158Y-83727932D01*
X164263411Y-83615990D01*
X164506632Y-83453475D01*
X164638487Y-83321620D01*
X164660498Y-83394180D01*
X164719463Y-83504494D01*
X164798815Y-83601185D01*
X164895506Y-83680537D01*
X165005820Y-83739502D01*
X165125518Y-83775812D01*
X165250000Y-83788072D01*
X166950000Y-83788072D01*
X167074482Y-83775812D01*
X167194180Y-83739502D01*
X167304494Y-83680537D01*
X167401185Y-83601185D01*
X167480537Y-83504494D01*
X167539502Y-83394180D01*
X167575812Y-83274482D01*
X167588072Y-83150000D01*
X167588072Y-83060000D01*
X169194364Y-83060000D01*
X171730468Y-85596106D01*
X171676514Y-85726362D01*
X171636740Y-85926321D01*
X171636740Y-86130199D01*
X171676514Y-86330158D01*
X171754535Y-86518516D01*
X171867803Y-86688034D01*
X172011966Y-86832197D01*
X172181484Y-86945465D01*
X172369842Y-87023486D01*
X172569801Y-87063260D01*
X172773679Y-87063260D01*
X172973638Y-87023486D01*
X173161996Y-86945465D01*
X173331514Y-86832197D01*
X173475677Y-86688034D01*
X173588945Y-86518516D01*
X173666966Y-86330158D01*
X173706740Y-86130199D01*
X173706740Y-85926321D01*
X173666966Y-85726362D01*
X173588945Y-85538004D01*
X173475677Y-85368486D01*
X173420727Y-85313536D01*
X173377286Y-85170328D01*
X173306714Y-85038299D01*
X173278606Y-85004049D01*
X173235539Y-84951571D01*
X173235535Y-84951567D01*
X173211741Y-84922574D01*
X173182748Y-84898780D01*
X170072969Y-81789003D01*
X170049166Y-81759999D01*
X169933441Y-81665026D01*
X169801412Y-81594454D01*
X169658151Y-81550997D01*
X169546498Y-81540000D01*
X169546487Y-81540000D01*
X169509165Y-81536324D01*
X169471843Y-81540000D01*
X167588072Y-81540000D01*
X167588072Y-81450000D01*
X167575812Y-81325518D01*
X167539502Y-81205820D01*
X167480537Y-81095506D01*
X167401185Y-80998815D01*
X167304494Y-80919463D01*
X167194180Y-80860498D01*
X167074482Y-80824188D01*
X166950000Y-80811928D01*
X165250000Y-80811928D01*
X165125518Y-80824188D01*
X165005820Y-80860498D01*
X164895506Y-80919463D01*
X164798815Y-80998815D01*
X164719463Y-81095506D01*
X164660498Y-81205820D01*
X164638487Y-81278380D01*
X164506632Y-81146525D01*
X164263411Y-80984010D01*
X163993158Y-80872068D01*
X163706260Y-80815000D01*
X163413740Y-80815000D01*
X163126842Y-80872068D01*
X162856589Y-80984010D01*
X162613368Y-81146525D01*
X162406525Y-81353368D01*
X162244010Y-81596589D01*
X162132068Y-81866842D01*
X162075000Y-82153740D01*
X147320000Y-82153740D01*
X147320000Y-78860000D01*
X152704386Y-78860000D01*
X152594788Y-78905397D01*
G37*
X152594788Y-78905397D02*
X152392513Y-79040553D01*
X152220493Y-79212573D01*
X152085337Y-79414848D01*
X151992240Y-79639604D01*
X151944780Y-79878203D01*
X151944780Y-80121477D01*
X151992240Y-80360076D01*
X152085337Y-80584832D01*
X152220493Y-80787107D01*
X152392513Y-80959127D01*
X152594788Y-81094283D01*
X152819544Y-81187380D01*
X153058143Y-81234840D01*
X153301417Y-81234840D01*
X153540016Y-81187380D01*
X153764772Y-81094283D01*
X153967047Y-80959127D01*
X154139067Y-80787107D01*
X154274223Y-80584832D01*
X154367320Y-80360076D01*
X154407769Y-80156720D01*
X192673928Y-80156720D01*
X192673928Y-81056720D01*
X192686188Y-81181202D01*
X192722498Y-81300900D01*
X192781463Y-81411214D01*
X192860815Y-81507905D01*
X192957506Y-81587257D01*
X193067820Y-81646222D01*
X193187518Y-81682532D01*
X193312000Y-81694792D01*
X194212000Y-81694792D01*
X194336482Y-81682532D01*
X194456180Y-81646222D01*
X194566494Y-81587257D01*
X194663185Y-81507905D01*
X194742537Y-81411214D01*
X194801502Y-81300900D01*
X194837812Y-81181202D01*
X194850072Y-81056720D01*
X194850072Y-80156720D01*
X200373928Y-80156720D01*
X200373928Y-81056720D01*
X200386188Y-81181202D01*
X200422498Y-81300900D01*
X200481463Y-81411214D01*
X200560815Y-81507905D01*
X200657506Y-81587257D01*
X200767820Y-81646222D01*
X200887518Y-81682532D01*
X201012000Y-81694792D01*
X201912000Y-81694792D01*
X202036482Y-81682532D01*
X202156180Y-81646222D01*
X202266494Y-81587257D01*
X202363185Y-81507905D01*
X202442537Y-81411214D01*
X202501502Y-81300900D01*
X202537812Y-81181202D01*
X202550072Y-81056720D01*
X202550072Y-80156720D01*
X202537812Y-80032238D01*
X202501502Y-79912540D01*
X202442537Y-79802226D01*
X202363185Y-79705535D01*
X202266494Y-79626183D01*
X202156180Y-79567218D01*
X202036482Y-79530908D01*
X201912000Y-79518648D01*
X201012000Y-79518648D01*
X200887518Y-79530908D01*
X200767820Y-79567218D01*
X200657506Y-79626183D01*
X200560815Y-79705535D01*
X200481463Y-79802226D01*
X200422498Y-79912540D01*
X200386188Y-80032238D01*
X200373928Y-80156720D01*
X194850072Y-80156720D01*
X194837812Y-80032238D01*
X194801502Y-79912540D01*
X194742537Y-79802226D01*
X194663185Y-79705535D01*
X194566494Y-79626183D01*
X194456180Y-79567218D01*
X194336482Y-79530908D01*
X194212000Y-79518648D01*
X193312000Y-79518648D01*
X193187518Y-79530908D01*
X193067820Y-79567218D01*
X192957506Y-79626183D01*
X192860815Y-79705535D01*
X192781463Y-79802226D01*
X192722498Y-79912540D01*
X192686188Y-80032238D01*
X192673928Y-80156720D01*
X154407769Y-80156720D01*
X154414780Y-80121477D01*
X154414780Y-79878203D01*
X154367320Y-79639604D01*
X154274223Y-79414848D01*
X154139067Y-79212573D01*
X153967047Y-79040553D01*
X153764772Y-78905397D01*
X153655174Y-78860000D01*
X209000000Y-78860000D01*
X209000001Y-127540000D01*
X205184882Y-127540000D01*
X205192065Y-127534105D01*
X205271417Y-127437414D01*
X205330382Y-127327100D01*
X205366692Y-127207402D01*
X205378952Y-127082920D01*
X205375880Y-126518670D01*
X205217130Y-126359920D01*
X204017880Y-126359920D01*
X204017880Y-126379920D01*
X203763880Y-126379920D01*
X203763880Y-126359920D01*
X203743880Y-126359920D01*
X203743880Y-126105920D01*
X203763880Y-126105920D01*
X203763880Y-124906670D01*
X204017880Y-124906670D01*
X204017880Y-126105920D01*
X205217130Y-126105920D01*
X205375880Y-125947170D01*
X205378952Y-125382920D01*
X205366692Y-125258438D01*
X205330382Y-125138740D01*
X205271417Y-125028426D01*
X205192065Y-124931735D01*
X205095374Y-124852383D01*
X204985060Y-124793418D01*
X204865362Y-124757108D01*
X204836384Y-124754254D01*
X206741381Y-124754254D01*
X206758054Y-124809244D01*
X206848377Y-125012586D01*
X206976635Y-125194400D01*
X207137899Y-125347698D01*
X207325971Y-125466590D01*
X207533624Y-125546506D01*
X207708500Y-125421509D01*
X207708500Y-124579380D01*
X207962500Y-124579380D01*
X207962500Y-125421509D01*
X208137376Y-125546506D01*
X208345029Y-125466590D01*
X208533101Y-125347698D01*
X208694365Y-125194400D01*
X208822623Y-125012586D01*
X208912946Y-124809244D01*
X208929619Y-124754254D01*
X208803454Y-124579380D01*
X207962500Y-124579380D01*
X207708500Y-124579380D01*
X206867546Y-124579380D01*
X206741381Y-124754254D01*
X204836384Y-124754254D01*
X204740880Y-124744848D01*
X204176630Y-124747920D01*
X204017880Y-124906670D01*
X203763880Y-124906670D01*
X203605130Y-124747920D01*
X203040880Y-124744848D01*
X202916398Y-124757108D01*
X202796700Y-124793418D01*
X202686386Y-124852383D01*
X202589695Y-124931735D01*
X202510343Y-125028426D01*
X202451378Y-125138740D01*
X202429367Y-125211300D01*
X202337294Y-125119227D01*
X204955603Y-122500918D01*
X204984601Y-122477120D01*
X205079574Y-122361395D01*
X205150146Y-122229366D01*
X205193603Y-122086105D01*
X205204600Y-121974452D01*
X205204600Y-121974444D01*
X205208276Y-121937119D01*
X205204600Y-121899794D01*
X205204600Y-112794843D01*
X205208276Y-112757518D01*
X205204600Y-112720193D01*
X205204600Y-112720185D01*
X205193603Y-112608532D01*
X205150146Y-112465271D01*
X205079574Y-112333242D01*
X204984601Y-112217517D01*
X204955604Y-112193720D01*
X203855946Y-111094063D01*
X203832143Y-111065059D01*
X203716418Y-110970086D01*
X203584389Y-110899514D01*
X203441128Y-110856057D01*
X203329475Y-110845060D01*
X203329464Y-110845060D01*
X203292142Y-110841384D01*
X203254820Y-110845060D01*
X194988315Y-110845060D01*
X195012260Y-110724679D01*
X195012260Y-110520801D01*
X194972486Y-110320842D01*
X194894465Y-110132484D01*
X194781197Y-109962966D01*
X194637034Y-109818803D01*
X194467516Y-109705535D01*
X194279158Y-109627514D01*
X194079199Y-109587740D01*
X193875321Y-109587740D01*
X193675362Y-109627514D01*
X193487004Y-109705535D01*
X193317486Y-109818803D01*
X193173323Y-109962966D01*
X193060055Y-110132484D01*
X192982034Y-110320842D01*
X192942260Y-110520801D01*
X192942260Y-110724679D01*
X192982034Y-110924638D01*
X193060055Y-111112996D01*
X193166819Y-111272780D01*
X192642238Y-111797361D01*
X192613240Y-111821159D01*
X192589443Y-111850156D01*
X192589441Y-111850158D01*
X192518266Y-111936884D01*
X192480552Y-112007441D01*
X192407722Y-111985348D01*
X192283240Y-111973088D01*
X191483240Y-111973088D01*
X191358758Y-111985348D01*
X191248240Y-112018873D01*
X191137722Y-111985348D01*
X191013240Y-111973088D01*
X190213240Y-111973088D01*
X190088758Y-111985348D01*
X189978240Y-112018873D01*
X189867722Y-111985348D01*
X189743240Y-111973088D01*
X188943240Y-111973088D01*
X188818758Y-111985348D01*
X188745928Y-112007441D01*
X188708214Y-111936884D01*
X188675733Y-111897306D01*
X188637039Y-111850156D01*
X188637035Y-111850152D01*
X188613241Y-111821159D01*
X188584250Y-111797367D01*
X184206708Y-107419825D01*
X189713240Y-107419825D01*
X189713240Y-107702495D01*
X189768387Y-107979734D01*
X189876560Y-108240887D01*
X190033603Y-108475919D01*
X190233481Y-108675797D01*
X190468513Y-108832840D01*
X190729666Y-108941013D01*
X191006905Y-108996160D01*
X191289575Y-108996160D01*
X191566814Y-108941013D01*
X191827967Y-108832840D01*
X192062999Y-108675797D01*
X192262877Y-108475919D01*
X192419920Y-108240887D01*
X192528093Y-107979734D01*
X192583240Y-107702495D01*
X192583240Y-107419825D01*
X192528093Y-107142586D01*
X192419920Y-106881433D01*
X192262877Y-106646401D01*
X192062999Y-106446523D01*
X191827967Y-106289480D01*
X191566814Y-106181307D01*
X191289575Y-106126160D01*
X191006905Y-106126160D01*
X190729666Y-106181307D01*
X190468513Y-106289480D01*
X190233481Y-106446523D01*
X190033603Y-106646401D01*
X189876560Y-106881433D01*
X189768387Y-107142586D01*
X189713240Y-107419825D01*
X184206708Y-107419825D01*
X175558983Y-98772102D01*
X175511379Y-98714097D01*
X175511378Y-98714096D01*
X175487581Y-98685099D01*
X175458583Y-98661301D01*
X173820360Y-97023079D01*
X173820360Y-92477817D01*
X173829413Y-92488848D01*
X174047920Y-92668172D01*
X174297213Y-92801422D01*
X174567712Y-92883476D01*
X174849020Y-92911183D01*
X175130329Y-92883476D01*
X175400828Y-92801422D01*
X175650121Y-92668172D01*
X175868628Y-92488848D01*
X176047952Y-92270341D01*
X176119020Y-92137382D01*
X176190088Y-92270341D01*
X176369413Y-92488848D01*
X176587920Y-92668172D01*
X176837213Y-92801422D01*
X176847036Y-92804402D01*
X176782823Y-92882646D01*
X176723858Y-92992960D01*
X176687548Y-93112658D01*
X176675288Y-93237140D01*
X176678360Y-93526390D01*
X176837110Y-93685140D01*
X177886360Y-93685140D01*
X177886360Y-93665140D01*
X178140360Y-93665140D01*
X178140360Y-93685140D01*
X178160360Y-93685140D01*
X178160360Y-93939140D01*
X178140360Y-93939140D01*
X178140360Y-93959140D01*
X177886360Y-93959140D01*
X177886360Y-93939140D01*
X176837110Y-93939140D01*
X176678360Y-94097890D01*
X176675288Y-94387140D01*
X176687548Y-94511622D01*
X176723858Y-94631320D01*
X176782823Y-94741634D01*
X176862175Y-94838325D01*
X176941954Y-94903798D01*
X176935398Y-94909178D01*
X176824955Y-95043753D01*
X176815383Y-95061661D01*
X176712916Y-94993195D01*
X176524558Y-94915174D01*
X176324599Y-94875400D01*
X176120721Y-94875400D01*
X175920762Y-94915174D01*
X175732404Y-94993195D01*
X175562886Y-95106463D01*
X175418723Y-95250626D01*
X175305455Y-95420144D01*
X175227434Y-95608502D01*
X175187660Y-95808461D01*
X175187660Y-96012339D01*
X175227434Y-96212298D01*
X175305455Y-96400656D01*
X175418723Y-96570174D01*
X175562886Y-96714337D01*
X175732404Y-96827605D01*
X175920762Y-96905626D01*
X176120721Y-96945400D01*
X176324599Y-96945400D01*
X176524558Y-96905626D01*
X176712916Y-96827605D01*
X176863232Y-96727167D01*
X176879981Y-96747576D01*
X176879980Y-97363968D01*
X176758368Y-97485580D01*
X176634156Y-97671476D01*
X176548597Y-97878033D01*
X176504980Y-98097312D01*
X176504980Y-98320888D01*
X176548597Y-98540167D01*
X176634156Y-98746724D01*
X176758368Y-98932620D01*
X176916460Y-99090712D01*
X177102356Y-99214924D01*
X177308913Y-99300483D01*
X177528192Y-99344100D01*
X177751768Y-99344100D01*
X177971047Y-99300483D01*
X178177604Y-99214924D01*
X178363500Y-99090712D01*
X178454632Y-98999580D01*
X178950413Y-98999580D01*
X178959468Y-99029431D01*
X179041535Y-99182967D01*
X179151978Y-99317542D01*
X179286553Y-99427985D01*
X179440089Y-99510052D01*
X179606685Y-99560588D01*
X179779939Y-99577652D01*
X180429941Y-99577652D01*
X180603195Y-99560588D01*
X180769791Y-99510052D01*
X180923327Y-99427985D01*
X181057902Y-99317542D01*
X181129940Y-99229764D01*
X181201978Y-99317542D01*
X181336553Y-99427985D01*
X181490089Y-99510052D01*
X181656685Y-99560588D01*
X181829939Y-99577652D01*
X182479941Y-99577652D01*
X182653195Y-99560588D01*
X182819791Y-99510052D01*
X182973327Y-99427985D01*
X183107902Y-99317542D01*
X183218345Y-99182967D01*
X183300412Y-99029431D01*
X183309467Y-98999580D01*
X183955607Y-98999580D01*
X184007361Y-99062643D01*
X184036365Y-99086446D01*
X187853405Y-102903488D01*
X187877199Y-102932481D01*
X187906192Y-102956275D01*
X187906196Y-102956279D01*
X187976885Y-103014291D01*
X187992924Y-103027454D01*
X188124953Y-103098026D01*
X188268214Y-103141483D01*
X188379867Y-103152480D01*
X188379876Y-103152480D01*
X188417199Y-103156156D01*
X188454522Y-103152480D01*
X195281058Y-103152480D01*
X195318380Y-103156156D01*
X195355702Y-103152480D01*
X195355713Y-103152480D01*
X195369115Y-103151160D01*
X203960168Y-103151160D01*
X203960168Y-108651160D01*
X203972428Y-108775642D01*
X204008738Y-108895340D01*
X204067703Y-109005654D01*
X204147055Y-109102345D01*
X204243746Y-109181697D01*
X204354060Y-109240662D01*
X204473758Y-109276972D01*
X204598240Y-109289232D01*
X205698240Y-109289232D01*
X205822722Y-109276972D01*
X205942420Y-109240662D01*
X206052734Y-109181697D01*
X206149425Y-109102345D01*
X206228777Y-109005654D01*
X206287742Y-108895340D01*
X206324052Y-108775642D01*
X206336312Y-108651160D01*
X206336312Y-103151160D01*
X206324052Y-103026678D01*
X206287742Y-102906980D01*
X206228777Y-102796666D01*
X206149425Y-102699975D01*
X206052734Y-102620623D01*
X205942420Y-102561658D01*
X205822722Y-102525348D01*
X205698240Y-102513088D01*
X204598240Y-102513088D01*
X204473758Y-102525348D01*
X204354060Y-102561658D01*
X204243746Y-102620623D01*
X204147055Y-102699975D01*
X204067703Y-102796666D01*
X204008738Y-102906980D01*
X203972428Y-103026678D01*
X203960168Y-103151160D01*
X195369115Y-103151160D01*
X195467366Y-103141483D01*
X195610627Y-103098026D01*
X195742656Y-103027454D01*
X195858381Y-102932481D01*
X195882184Y-102903477D01*
X199187744Y-99597919D01*
X206338498Y-99597919D01*
X206991681Y-100251103D01*
X206991680Y-122146138D01*
X206981006Y-122151843D01*
X206884315Y-122231195D01*
X206804963Y-122327886D01*
X206745998Y-122438200D01*
X206709688Y-122557898D01*
X206697428Y-122682380D01*
X206697428Y-123682380D01*
X206709688Y-123806862D01*
X206745998Y-123926560D01*
X206793570Y-124015560D01*
X206758054Y-124095516D01*
X206741381Y-124150506D01*
X206867546Y-124325380D01*
X207708500Y-124325380D01*
X207708500Y-124320452D01*
X207962500Y-124320452D01*
X207962500Y-124325380D01*
X208803454Y-124325380D01*
X208929619Y-124150506D01*
X208912946Y-124095516D01*
X208877430Y-124015560D01*
X208925002Y-123926560D01*
X208961312Y-123806862D01*
X208973572Y-123682380D01*
X208973572Y-122682380D01*
X208961312Y-122557898D01*
X208925002Y-122438200D01*
X208866037Y-122327886D01*
X208786685Y-122231195D01*
X208689994Y-122151843D01*
X208579680Y-122092878D01*
X208511680Y-122072250D01*
X208511680Y-99973622D01*
X208515356Y-99936299D01*
X208511680Y-99898976D01*
X208511680Y-99898967D01*
X208500683Y-99787314D01*
X208457226Y-99644053D01*
X208386654Y-99512024D01*
X208291681Y-99396299D01*
X208262683Y-99372501D01*
X207217103Y-98326921D01*
X207193300Y-98297918D01*
X207077575Y-98202945D01*
X206945546Y-98132373D01*
X206802285Y-98088916D01*
X206690632Y-98077919D01*
X206690621Y-98077919D01*
X206653299Y-98074243D01*
X206615977Y-98077919D01*
X198910263Y-98077919D01*
X198872940Y-98074243D01*
X198835617Y-98077919D01*
X198835608Y-98077919D01*
X198723955Y-98088916D01*
X198580694Y-98132373D01*
X198448665Y-98202945D01*
X198448663Y-98202946D01*
X198448664Y-98202946D01*
X198361937Y-98274120D01*
X198361933Y-98274124D01*
X198332940Y-98297918D01*
X198309146Y-98326911D01*
X195003579Y-101632480D01*
X188732003Y-101632480D01*
X185480632Y-98381111D01*
X185862283Y-97999460D01*
X188493908Y-97999460D01*
X188506168Y-98123942D01*
X188542478Y-98243640D01*
X188601443Y-98353954D01*
X188680795Y-98450645D01*
X188777486Y-98529997D01*
X188887800Y-98588962D01*
X189007498Y-98625272D01*
X189131980Y-98637532D01*
X189546230Y-98634460D01*
X189704980Y-98475710D01*
X189704980Y-97551460D01*
X189958980Y-97551460D01*
X189958980Y-98475710D01*
X190117730Y-98634460D01*
X190531980Y-98637532D01*
X190656462Y-98625272D01*
X190776160Y-98588962D01*
X190886474Y-98529997D01*
X190983165Y-98450645D01*
X191062517Y-98353954D01*
X191121482Y-98243640D01*
X191157792Y-98123942D01*
X191170052Y-97999460D01*
X191166980Y-97710210D01*
X191008230Y-97551460D01*
X189958980Y-97551460D01*
X189704980Y-97551460D01*
X188655730Y-97551460D01*
X188496980Y-97710210D01*
X188493908Y-97999460D01*
X185862283Y-97999460D01*
X188493908Y-95367837D01*
X188493908Y-95699461D01*
X188510972Y-95872715D01*
X188561508Y-96039311D01*
X188643575Y-96192847D01*
X188754018Y-96327422D01*
X188760574Y-96332802D01*
X188680795Y-96398275D01*
X188601443Y-96494966D01*
X188542478Y-96605280D01*
X188506168Y-96724978D01*
X188493908Y-96849460D01*
X188496980Y-97138710D01*
X188655730Y-97297460D01*
X189704980Y-97297460D01*
X189704980Y-97277460D01*
X189958980Y-97277460D01*
X189958980Y-97297460D01*
X191008230Y-97297460D01*
X191166980Y-97138710D01*
X191167552Y-97084834D01*
X191492381Y-97409663D01*
X191492380Y-98444906D01*
X191433993Y-98476115D01*
X191299418Y-98586558D01*
X191188975Y-98721133D01*
X191106908Y-98874669D01*
X191056372Y-99041265D01*
X191039308Y-99214519D01*
X191039308Y-100114521D01*
X191056372Y-100287775D01*
X191106908Y-100454371D01*
X191188975Y-100607907D01*
X191299418Y-100742482D01*
X191433993Y-100852925D01*
X191587529Y-100934992D01*
X191754125Y-100985528D01*
X191927379Y-101002592D01*
X192577381Y-101002592D01*
X192750635Y-100985528D01*
X192917231Y-100934992D01*
X193070767Y-100852925D01*
X193205342Y-100742482D01*
X193277380Y-100654704D01*
X193349418Y-100742482D01*
X193483993Y-100852925D01*
X193637529Y-100934992D01*
X193804125Y-100985528D01*
X193977379Y-101002592D01*
X194627381Y-101002592D01*
X194800635Y-100985528D01*
X194967231Y-100934992D01*
X195120767Y-100852925D01*
X195255342Y-100742482D01*
X195365785Y-100607907D01*
X195447852Y-100454371D01*
X195498388Y-100287775D01*
X195515452Y-100114521D01*
X195515452Y-99214519D01*
X195498388Y-99041265D01*
X195447852Y-98874669D01*
X195365785Y-98721133D01*
X195255342Y-98586558D01*
X195120767Y-98476115D01*
X195062380Y-98444906D01*
X195062380Y-96839462D01*
X195145129Y-96883692D01*
X195311725Y-96934228D01*
X195484979Y-96951292D01*
X196134981Y-96951292D01*
X196308235Y-96934228D01*
X196474831Y-96883692D01*
X196628367Y-96801625D01*
X196762942Y-96691182D01*
X196814689Y-96628128D01*
X196915701Y-96648220D01*
X197119579Y-96648220D01*
X197319538Y-96608446D01*
X197507896Y-96530425D01*
X197677414Y-96417157D01*
X197821577Y-96272994D01*
X197934845Y-96103476D01*
X198012866Y-95915118D01*
X198052640Y-95715159D01*
X198052640Y-95511281D01*
X198020283Y-95348612D01*
X198097039Y-95356172D01*
X198747041Y-95356172D01*
X198920295Y-95339108D01*
X199086891Y-95288572D01*
X199240427Y-95206505D01*
X199375002Y-95096062D01*
X199380382Y-95089506D01*
X199445855Y-95169285D01*
X199542546Y-95248637D01*
X199652860Y-95307602D01*
X199772558Y-95343912D01*
X199897040Y-95356172D01*
X200186290Y-95353100D01*
X200345040Y-95194350D01*
X200345040Y-94145100D01*
X200599040Y-94145100D01*
X200599040Y-95194350D01*
X200757790Y-95353100D01*
X201047040Y-95356172D01*
X201171522Y-95343912D01*
X201291220Y-95307602D01*
X201401534Y-95248637D01*
X201498225Y-95169285D01*
X201577577Y-95072594D01*
X201636542Y-94962280D01*
X201672852Y-94842582D01*
X201685112Y-94718100D01*
X201682040Y-94303850D01*
X201523290Y-94145100D01*
X200599040Y-94145100D01*
X200345040Y-94145100D01*
X200325040Y-94145100D01*
X200325040Y-93891100D01*
X200345040Y-93891100D01*
X200345040Y-92841850D01*
X200599040Y-92841850D01*
X200599040Y-93891100D01*
X201523290Y-93891100D01*
X201682040Y-93732350D01*
X201685112Y-93318100D01*
X201672852Y-93193618D01*
X201636542Y-93073920D01*
X201577577Y-92963606D01*
X201498225Y-92866915D01*
X201401534Y-92787563D01*
X201291220Y-92728598D01*
X201171522Y-92692288D01*
X201047040Y-92680028D01*
X200757790Y-92683100D01*
X200599040Y-92841850D01*
X200345040Y-92841850D01*
X200186290Y-92683100D01*
X199897040Y-92680028D01*
X199772558Y-92692288D01*
X199652860Y-92728598D01*
X199542546Y-92787563D01*
X199445855Y-92866915D01*
X199380382Y-92946694D01*
X199375002Y-92940138D01*
X199240427Y-92829695D01*
X199086891Y-92747628D01*
X198920295Y-92697092D01*
X198747041Y-92680028D01*
X198097039Y-92680028D01*
X198002968Y-92689293D01*
X198871323Y-91820939D01*
X198900321Y-91797141D01*
X198995294Y-91681416D01*
X199065866Y-91549387D01*
X199087517Y-91478011D01*
X199111505Y-91458325D01*
X199190857Y-91361634D01*
X199249822Y-91251320D01*
X199286132Y-91131622D01*
X199298392Y-91007140D01*
X199298392Y-90557140D01*
X199522248Y-90557140D01*
X199522248Y-91007140D01*
X199534508Y-91131622D01*
X199570818Y-91251320D01*
X199629783Y-91361634D01*
X199709135Y-91458325D01*
X199805826Y-91537677D01*
X199916140Y-91596642D01*
X200035838Y-91632952D01*
X200160320Y-91645212D01*
X200760320Y-91645212D01*
X200884802Y-91632952D01*
X201004500Y-91596642D01*
X201106464Y-91542140D01*
X203002624Y-91542140D01*
X203033160Y-91558462D01*
X203152858Y-91594772D01*
X203277340Y-91607032D01*
X204026976Y-91607032D01*
X204052311Y-91734397D01*
X204120909Y-91900007D01*
X204220497Y-92049051D01*
X204347249Y-92175803D01*
X204496293Y-92275391D01*
X204661903Y-92343989D01*
X204837713Y-92378960D01*
X205016967Y-92378960D01*
X205192777Y-92343989D01*
X205358387Y-92275391D01*
X205507431Y-92175803D01*
X205634183Y-92049051D01*
X205645250Y-92032487D01*
X205654666Y-92043960D01*
X205596803Y-92114466D01*
X205537838Y-92224780D01*
X205501528Y-92344478D01*
X205489268Y-92468960D01*
X205489268Y-94368960D01*
X205501528Y-94493442D01*
X205537838Y-94613140D01*
X205596803Y-94723454D01*
X205676155Y-94820145D01*
X205772846Y-94899497D01*
X205883160Y-94958462D01*
X206002858Y-94994772D01*
X206127340Y-95007032D01*
X208027340Y-95007032D01*
X208151822Y-94994772D01*
X208271520Y-94958462D01*
X208381834Y-94899497D01*
X208478525Y-94820145D01*
X208557877Y-94723454D01*
X208616842Y-94613140D01*
X208653152Y-94493442D01*
X208665412Y-94368960D01*
X208665412Y-92468960D01*
X208653152Y-92344478D01*
X208616842Y-92224780D01*
X208557877Y-92114466D01*
X208500014Y-92043960D01*
X208557877Y-91973454D01*
X208616842Y-91863140D01*
X208653152Y-91743442D01*
X208665412Y-91618960D01*
X208665412Y-89718960D01*
X208653152Y-89594478D01*
X208616842Y-89474780D01*
X208613731Y-89468960D01*
X208616842Y-89463140D01*
X208653152Y-89343442D01*
X208665412Y-89218960D01*
X208665412Y-87318960D01*
X208653152Y-87194478D01*
X208616842Y-87074780D01*
X208557877Y-86964466D01*
X208500014Y-86893960D01*
X208557877Y-86823454D01*
X208616842Y-86713140D01*
X208653152Y-86593442D01*
X208665412Y-86468960D01*
X208665412Y-84568960D01*
X208653152Y-84444478D01*
X208616842Y-84324780D01*
X208557877Y-84214466D01*
X208478525Y-84117775D01*
X208381834Y-84038423D01*
X208271520Y-83979458D01*
X208151822Y-83943148D01*
X208027340Y-83930888D01*
X206127340Y-83930888D01*
X206002858Y-83943148D01*
X205883160Y-83979458D01*
X205772846Y-84038423D01*
X205676155Y-84117775D01*
X205596803Y-84214466D01*
X205537838Y-84324780D01*
X205501528Y-84444478D01*
X205489268Y-84568960D01*
X205489268Y-86468960D01*
X205501528Y-86593442D01*
X205537838Y-86713140D01*
X205596803Y-86823454D01*
X205654666Y-86893960D01*
X205645250Y-86905433D01*
X205634183Y-86888869D01*
X205507431Y-86762117D01*
X205358387Y-86662529D01*
X205192777Y-86593931D01*
X205016967Y-86558960D01*
X204837713Y-86558960D01*
X204661903Y-86593931D01*
X204496293Y-86662529D01*
X204347249Y-86762117D01*
X204220497Y-86888869D01*
X204120909Y-87037913D01*
X204052311Y-87203523D01*
X204017340Y-87379333D01*
X204017340Y-87459710D01*
X203891590Y-87333960D01*
X203285659Y-87330942D01*
X203161028Y-87341579D01*
X203040867Y-87376325D01*
X202929793Y-87433846D01*
X202832076Y-87511931D01*
X202751469Y-87607579D01*
X202691072Y-87717115D01*
X202653205Y-87836330D01*
X202642340Y-87937210D01*
X202801090Y-88095960D01*
X202913662Y-88095960D01*
X202826155Y-88167775D01*
X202746803Y-88264466D01*
X202710308Y-88332742D01*
X202642340Y-88400710D01*
X202652200Y-88492262D01*
X202651528Y-88494478D01*
X202639268Y-88618960D01*
X202639268Y-89018960D01*
X202651528Y-89143442D01*
X202651685Y-89143960D01*
X202651528Y-89144478D01*
X202639268Y-89268960D01*
X202639268Y-89668960D01*
X202651528Y-89793442D01*
X202651685Y-89793960D01*
X202651528Y-89794478D01*
X202639268Y-89918960D01*
X202639268Y-90022140D01*
X201106464Y-90022140D01*
X201004500Y-89967638D01*
X200884802Y-89931328D01*
X200760320Y-89919068D01*
X200160320Y-89919068D01*
X200035838Y-89931328D01*
X199916140Y-89967638D01*
X199805826Y-90026603D01*
X199709135Y-90105955D01*
X199629783Y-90202646D01*
X199570818Y-90312960D01*
X199534508Y-90432658D01*
X199522248Y-90557140D01*
X199298392Y-90557140D01*
X199286132Y-90432658D01*
X199249822Y-90312960D01*
X199190857Y-90202646D01*
X199111505Y-90105955D01*
X199014814Y-90026603D01*
X198904500Y-89967638D01*
X198784802Y-89931328D01*
X198660320Y-89919068D01*
X198331817Y-89919068D01*
X198272665Y-89776264D01*
X198159397Y-89606746D01*
X198015234Y-89462583D01*
X197845716Y-89349315D01*
X197657358Y-89271294D01*
X197457399Y-89231520D01*
X197253521Y-89231520D01*
X197053562Y-89271294D01*
X196865204Y-89349315D01*
X196695686Y-89462583D01*
X196672467Y-89485802D01*
X196639180Y-89482524D01*
X196601858Y-89486200D01*
X196198622Y-89486200D01*
X196161299Y-89482524D01*
X196123976Y-89486200D01*
X196123967Y-89486200D01*
X196012314Y-89497197D01*
X195915061Y-89526698D01*
X195869053Y-89540654D01*
X195737023Y-89611226D01*
X195717441Y-89627297D01*
X195621299Y-89706199D01*
X195597496Y-89735203D01*
X195208738Y-90123961D01*
X195179740Y-90147759D01*
X195155942Y-90176757D01*
X195155941Y-90176758D01*
X195084766Y-90263484D01*
X195064134Y-90302083D01*
X195055490Y-90302760D01*
X194896740Y-90461510D01*
X194896740Y-90543619D01*
X194864203Y-90583266D01*
X194805238Y-90693580D01*
X194769740Y-90810601D01*
X194734242Y-90693580D01*
X194675277Y-90583266D01*
X194642740Y-90543619D01*
X194642740Y-90461510D01*
X194579740Y-90398510D01*
X194579740Y-88624861D01*
X195142262Y-88062340D01*
X197042858Y-88062340D01*
X197080180Y-88066016D01*
X197117502Y-88062340D01*
X197117513Y-88062340D01*
X197229166Y-88051343D01*
X197372427Y-88007886D01*
X197504456Y-87937314D01*
X197620181Y-87842341D01*
X197643983Y-87813338D01*
X198256644Y-87200678D01*
X198285641Y-87176881D01*
X198380614Y-87061156D01*
X198451186Y-86929127D01*
X198472837Y-86857751D01*
X198496825Y-86838065D01*
X198576177Y-86741374D01*
X198635142Y-86631060D01*
X198671452Y-86511362D01*
X198683712Y-86386880D01*
X198683712Y-85936880D01*
X198671452Y-85812398D01*
X198635142Y-85692700D01*
X198576177Y-85582386D01*
X198496825Y-85485695D01*
X198400134Y-85406343D01*
X198289820Y-85347378D01*
X198170122Y-85311068D01*
X198045640Y-85298808D01*
X197445640Y-85298808D01*
X197321158Y-85311068D01*
X197229715Y-85338807D01*
X197373004Y-85195518D01*
X197402001Y-85171721D01*
X197451173Y-85111805D01*
X197496974Y-85055997D01*
X197539599Y-84976252D01*
X197556180Y-84971222D01*
X197666494Y-84912257D01*
X197763185Y-84832905D01*
X197842537Y-84736214D01*
X197901502Y-84625900D01*
X197937812Y-84506202D01*
X197950072Y-84381720D01*
X197950072Y-83131720D01*
X197937812Y-83007238D01*
X197901502Y-82887540D01*
X197842537Y-82777226D01*
X197763185Y-82680535D01*
X197666494Y-82601183D01*
X197556180Y-82542218D01*
X197436482Y-82505908D01*
X197312000Y-82493648D01*
X196752230Y-82493648D01*
X196755837Y-82491238D01*
X196896518Y-82350557D01*
X197007050Y-82185134D01*
X197083186Y-82001326D01*
X197122000Y-81806196D01*
X197122000Y-81607244D01*
X198102000Y-81607244D01*
X198102000Y-81806196D01*
X198140814Y-82001326D01*
X198216950Y-82185134D01*
X198327482Y-82350557D01*
X198468163Y-82491238D01*
X198633586Y-82601770D01*
X198817394Y-82677906D01*
X198942543Y-82702800D01*
X198881463Y-82777226D01*
X198822498Y-82887540D01*
X198786188Y-83007238D01*
X198773928Y-83131720D01*
X198773928Y-84381720D01*
X198786188Y-84506202D01*
X198822498Y-84625900D01*
X198881463Y-84736214D01*
X198960815Y-84832905D01*
X199057506Y-84912257D01*
X199085641Y-84927295D01*
X199085640Y-85496436D01*
X199015103Y-85582386D01*
X198956138Y-85692700D01*
X198919828Y-85812398D01*
X198907568Y-85936880D01*
X198907568Y-86386880D01*
X198919828Y-86511362D01*
X198956138Y-86631060D01*
X199015103Y-86741374D01*
X199094455Y-86838065D01*
X199191146Y-86917417D01*
X199301460Y-86976382D01*
X199421158Y-87012692D01*
X199545640Y-87024952D01*
X200145640Y-87024952D01*
X200270122Y-87012692D01*
X200389820Y-86976382D01*
X200500134Y-86917417D01*
X200596825Y-86838065D01*
X200676177Y-86741374D01*
X200735142Y-86631060D01*
X200771452Y-86511362D01*
X200783712Y-86386880D01*
X200783712Y-85936880D01*
X200771452Y-85812398D01*
X200735142Y-85692700D01*
X200676177Y-85582386D01*
X200605640Y-85496436D01*
X200605640Y-84944785D01*
X200666494Y-84912257D01*
X200763185Y-84832905D01*
X200842537Y-84736214D01*
X200901502Y-84625900D01*
X200937812Y-84506202D01*
X200950072Y-84381720D01*
X200950072Y-83888693D01*
X201012000Y-83894792D01*
X201912000Y-83894792D01*
X202036482Y-83882532D01*
X202156180Y-83846222D01*
X202266494Y-83787257D01*
X202363185Y-83707905D01*
X202442537Y-83611214D01*
X202501502Y-83500900D01*
X202537812Y-83381202D01*
X202550072Y-83256720D01*
X202550072Y-82356720D01*
X202537812Y-82232238D01*
X202501502Y-82112540D01*
X202442537Y-82002226D01*
X202363185Y-81905535D01*
X202266494Y-81826183D01*
X202156180Y-81767218D01*
X202036482Y-81730908D01*
X201912000Y-81718648D01*
X201012000Y-81718648D01*
X200887518Y-81730908D01*
X200767820Y-81767218D01*
X200657506Y-81826183D01*
X200560815Y-81905535D01*
X200481463Y-82002226D01*
X200422498Y-82112540D01*
X200386188Y-82232238D01*
X200373928Y-82356720D01*
X200373928Y-82499747D01*
X200312000Y-82493648D01*
X199752230Y-82493648D01*
X199755837Y-82491238D01*
X199896518Y-82350557D01*
X200007050Y-82185134D01*
X200083186Y-82001326D01*
X200122000Y-81806196D01*
X200122000Y-81607244D01*
X200083186Y-81412114D01*
X200007050Y-81228306D01*
X199896518Y-81062883D01*
X199755837Y-80922202D01*
X199590414Y-80811670D01*
X199406606Y-80735534D01*
X199211476Y-80696720D01*
X199012524Y-80696720D01*
X198817394Y-80735534D01*
X198633586Y-80811670D01*
X198468163Y-80922202D01*
X198327482Y-81062883D01*
X198216950Y-81228306D01*
X198140814Y-81412114D01*
X198102000Y-81607244D01*
X197122000Y-81607244D01*
X197083186Y-81412114D01*
X197007050Y-81228306D01*
X196896518Y-81062883D01*
X196755837Y-80922202D01*
X196590414Y-80811670D01*
X196406606Y-80735534D01*
X196211476Y-80696720D01*
X196012524Y-80696720D01*
X195817394Y-80735534D01*
X195633586Y-80811670D01*
X195468163Y-80922202D01*
X195327482Y-81062883D01*
X195216950Y-81228306D01*
X195140814Y-81412114D01*
X195102000Y-81607244D01*
X195102000Y-81806196D01*
X195140814Y-82001326D01*
X195216950Y-82185134D01*
X195327482Y-82350557D01*
X195468163Y-82491238D01*
X195471770Y-82493648D01*
X194912000Y-82493648D01*
X194850072Y-82499747D01*
X194850072Y-82356720D01*
X194837812Y-82232238D01*
X194801502Y-82112540D01*
X194742537Y-82002226D01*
X194663185Y-81905535D01*
X194566494Y-81826183D01*
X194456180Y-81767218D01*
X194336482Y-81730908D01*
X194212000Y-81718648D01*
X193312000Y-81718648D01*
X193187518Y-81730908D01*
X193067820Y-81767218D01*
X192957506Y-81826183D01*
X192860815Y-81905535D01*
X192781463Y-82002226D01*
X192722498Y-82112540D01*
X192686188Y-82232238D01*
X192673928Y-82356720D01*
X192673928Y-83256720D01*
X192686188Y-83381202D01*
X192722498Y-83500900D01*
X192781463Y-83611214D01*
X192860815Y-83707905D01*
X192957506Y-83787257D01*
X193067820Y-83846222D01*
X193187518Y-83882532D01*
X193312000Y-83894792D01*
X194212000Y-83894792D01*
X194273928Y-83888693D01*
X194273928Y-84381720D01*
X194286188Y-84506202D01*
X194322498Y-84625900D01*
X194381463Y-84736214D01*
X194460815Y-84832905D01*
X194553415Y-84908900D01*
X193169954Y-84908900D01*
X193138745Y-84850513D01*
X193028302Y-84715938D01*
X192893727Y-84605495D01*
X192740191Y-84523428D01*
X192573595Y-84472892D01*
X192400341Y-84455828D01*
X192387069Y-84455828D01*
X192383064Y-84451823D01*
X192359261Y-84422819D01*
X192243536Y-84327846D01*
X192111507Y-84257274D01*
X191968246Y-84213817D01*
X191856593Y-84202820D01*
X191856582Y-84202820D01*
X191819260Y-84199144D01*
X191781938Y-84202820D01*
X187964460Y-84202820D01*
X187964460Y-83106674D01*
X188022847Y-83075465D01*
X188157422Y-82965022D01*
X188267865Y-82830447D01*
X188349932Y-82676911D01*
X188400468Y-82510315D01*
X188417532Y-82337061D01*
X188417532Y-81437059D01*
X188400468Y-81263805D01*
X188349932Y-81097209D01*
X188267865Y-80943673D01*
X188157422Y-80809098D01*
X188022847Y-80698655D01*
X187869311Y-80616588D01*
X187702715Y-80566052D01*
X187529461Y-80548988D01*
X186879459Y-80548988D01*
X186706205Y-80566052D01*
X186539609Y-80616588D01*
X186386073Y-80698655D01*
X186251498Y-80809098D01*
X186179460Y-80896876D01*
X186107422Y-80809098D01*
X185972847Y-80698655D01*
X185819311Y-80616588D01*
X185652715Y-80566052D01*
X185479461Y-80548988D01*
X184829459Y-80548988D01*
X184656205Y-80566052D01*
X184489609Y-80616588D01*
X184336073Y-80698655D01*
X184201498Y-80809098D01*
X184091055Y-80943673D01*
X184008988Y-81097209D01*
X183958452Y-81263805D01*
X183941388Y-81437059D01*
X183941388Y-82337061D01*
X183958452Y-82510315D01*
X184004524Y-82662195D01*
X183682142Y-82984576D01*
X183653139Y-83008379D01*
X183610775Y-83060000D01*
X183558166Y-83124104D01*
X183513286Y-83208068D01*
X183487594Y-83256134D01*
X183444137Y-83399395D01*
X183433140Y-83511048D01*
X183433140Y-83511058D01*
X183429464Y-83548380D01*
X183433140Y-83585702D01*
X183433140Y-83968352D01*
X183416955Y-83981635D01*
X183337603Y-84078326D01*
X183278638Y-84188640D01*
X183242328Y-84308338D01*
X183230068Y-84432820D01*
X183230068Y-85492820D01*
X183242328Y-85617302D01*
X183278638Y-85737000D01*
X183337603Y-85847314D01*
X183416955Y-85944005D01*
X183513646Y-86023357D01*
X183587475Y-86062820D01*
X183513646Y-86102283D01*
X183416955Y-86181635D01*
X183337603Y-86278326D01*
X183278638Y-86388640D01*
X183242328Y-86508338D01*
X183230068Y-86632820D01*
X183230068Y-87528961D01*
X181978315Y-87528961D01*
X181851844Y-87490597D01*
X181740191Y-87479600D01*
X181740180Y-87479600D01*
X181702858Y-87475924D01*
X181665536Y-87479600D01*
X175391081Y-87479600D01*
X175384539Y-87473058D01*
X175215021Y-87359790D01*
X175026663Y-87281769D01*
X174826704Y-87241995D01*
X174622826Y-87241995D01*
X174422867Y-87281769D01*
X174234509Y-87359790D01*
X174064991Y-87473058D01*
X173920828Y-87617221D01*
X173807560Y-87786739D01*
X173729539Y-87975097D01*
X173709655Y-88075064D01*
X172554438Y-89230281D01*
X172525440Y-89254079D01*
X172501642Y-89283077D01*
X172501641Y-89283078D01*
X172430466Y-89369804D01*
X172359894Y-89501834D01*
X172316438Y-89645095D01*
X172301764Y-89794080D01*
X172305441Y-89831412D01*
X172305440Y-91177995D01*
X172300361Y-91229563D01*
X172296684Y-91266896D01*
X172300361Y-91304228D01*
X172300360Y-97300557D01*
X172296684Y-97337880D01*
X172300360Y-97375202D01*
X172300360Y-97375212D01*
X172311357Y-97486865D01*
X172337827Y-97574126D01*
X172354814Y-97630126D01*
X172425386Y-97762156D01*
X172447892Y-97789579D01*
X172520359Y-97877881D01*
X172549363Y-97901684D01*
X174336186Y-99688508D01*
X174347137Y-99701852D01*
X174407579Y-99775501D01*
X174436583Y-99799304D01*
X184477277Y-109840000D01*
X182946884Y-109840000D01*
X182935997Y-109831065D01*
X182803968Y-109760493D01*
X182660707Y-109717036D01*
X182549054Y-109706039D01*
X182549043Y-109706039D01*
X182511721Y-109702363D01*
X182474399Y-109706039D01*
X176369750Y-109706039D01*
X176359774Y-109696063D01*
X176190256Y-109582795D01*
X176001898Y-109504774D01*
X175801939Y-109465000D01*
X175598061Y-109465000D01*
X175398102Y-109504774D01*
X175209744Y-109582795D01*
X175040226Y-109696063D01*
X174896063Y-109840226D01*
X174782795Y-110009744D01*
X174704774Y-110198102D01*
X174665000Y-110398061D01*
X174665000Y-110601939D01*
X174704774Y-110801898D01*
X174782795Y-110990256D01*
X174896063Y-111159774D01*
X175040226Y-111303937D01*
X175209744Y-111417205D01*
X175398102Y-111495226D01*
X175598061Y-111535000D01*
X175801939Y-111535000D01*
X176001898Y-111495226D01*
X176190256Y-111417205D01*
X176359774Y-111303937D01*
X176437672Y-111226039D01*
X182210519Y-111226039D01*
X182221406Y-111234974D01*
X182353435Y-111305546D01*
X182496696Y-111349003D01*
X182608349Y-111360000D01*
X182608359Y-111360000D01*
X182645681Y-111363676D01*
X182683004Y-111360000D01*
X184496289Y-111360000D01*
X184540226Y-111403937D01*
X184709744Y-111517205D01*
X184898102Y-111595226D01*
X185098061Y-111635000D01*
X185301939Y-111635000D01*
X185501898Y-111595226D01*
X185690256Y-111517205D01*
X185859774Y-111403937D01*
X185950494Y-111313217D01*
X186610365Y-111973088D01*
X186403240Y-111973088D01*
X186278758Y-111985348D01*
X186168240Y-112018873D01*
X186057722Y-111985348D01*
X185933240Y-111973088D01*
X185133240Y-111973088D01*
X185008758Y-111985348D01*
X184898240Y-112018873D01*
X184787722Y-111985348D01*
X184663240Y-111973088D01*
X183863240Y-111973088D01*
X183738758Y-111985348D01*
X183628240Y-112018873D01*
X183517722Y-111985348D01*
X183393240Y-111973088D01*
X182593240Y-111973088D01*
X182468758Y-111985348D01*
X182358240Y-112018873D01*
X182247722Y-111985348D01*
X182123240Y-111973088D01*
X181323240Y-111973088D01*
X181198758Y-111985348D01*
X181088240Y-112018873D01*
X180977722Y-111985348D01*
X180853240Y-111973088D01*
X180053240Y-111973088D01*
X179928758Y-111985348D01*
X179818240Y-112018873D01*
X179707722Y-111985348D01*
X179583240Y-111973088D01*
X178783240Y-111973088D01*
X178658758Y-111985348D01*
X178548240Y-112018873D01*
X178437722Y-111985348D01*
X178313240Y-111973088D01*
X177513240Y-111973088D01*
X177388758Y-111985348D01*
X177278240Y-112018873D01*
X177167722Y-111985348D01*
X177043240Y-111973088D01*
X176243240Y-111973088D01*
X176118758Y-111985348D01*
X176008240Y-112018873D01*
X175897722Y-111985348D01*
X175773240Y-111973088D01*
X174973240Y-111973088D01*
X174848758Y-111985348D01*
X174738240Y-112018873D01*
X174627722Y-111985348D01*
X174503240Y-111973088D01*
X173703240Y-111973088D01*
X173578758Y-111985348D01*
X173480560Y-112015136D01*
X173477420Y-112013458D01*
X173357722Y-111977148D01*
X173233240Y-111964888D01*
X172433240Y-111964888D01*
X172308758Y-111977148D01*
X172189060Y-112013458D01*
X172185920Y-112015136D01*
X172087722Y-111985348D01*
X171963240Y-111973088D01*
X171163240Y-111973088D01*
X171038758Y-111985348D01*
X170928240Y-112018873D01*
X170817722Y-111985348D01*
X170693240Y-111973088D01*
X169893240Y-111973088D01*
X169768758Y-111985348D01*
X169658240Y-112018873D01*
X169547722Y-111985348D01*
X169423240Y-111973088D01*
X168623240Y-111973088D01*
X168498758Y-111985348D01*
X168388240Y-112018873D01*
X168277722Y-111985348D01*
X168153240Y-111973088D01*
X167353240Y-111973088D01*
X167228758Y-111985348D01*
X167118240Y-112018873D01*
X167007722Y-111985348D01*
X166883240Y-111973088D01*
X166083240Y-111973088D01*
X165958758Y-111985348D01*
X165848240Y-112018873D01*
X165737722Y-111985348D01*
X165613240Y-111973088D01*
X164813240Y-111973088D01*
X164688758Y-111985348D01*
X164578240Y-112018873D01*
X164467722Y-111985348D01*
X164343240Y-111973088D01*
X163543240Y-111973088D01*
X163418758Y-111985348D01*
X163308240Y-112018873D01*
X163197722Y-111985348D01*
X163073240Y-111973088D01*
X162273240Y-111973088D01*
X162148758Y-111985348D01*
X162038240Y-112018873D01*
X161927722Y-111985348D01*
X161803240Y-111973088D01*
X161003240Y-111973088D01*
X160878758Y-111985348D01*
X160768240Y-112018873D01*
X160657722Y-111985348D01*
X160533240Y-111973088D01*
X159733240Y-111973088D01*
X159608758Y-111985348D01*
X159498240Y-112018873D01*
X159387722Y-111985348D01*
X159263240Y-111973088D01*
X158463240Y-111973088D01*
X158338758Y-111985348D01*
X158228240Y-112018873D01*
X158117722Y-111985348D01*
X157993240Y-111973088D01*
X157193240Y-111973088D01*
X157068758Y-111985348D01*
X156958240Y-112018873D01*
X156847722Y-111985348D01*
X156723240Y-111973088D01*
X155923240Y-111973088D01*
X155798758Y-111985348D01*
X155688240Y-112018873D01*
X155577722Y-111985348D01*
X155453240Y-111973088D01*
X154653240Y-111973088D01*
X154528758Y-111985348D01*
X154418240Y-112018873D01*
X154307722Y-111985348D01*
X154183240Y-111973088D01*
X153383240Y-111973088D01*
X153258758Y-111985348D01*
X153139060Y-112021658D01*
X153028746Y-112080623D01*
X152932055Y-112159975D01*
X152852703Y-112256666D01*
X152793738Y-112366980D01*
X152757428Y-112486678D01*
X152745168Y-112611160D01*
X152745168Y-113206834D01*
X152708964Y-113226186D01*
X152593239Y-113321159D01*
X152569436Y-113350163D01*
X152549779Y-113369820D01*
X152102951Y-113369820D01*
X152059014Y-113325883D01*
X151889496Y-113212615D01*
X151701138Y-113134594D01*
X151525536Y-113099665D01*
X153459022Y-111166180D01*
X154317569Y-111166180D01*
X154361506Y-111210117D01*
X154531024Y-111323385D01*
X154719382Y-111401406D01*
X154919341Y-111441180D01*
X155123219Y-111441180D01*
X155323178Y-111401406D01*
X155511536Y-111323385D01*
X155681054Y-111210117D01*
X155825217Y-111065954D01*
X155938485Y-110896436D01*
X156016506Y-110708078D01*
X156056280Y-110508119D01*
X156056280Y-110304241D01*
X156016506Y-110104282D01*
X155938485Y-109915924D01*
X155825217Y-109746406D01*
X155681054Y-109602243D01*
X155511536Y-109488975D01*
X155323178Y-109410954D01*
X155123219Y-109371180D01*
X154919341Y-109371180D01*
X154719382Y-109410954D01*
X154531024Y-109488975D01*
X154361506Y-109602243D01*
X154317569Y-109646180D01*
X153181545Y-109646180D01*
X153144220Y-109642504D01*
X153106895Y-109646180D01*
X153106887Y-109646180D01*
X152995234Y-109657177D01*
X152851973Y-109700634D01*
X152719944Y-109771206D01*
X152604219Y-109866179D01*
X152580421Y-109895177D01*
X149215284Y-113260315D01*
X149186280Y-113284118D01*
X149091307Y-113399843D01*
X149020735Y-113531872D01*
X148977278Y-113675133D01*
X148962604Y-113824119D01*
X148966282Y-113861462D01*
X148966281Y-116658798D01*
X148962605Y-116696121D01*
X148966281Y-116733443D01*
X148966281Y-116733453D01*
X148977278Y-116845106D01*
X149008529Y-116948127D01*
X149020735Y-116988367D01*
X149091307Y-117120397D01*
X149131152Y-117168947D01*
X149136029Y-117174891D01*
X149091280Y-117399860D01*
X149091280Y-117692380D01*
X149148348Y-117979278D01*
X149260290Y-118249531D01*
X149422805Y-118492752D01*
X149629648Y-118699595D01*
X149804040Y-118816120D01*
X149629648Y-118932645D01*
X149422805Y-119139488D01*
X149260290Y-119382709D01*
X149148348Y-119652962D01*
X149091280Y-119939860D01*
X149091280Y-120232380D01*
X149148348Y-120519278D01*
X149260290Y-120789531D01*
X149422805Y-121032752D01*
X149554660Y-121164607D01*
X149482100Y-121186618D01*
X149371786Y-121245583D01*
X149275095Y-121324935D01*
X149195743Y-121421626D01*
X149136778Y-121531940D01*
X149100468Y-121651638D01*
X149088208Y-121776120D01*
X149088208Y-123476120D01*
X149100468Y-123600602D01*
X149136778Y-123720300D01*
X149195743Y-123830614D01*
X149275095Y-123927305D01*
X149371786Y-124006657D01*
X149482100Y-124065622D01*
X149601798Y-124101932D01*
X149726280Y-124114192D01*
X149816281Y-124114192D01*
X149816281Y-124917968D01*
X149812604Y-124955300D01*
X149816281Y-124992633D01*
X149827278Y-125104286D01*
X149836377Y-125134283D01*
X149870734Y-125247546D01*
X149941306Y-125379576D01*
X150003300Y-125455115D01*
X150036280Y-125495301D01*
X150065278Y-125519099D01*
X151290101Y-126743923D01*
X151313899Y-126772921D01*
X151342897Y-126796719D01*
X151429624Y-126867894D01*
X151561653Y-126938466D01*
X151704914Y-126981923D01*
X151812429Y-126992512D01*
X151937405Y-127179552D01*
X152144248Y-127386395D01*
X152374134Y-127540000D01*
X147320000Y-127540000D01*
X147320000Y-103151160D01*
X149960168Y-103151160D01*
X149960168Y-108651160D01*
X149972428Y-108775642D01*
X150008738Y-108895340D01*
X150067703Y-109005654D01*
X150147055Y-109102345D01*
X150243746Y-109181697D01*
X150354060Y-109240662D01*
X150473758Y-109276972D01*
X150598240Y-109289232D01*
X151698240Y-109289232D01*
X151822722Y-109276972D01*
X151942420Y-109240662D01*
X152052734Y-109181697D01*
X152149425Y-109102345D01*
X152228777Y-109005654D01*
X152287742Y-108895340D01*
X152324052Y-108775642D01*
X152336312Y-108651160D01*
X152336312Y-107419825D01*
X163713240Y-107419825D01*
X163713240Y-107702495D01*
X163768387Y-107979734D01*
X163876560Y-108240887D01*
X164033603Y-108475919D01*
X164233481Y-108675797D01*
X164468513Y-108832840D01*
X164729666Y-108941013D01*
X165006905Y-108996160D01*
X165289575Y-108996160D01*
X165566814Y-108941013D01*
X165827967Y-108832840D01*
X166062999Y-108675797D01*
X166262877Y-108475919D01*
X166419920Y-108240887D01*
X166528093Y-107979734D01*
X166583240Y-107702495D01*
X166583240Y-107419825D01*
X166528093Y-107142586D01*
X166419920Y-106881433D01*
X166262877Y-106646401D01*
X166062999Y-106446523D01*
X165827967Y-106289480D01*
X165566814Y-106181307D01*
X165289575Y-106126160D01*
X165006905Y-106126160D01*
X164729666Y-106181307D01*
X164468513Y-106289480D01*
X164233481Y-106446523D01*
X164033603Y-106646401D01*
X163876560Y-106881433D01*
X163768387Y-107142586D01*
X163713240Y-107419825D01*
X152336312Y-107419825D01*
X152336312Y-103151160D01*
X152324052Y-103026678D01*
X152287742Y-102906980D01*
X152228777Y-102796666D01*
X152149425Y-102699975D01*
X152052734Y-102620623D01*
X151942420Y-102561658D01*
X151822722Y-102525348D01*
X151698240Y-102513088D01*
X150598240Y-102513088D01*
X150473758Y-102525348D01*
X150354060Y-102561658D01*
X150243746Y-102620623D01*
X150147055Y-102699975D01*
X150067703Y-102796666D01*
X150008738Y-102906980D01*
X149972428Y-103026678D01*
X149960168Y-103151160D01*
X147320000Y-103151160D01*
X147320000Y-85878203D01*
X151944780Y-85878203D01*
X151944780Y-86121477D01*
X151992240Y-86360076D01*
X152085337Y-86584832D01*
X152220493Y-86787107D01*
X152392513Y-86959127D01*
X152594788Y-87094283D01*
X152819544Y-87187380D01*
X153058143Y-87234840D01*
X153301417Y-87234840D01*
X153540016Y-87187380D01*
X153764772Y-87094283D01*
X153967047Y-86959127D01*
X154139067Y-86787107D01*
X154274223Y-86584832D01*
X154367320Y-86360076D01*
X154414780Y-86121477D01*
X154414780Y-85878203D01*
X154367320Y-85639604D01*
X154274223Y-85414848D01*
X154139067Y-85212573D01*
X153967047Y-85040553D01*
X153764772Y-84905397D01*
X153540016Y-84812300D01*
X153301417Y-84764840D01*
X153058143Y-84764840D01*
X152819544Y-84812300D01*
X152594788Y-84905397D01*
X152392513Y-85040553D01*
X152220493Y-85212573D01*
X152085337Y-85414848D01*
X151992240Y-85639604D01*
X151944780Y-85878203D01*
X147320000Y-85878203D01*
X147320000Y-82153740D01*
X162075000Y-82153740D01*
X162075000Y-82446260D01*
X162132068Y-82733158D01*
X162244010Y-83003411D01*
X162406525Y-83246632D01*
X162613368Y-83453475D01*
X162856589Y-83615990D01*
X163126842Y-83727932D01*
X163413740Y-83785000D01*
X163706260Y-83785000D01*
X163993158Y-83727932D01*
X164263411Y-83615990D01*
X164506632Y-83453475D01*
X164638487Y-83321620D01*
X164660498Y-83394180D01*
X164719463Y-83504494D01*
X164798815Y-83601185D01*
X164895506Y-83680537D01*
X165005820Y-83739502D01*
X165125518Y-83775812D01*
X165250000Y-83788072D01*
X166950000Y-83788072D01*
X167074482Y-83775812D01*
X167194180Y-83739502D01*
X167304494Y-83680537D01*
X167401185Y-83601185D01*
X167480537Y-83504494D01*
X167539502Y-83394180D01*
X167575812Y-83274482D01*
X167588072Y-83150000D01*
X167588072Y-83060000D01*
X169194364Y-83060000D01*
X171730468Y-85596106D01*
X171676514Y-85726362D01*
X171636740Y-85926321D01*
X171636740Y-86130199D01*
X171676514Y-86330158D01*
X171754535Y-86518516D01*
X171867803Y-86688034D01*
X172011966Y-86832197D01*
X172181484Y-86945465D01*
X172369842Y-87023486D01*
X172569801Y-87063260D01*
X172773679Y-87063260D01*
X172973638Y-87023486D01*
X173161996Y-86945465D01*
X173331514Y-86832197D01*
X173475677Y-86688034D01*
X173588945Y-86518516D01*
X173666966Y-86330158D01*
X173706740Y-86130199D01*
X173706740Y-85926321D01*
X173666966Y-85726362D01*
X173588945Y-85538004D01*
X173475677Y-85368486D01*
X173420727Y-85313536D01*
X173377286Y-85170328D01*
X173306714Y-85038299D01*
X173278606Y-85004049D01*
X173235539Y-84951571D01*
X173235535Y-84951567D01*
X173211741Y-84922574D01*
X173182748Y-84898780D01*
X170072969Y-81789003D01*
X170049166Y-81759999D01*
X169933441Y-81665026D01*
X169801412Y-81594454D01*
X169658151Y-81550997D01*
X169546498Y-81540000D01*
X169546487Y-81540000D01*
X169509165Y-81536324D01*
X169471843Y-81540000D01*
X167588072Y-81540000D01*
X167588072Y-81450000D01*
X167575812Y-81325518D01*
X167539502Y-81205820D01*
X167480537Y-81095506D01*
X167401185Y-80998815D01*
X167304494Y-80919463D01*
X167194180Y-80860498D01*
X167074482Y-80824188D01*
X166950000Y-80811928D01*
X165250000Y-80811928D01*
X165125518Y-80824188D01*
X165005820Y-80860498D01*
X164895506Y-80919463D01*
X164798815Y-80998815D01*
X164719463Y-81095506D01*
X164660498Y-81205820D01*
X164638487Y-81278380D01*
X164506632Y-81146525D01*
X164263411Y-80984010D01*
X163993158Y-80872068D01*
X163706260Y-80815000D01*
X163413740Y-80815000D01*
X163126842Y-80872068D01*
X162856589Y-80984010D01*
X162613368Y-81146525D01*
X162406525Y-81353368D01*
X162244010Y-81596589D01*
X162132068Y-81866842D01*
X162075000Y-82153740D01*
X147320000Y-82153740D01*
X147320000Y-78860000D01*
X152704386Y-78860000D01*
X152594788Y-78905397D01*
G36*
X197090240Y-113734160D02*
G01*
X198106240Y-113734160D01*
X198106240Y-113714160D01*
X198360240Y-113714160D01*
X198360240Y-113734160D01*
X199376240Y-113734160D01*
X199376240Y-113714160D01*
X199630240Y-113714160D01*
X199630240Y-113734160D01*
X200646240Y-113734160D01*
X200646240Y-113714160D01*
X200900240Y-113714160D01*
X200900240Y-113734160D01*
X201916240Y-113734160D01*
X201916240Y-113714160D01*
X202170240Y-113714160D01*
X202170240Y-113734160D01*
X203186240Y-113734160D01*
X203186240Y-113714160D01*
X203440240Y-113714160D01*
X203440240Y-113734160D01*
X203460240Y-113734160D01*
X203460240Y-113988160D01*
X203440240Y-113988160D01*
X203440240Y-115587410D01*
X203598990Y-115746160D01*
X203684600Y-115748462D01*
X203684601Y-121622316D01*
X200839883Y-124467035D01*
X200810879Y-124490838D01*
X200777900Y-124531024D01*
X200715906Y-124606563D01*
X200701284Y-124633919D01*
X200645334Y-124738593D01*
X200601877Y-124881854D01*
X200594967Y-124952011D01*
X200404248Y-125079445D01*
X200332880Y-125150813D01*
X200332880Y-123835718D01*
X200519512Y-123711015D01*
X200726355Y-123504172D01*
X200888870Y-123260951D01*
X201000812Y-122990698D01*
X201057880Y-122703800D01*
X201057880Y-122411280D01*
X201000812Y-122124382D01*
X200888870Y-121854129D01*
X200726355Y-121610908D01*
X200519512Y-121404065D01*
X200345120Y-121287540D01*
X200519512Y-121171015D01*
X200726355Y-120964172D01*
X200888870Y-120720951D01*
X201000812Y-120450698D01*
X201057880Y-120163800D01*
X201057880Y-119871280D01*
X201000812Y-119584382D01*
X200888870Y-119314129D01*
X200726355Y-119070908D01*
X200594500Y-118939053D01*
X200667060Y-118917042D01*
X200777374Y-118858077D01*
X200874065Y-118778725D01*
X200953417Y-118682034D01*
X201012382Y-118571720D01*
X201048692Y-118452022D01*
X201060952Y-118327540D01*
X201060952Y-116627540D01*
X201048692Y-116503058D01*
X201012382Y-116383360D01*
X200953417Y-116273046D01*
X200874065Y-116176355D01*
X200777374Y-116097003D01*
X200667060Y-116038038D01*
X200547362Y-116001728D01*
X200422880Y-115989468D01*
X198722880Y-115989468D01*
X198598398Y-116001728D01*
X198478700Y-116038038D01*
X198368386Y-116097003D01*
X198271695Y-116176355D01*
X198192343Y-116273046D01*
X198133378Y-116383360D01*
X198097068Y-116503058D01*
X198084808Y-116627540D01*
X198084808Y-118327540D01*
X198097068Y-118452022D01*
X198133378Y-118571720D01*
X198192343Y-118682034D01*
X198271695Y-118778725D01*
X198368386Y-118858077D01*
X198478700Y-118917042D01*
X198551260Y-118939053D01*
X198419405Y-119070908D01*
X198294702Y-119257540D01*
X197723602Y-119257540D01*
X196764180Y-118298119D01*
X196764180Y-115693023D01*
X196767846Y-115655804D01*
X196836240Y-115587410D01*
X196836240Y-113988160D01*
X197090240Y-113988160D01*
X197090240Y-115587410D01*
X197248990Y-115746160D01*
X197363240Y-115749232D01*
X197487722Y-115736972D01*
X197598240Y-115703447D01*
X197708758Y-115736972D01*
X197833240Y-115749232D01*
X197947490Y-115746160D01*
X198106240Y-115587410D01*
X198106240Y-113988160D01*
X198360240Y-113988160D01*
X198360240Y-115587410D01*
X198518990Y-115746160D01*
X198633240Y-115749232D01*
X198757722Y-115736972D01*
X198868240Y-115703447D01*
X198978758Y-115736972D01*
X199103240Y-115749232D01*
X199217490Y-115746160D01*
X199376240Y-115587410D01*
X199376240Y-113988160D01*
X199630240Y-113988160D01*
X199630240Y-115587410D01*
X199788990Y-115746160D01*
X199903240Y-115749232D01*
X200027722Y-115736972D01*
X200138240Y-115703447D01*
X200248758Y-115736972D01*
X200373240Y-115749232D01*
X200487490Y-115746160D01*
X200646240Y-115587410D01*
X200646240Y-113988160D01*
X200900240Y-113988160D01*
X200900240Y-115587410D01*
X201058990Y-115746160D01*
X201173240Y-115749232D01*
X201297722Y-115736972D01*
X201408240Y-115703447D01*
X201518758Y-115736972D01*
X201643240Y-115749232D01*
X201757490Y-115746160D01*
X201916240Y-115587410D01*
X201916240Y-113988160D01*
X202170240Y-113988160D01*
X202170240Y-115587410D01*
X202328990Y-115746160D01*
X202443240Y-115749232D01*
X202567722Y-115736972D01*
X202678240Y-115703447D01*
X202788758Y-115736972D01*
X202913240Y-115749232D01*
X203027490Y-115746160D01*
X203186240Y-115587410D01*
X203186240Y-113988160D01*
X202170240Y-113988160D01*
X201916240Y-113988160D01*
X200900240Y-113988160D01*
X200646240Y-113988160D01*
X199630240Y-113988160D01*
X199376240Y-113988160D01*
X198360240Y-113988160D01*
X198106240Y-113988160D01*
X197090240Y-113988160D01*
X196836240Y-113988160D01*
X196816240Y-113988160D01*
X196816240Y-113734160D01*
X196836240Y-113734160D01*
X196836240Y-113714160D01*
X197090240Y-113714160D01*
X197090240Y-113734160D01*
G37*
X197090240Y-113734160D02*
X198106240Y-113734160D01*
X198106240Y-113714160D01*
X198360240Y-113714160D01*
X198360240Y-113734160D01*
X199376240Y-113734160D01*
X199376240Y-113714160D01*
X199630240Y-113714160D01*
X199630240Y-113734160D01*
X200646240Y-113734160D01*
X200646240Y-113714160D01*
X200900240Y-113714160D01*
X200900240Y-113734160D01*
X201916240Y-113734160D01*
X201916240Y-113714160D01*
X202170240Y-113714160D01*
X202170240Y-113734160D01*
X203186240Y-113734160D01*
X203186240Y-113714160D01*
X203440240Y-113714160D01*
X203440240Y-113734160D01*
X203460240Y-113734160D01*
X203460240Y-113988160D01*
X203440240Y-113988160D01*
X203440240Y-115587410D01*
X203598990Y-115746160D01*
X203684600Y-115748462D01*
X203684601Y-121622316D01*
X200839883Y-124467035D01*
X200810879Y-124490838D01*
X200777900Y-124531024D01*
X200715906Y-124606563D01*
X200701284Y-124633919D01*
X200645334Y-124738593D01*
X200601877Y-124881854D01*
X200594967Y-124952011D01*
X200404248Y-125079445D01*
X200332880Y-125150813D01*
X200332880Y-123835718D01*
X200519512Y-123711015D01*
X200726355Y-123504172D01*
X200888870Y-123260951D01*
X201000812Y-122990698D01*
X201057880Y-122703800D01*
X201057880Y-122411280D01*
X201000812Y-122124382D01*
X200888870Y-121854129D01*
X200726355Y-121610908D01*
X200519512Y-121404065D01*
X200345120Y-121287540D01*
X200519512Y-121171015D01*
X200726355Y-120964172D01*
X200888870Y-120720951D01*
X201000812Y-120450698D01*
X201057880Y-120163800D01*
X201057880Y-119871280D01*
X201000812Y-119584382D01*
X200888870Y-119314129D01*
X200726355Y-119070908D01*
X200594500Y-118939053D01*
X200667060Y-118917042D01*
X200777374Y-118858077D01*
X200874065Y-118778725D01*
X200953417Y-118682034D01*
X201012382Y-118571720D01*
X201048692Y-118452022D01*
X201060952Y-118327540D01*
X201060952Y-116627540D01*
X201048692Y-116503058D01*
X201012382Y-116383360D01*
X200953417Y-116273046D01*
X200874065Y-116176355D01*
X200777374Y-116097003D01*
X200667060Y-116038038D01*
X200547362Y-116001728D01*
X200422880Y-115989468D01*
X198722880Y-115989468D01*
X198598398Y-116001728D01*
X198478700Y-116038038D01*
X198368386Y-116097003D01*
X198271695Y-116176355D01*
X198192343Y-116273046D01*
X198133378Y-116383360D01*
X198097068Y-116503058D01*
X198084808Y-116627540D01*
X198084808Y-118327540D01*
X198097068Y-118452022D01*
X198133378Y-118571720D01*
X198192343Y-118682034D01*
X198271695Y-118778725D01*
X198368386Y-118858077D01*
X198478700Y-118917042D01*
X198551260Y-118939053D01*
X198419405Y-119070908D01*
X198294702Y-119257540D01*
X197723602Y-119257540D01*
X196764180Y-118298119D01*
X196764180Y-115693023D01*
X196767846Y-115655804D01*
X196836240Y-115587410D01*
X196836240Y-113988160D01*
X197090240Y-113988160D01*
X197090240Y-115587410D01*
X197248990Y-115746160D01*
X197363240Y-115749232D01*
X197487722Y-115736972D01*
X197598240Y-115703447D01*
X197708758Y-115736972D01*
X197833240Y-115749232D01*
X197947490Y-115746160D01*
X198106240Y-115587410D01*
X198106240Y-113988160D01*
X198360240Y-113988160D01*
X198360240Y-115587410D01*
X198518990Y-115746160D01*
X198633240Y-115749232D01*
X198757722Y-115736972D01*
X198868240Y-115703447D01*
X198978758Y-115736972D01*
X199103240Y-115749232D01*
X199217490Y-115746160D01*
X199376240Y-115587410D01*
X199376240Y-113988160D01*
X199630240Y-113988160D01*
X199630240Y-115587410D01*
X199788990Y-115746160D01*
X199903240Y-115749232D01*
X200027722Y-115736972D01*
X200138240Y-115703447D01*
X200248758Y-115736972D01*
X200373240Y-115749232D01*
X200487490Y-115746160D01*
X200646240Y-115587410D01*
X200646240Y-113988160D01*
X200900240Y-113988160D01*
X200900240Y-115587410D01*
X201058990Y-115746160D01*
X201173240Y-115749232D01*
X201297722Y-115736972D01*
X201408240Y-115703447D01*
X201518758Y-115736972D01*
X201643240Y-115749232D01*
X201757490Y-115746160D01*
X201916240Y-115587410D01*
X201916240Y-113988160D01*
X202170240Y-113988160D01*
X202170240Y-115587410D01*
X202328990Y-115746160D01*
X202443240Y-115749232D01*
X202567722Y-115736972D01*
X202678240Y-115703447D01*
X202788758Y-115736972D01*
X202913240Y-115749232D01*
X203027490Y-115746160D01*
X203186240Y-115587410D01*
X203186240Y-113988160D01*
X202170240Y-113988160D01*
X201916240Y-113988160D01*
X200900240Y-113988160D01*
X200646240Y-113988160D01*
X199630240Y-113988160D01*
X199376240Y-113988160D01*
X198360240Y-113988160D01*
X198106240Y-113988160D01*
X197090240Y-113988160D01*
X196836240Y-113988160D01*
X196816240Y-113988160D01*
X196816240Y-113734160D01*
X196836240Y-113734160D01*
X196836240Y-113714160D01*
X197090240Y-113714160D01*
X197090240Y-113734160D01*
G36*
X193898758Y-115736972D02*
G01*
X194023240Y-115749232D01*
X194386511Y-115749232D01*
X194601346Y-115964068D01*
X193508260Y-115964068D01*
X193383778Y-115976328D01*
X193264080Y-116012638D01*
X193153766Y-116071603D01*
X193057075Y-116150955D01*
X192977723Y-116247646D01*
X192918758Y-116357960D01*
X192882448Y-116477658D01*
X192870188Y-116602140D01*
X192870188Y-118302140D01*
X192882448Y-118426622D01*
X192918758Y-118546320D01*
X192977723Y-118656634D01*
X193057075Y-118753325D01*
X193153766Y-118832677D01*
X193264080Y-118891642D01*
X193336640Y-118913653D01*
X193204785Y-119045508D01*
X193042270Y-119288729D01*
X192930328Y-119558982D01*
X192873260Y-119845880D01*
X192873260Y-120138400D01*
X192930328Y-120425298D01*
X193042270Y-120695551D01*
X193204785Y-120938772D01*
X193411628Y-121145615D01*
X193586020Y-121262140D01*
X193411628Y-121378665D01*
X193204785Y-121585508D01*
X193042270Y-121828729D01*
X192930328Y-122098982D01*
X192873260Y-122385880D01*
X192873260Y-122678400D01*
X192930328Y-122965298D01*
X193042270Y-123235551D01*
X193204785Y-123478772D01*
X193411628Y-123685615D01*
X193598261Y-123810319D01*
X193598261Y-124282968D01*
X193594584Y-124320300D01*
X193609258Y-124469285D01*
X193652714Y-124612546D01*
X193723286Y-124744576D01*
X193726030Y-124747920D01*
X193584620Y-124747920D01*
X193364472Y-124791710D01*
X186293240Y-117720479D01*
X186293240Y-115738398D01*
X186403240Y-115749232D01*
X187203240Y-115749232D01*
X187327722Y-115736972D01*
X187438240Y-115703447D01*
X187548758Y-115736972D01*
X187673240Y-115749232D01*
X188473240Y-115749232D01*
X188597722Y-115736972D01*
X188708240Y-115703447D01*
X188818758Y-115736972D01*
X188943240Y-115749232D01*
X189743240Y-115749232D01*
X189867722Y-115736972D01*
X189978240Y-115703447D01*
X190088758Y-115736972D01*
X190213240Y-115749232D01*
X191013240Y-115749232D01*
X191137722Y-115736972D01*
X191248240Y-115703447D01*
X191358758Y-115736972D01*
X191483240Y-115749232D01*
X192283240Y-115749232D01*
X192407722Y-115736972D01*
X192518240Y-115703447D01*
X192628758Y-115736972D01*
X192753240Y-115749232D01*
X193553240Y-115749232D01*
X193677722Y-115736972D01*
X193788240Y-115703447D01*
X193898758Y-115736972D01*
G37*
X193898758Y-115736972D02*
X194023240Y-115749232D01*
X194386511Y-115749232D01*
X194601346Y-115964068D01*
X193508260Y-115964068D01*
X193383778Y-115976328D01*
X193264080Y-116012638D01*
X193153766Y-116071603D01*
X193057075Y-116150955D01*
X192977723Y-116247646D01*
X192918758Y-116357960D01*
X192882448Y-116477658D01*
X192870188Y-116602140D01*
X192870188Y-118302140D01*
X192882448Y-118426622D01*
X192918758Y-118546320D01*
X192977723Y-118656634D01*
X193057075Y-118753325D01*
X193153766Y-118832677D01*
X193264080Y-118891642D01*
X193336640Y-118913653D01*
X193204785Y-119045508D01*
X193042270Y-119288729D01*
X192930328Y-119558982D01*
X192873260Y-119845880D01*
X192873260Y-120138400D01*
X192930328Y-120425298D01*
X193042270Y-120695551D01*
X193204785Y-120938772D01*
X193411628Y-121145615D01*
X193586020Y-121262140D01*
X193411628Y-121378665D01*
X193204785Y-121585508D01*
X193042270Y-121828729D01*
X192930328Y-122098982D01*
X192873260Y-122385880D01*
X192873260Y-122678400D01*
X192930328Y-122965298D01*
X193042270Y-123235551D01*
X193204785Y-123478772D01*
X193411628Y-123685615D01*
X193598261Y-123810319D01*
X193598261Y-124282968D01*
X193594584Y-124320300D01*
X193609258Y-124469285D01*
X193652714Y-124612546D01*
X193723286Y-124744576D01*
X193726030Y-124747920D01*
X193584620Y-124747920D01*
X193364472Y-124791710D01*
X186293240Y-117720479D01*
X186293240Y-115738398D01*
X186403240Y-115749232D01*
X187203240Y-115749232D01*
X187327722Y-115736972D01*
X187438240Y-115703447D01*
X187548758Y-115736972D01*
X187673240Y-115749232D01*
X188473240Y-115749232D01*
X188597722Y-115736972D01*
X188708240Y-115703447D01*
X188818758Y-115736972D01*
X188943240Y-115749232D01*
X189743240Y-115749232D01*
X189867722Y-115736972D01*
X189978240Y-115703447D01*
X190088758Y-115736972D01*
X190213240Y-115749232D01*
X191013240Y-115749232D01*
X191137722Y-115736972D01*
X191248240Y-115703447D01*
X191358758Y-115736972D01*
X191483240Y-115749232D01*
X192283240Y-115749232D01*
X192407722Y-115736972D01*
X192518240Y-115703447D01*
X192628758Y-115736972D01*
X192753240Y-115749232D01*
X193553240Y-115749232D01*
X193677722Y-115736972D01*
X193788240Y-115703447D01*
X193898758Y-115736972D01*
G36*
X196819828Y-85812398D02*
G01*
X196807568Y-85936880D01*
X196807568Y-86386880D01*
X196817724Y-86489995D01*
X196765379Y-86542340D01*
X194864782Y-86542340D01*
X194827459Y-86538664D01*
X194790136Y-86542340D01*
X194790127Y-86542340D01*
X194678474Y-86553337D01*
X194535213Y-86596794D01*
X194403184Y-86667366D01*
X194287459Y-86762339D01*
X194263661Y-86791337D01*
X193308738Y-87746261D01*
X193279740Y-87770059D01*
X193255942Y-87799057D01*
X193255941Y-87799058D01*
X193184766Y-87885784D01*
X193178394Y-87897704D01*
X193126590Y-87845900D01*
X192077340Y-87845900D01*
X192077340Y-88770150D01*
X192236090Y-88928900D01*
X192650340Y-88931972D01*
X192774822Y-88919712D01*
X192894520Y-88883402D01*
X193004834Y-88824437D01*
X193059741Y-88779376D01*
X193059740Y-90473292D01*
X193043555Y-90486575D01*
X192964203Y-90583266D01*
X192905238Y-90693580D01*
X192868928Y-90813278D01*
X192859790Y-90906060D01*
X191668814Y-90906060D01*
X191637605Y-90847673D01*
X191527162Y-90713098D01*
X191520606Y-90707718D01*
X191600385Y-90642245D01*
X191679737Y-90545554D01*
X191738702Y-90435240D01*
X191775012Y-90315542D01*
X191787272Y-90191060D01*
X191784200Y-89901810D01*
X191625450Y-89743060D01*
X190576200Y-89743060D01*
X190576200Y-89763060D01*
X190322200Y-89763060D01*
X190322200Y-89743060D01*
X189272950Y-89743060D01*
X189114200Y-89901810D01*
X189111128Y-90191060D01*
X189123388Y-90315542D01*
X189159698Y-90435240D01*
X189218663Y-90545554D01*
X189298015Y-90642245D01*
X189377794Y-90707718D01*
X189371238Y-90713098D01*
X189260795Y-90847673D01*
X189178728Y-91001209D01*
X189128192Y-91167805D01*
X189123335Y-91217123D01*
X188105757Y-92234702D01*
X188076759Y-92258500D01*
X188052961Y-92287498D01*
X188052960Y-92287499D01*
X187981785Y-92374225D01*
X187911213Y-92506255D01*
X187898472Y-92548258D01*
X187867757Y-92649515D01*
X187865849Y-92668888D01*
X187853083Y-92798501D01*
X187856760Y-92835833D01*
X187856759Y-93855380D01*
X187130484Y-94581655D01*
X187127840Y-94225110D01*
X186969090Y-94066360D01*
X186044840Y-94066360D01*
X186044840Y-95115610D01*
X186203590Y-95274360D01*
X186435319Y-95276821D01*
X184232561Y-97479580D01*
X183309467Y-97479580D01*
X183300412Y-97449729D01*
X183218345Y-97296193D01*
X183107902Y-97161618D01*
X182973327Y-97051175D01*
X182819791Y-96969108D01*
X182653195Y-96918572D01*
X182479941Y-96901508D01*
X181829939Y-96901508D01*
X181656685Y-96918572D01*
X181490089Y-96969108D01*
X181336553Y-97051175D01*
X181201978Y-97161618D01*
X181129940Y-97249396D01*
X181057902Y-97161618D01*
X180923327Y-97051175D01*
X180864940Y-97019966D01*
X180864940Y-97015249D01*
X180964751Y-96984972D01*
X181118287Y-96902905D01*
X181252862Y-96792462D01*
X181363305Y-96657887D01*
X181445372Y-96504351D01*
X181495908Y-96337755D01*
X181512972Y-96164501D01*
X181512972Y-95514499D01*
X181495908Y-95341245D01*
X181445372Y-95174649D01*
X181363305Y-95021113D01*
X181252862Y-94886538D01*
X181165084Y-94814500D01*
X181252862Y-94742462D01*
X181363305Y-94607887D01*
X181394514Y-94549500D01*
X182670540Y-94549500D01*
X182671832Y-94562615D01*
X182722368Y-94729211D01*
X182804435Y-94882747D01*
X182914878Y-95017322D01*
X183049453Y-95127765D01*
X183202989Y-95209832D01*
X183369585Y-95260368D01*
X183542839Y-95277432D01*
X184192841Y-95277432D01*
X184366095Y-95260368D01*
X184532691Y-95209832D01*
X184686227Y-95127765D01*
X184820802Y-95017322D01*
X184826182Y-95010766D01*
X184891655Y-95090545D01*
X184988346Y-95169897D01*
X185098660Y-95228862D01*
X185218358Y-95265172D01*
X185342840Y-95277432D01*
X185632090Y-95274360D01*
X185790840Y-95115610D01*
X185790840Y-94066360D01*
X185770840Y-94066360D01*
X185770840Y-93812360D01*
X185790840Y-93812360D01*
X185790840Y-92763110D01*
X186044840Y-92763110D01*
X186044840Y-93812360D01*
X186969090Y-93812360D01*
X187127840Y-93653610D01*
X187130912Y-93239360D01*
X187118652Y-93114878D01*
X187082342Y-92995180D01*
X187023377Y-92884866D01*
X186944025Y-92788175D01*
X186847334Y-92708823D01*
X186737020Y-92649858D01*
X186617322Y-92613548D01*
X186492840Y-92601288D01*
X186203590Y-92604360D01*
X186044840Y-92763110D01*
X185790840Y-92763110D01*
X185632090Y-92604360D01*
X185342840Y-92601288D01*
X185218358Y-92613548D01*
X185098660Y-92649858D01*
X184988346Y-92708823D01*
X184891655Y-92788175D01*
X184826182Y-92867954D01*
X184820802Y-92861398D01*
X184686227Y-92750955D01*
X184532691Y-92668888D01*
X184366095Y-92618352D01*
X184192841Y-92601288D01*
X183542839Y-92601288D01*
X183369585Y-92618352D01*
X183296113Y-92640639D01*
X183373445Y-92589879D01*
X183574693Y-92391902D01*
X183733450Y-92158467D01*
X183843616Y-91898546D01*
X183900957Y-91622127D01*
X183748494Y-91396240D01*
X182596020Y-91396240D01*
X182596020Y-92739155D01*
X182818059Y-92861144D01*
X182875750Y-92850684D01*
X182978688Y-92809030D01*
X182914878Y-92861398D01*
X182804435Y-92995973D01*
X182786514Y-93029500D01*
X181394514Y-93029500D01*
X181363305Y-92971113D01*
X181252862Y-92836538D01*
X181118287Y-92726095D01*
X180964751Y-92644028D01*
X180814922Y-92598578D01*
X180948628Y-92488848D01*
X181127952Y-92270341D01*
X181197142Y-92140895D01*
X181204590Y-92158467D01*
X181363347Y-92391902D01*
X181564595Y-92589879D01*
X181800599Y-92744791D01*
X182062290Y-92850684D01*
X182119981Y-92861144D01*
X182342020Y-92739155D01*
X182342020Y-91396240D01*
X182322020Y-91396240D01*
X182322020Y-91142240D01*
X182342020Y-91142240D01*
X182342020Y-89799325D01*
X182596020Y-89799325D01*
X182596020Y-91142240D01*
X183748494Y-91142240D01*
X183900957Y-90916353D01*
X183843616Y-90639934D01*
X183733450Y-90380013D01*
X183574693Y-90146578D01*
X183373445Y-89948601D01*
X183137441Y-89793689D01*
X182875750Y-89687796D01*
X182818059Y-89677336D01*
X182596020Y-89799325D01*
X182342020Y-89799325D01*
X182119981Y-89677336D01*
X182062290Y-89687796D01*
X181800599Y-89793689D01*
X181564595Y-89948601D01*
X181363347Y-90146578D01*
X181204590Y-90380013D01*
X181197142Y-90397585D01*
X181127952Y-90268139D01*
X180948627Y-90049632D01*
X180730120Y-89870308D01*
X180480827Y-89737058D01*
X180210328Y-89655004D01*
X179929020Y-89627297D01*
X179647711Y-89655004D01*
X179377212Y-89737058D01*
X179127919Y-89870308D01*
X178909412Y-90049633D01*
X178730088Y-90268140D01*
X178659020Y-90401098D01*
X178587952Y-90268139D01*
X178408627Y-90049632D01*
X178190120Y-89870308D01*
X177940827Y-89737058D01*
X177670328Y-89655004D01*
X177389020Y-89627297D01*
X177107711Y-89655004D01*
X176837212Y-89737058D01*
X176587919Y-89870308D01*
X176369412Y-90049633D01*
X176190088Y-90268140D01*
X176119020Y-90401098D01*
X176047952Y-90268139D01*
X175868627Y-90049632D01*
X175650120Y-89870308D01*
X175400827Y-89737058D01*
X175130328Y-89655004D01*
X174849020Y-89627297D01*
X174567711Y-89655004D01*
X174297212Y-89737058D01*
X174082494Y-89851827D01*
X174622409Y-89311912D01*
X174622826Y-89311995D01*
X174826704Y-89311995D01*
X175026663Y-89272221D01*
X175215021Y-89194200D01*
X175384539Y-89080932D01*
X175465871Y-88999600D01*
X181476762Y-88999600D01*
X181603233Y-89037964D01*
X181714886Y-89048961D01*
X181714897Y-89048961D01*
X181752219Y-89052637D01*
X181789541Y-89048961D01*
X183059060Y-89048961D01*
X184752702Y-90742604D01*
X184757957Y-90748737D01*
X184761746Y-90752369D01*
X184790024Y-90784464D01*
X184815663Y-90804043D01*
X185560140Y-91517561D01*
X185564572Y-91562555D01*
X185615108Y-91729151D01*
X185697175Y-91882687D01*
X185807618Y-92017262D01*
X185942193Y-92127705D01*
X186095729Y-92209772D01*
X186262325Y-92260308D01*
X186435579Y-92277372D01*
X187335581Y-92277372D01*
X187508835Y-92260308D01*
X187675431Y-92209772D01*
X187828967Y-92127705D01*
X187963542Y-92017262D01*
X188073985Y-91882687D01*
X188156052Y-91729151D01*
X188206588Y-91562555D01*
X188223652Y-91389301D01*
X188223652Y-90739299D01*
X188206588Y-90566045D01*
X188156052Y-90399449D01*
X188073985Y-90245913D01*
X187963542Y-90111338D01*
X187956986Y-90105958D01*
X188036765Y-90040485D01*
X188116117Y-89943794D01*
X188175082Y-89833480D01*
X188211392Y-89713782D01*
X188223652Y-89589300D01*
X188220580Y-89300050D01*
X188061830Y-89141300D01*
X187012580Y-89141300D01*
X187012580Y-89161300D01*
X186758580Y-89161300D01*
X186758580Y-89141300D01*
X186738580Y-89141300D01*
X186738580Y-89041060D01*
X189111128Y-89041060D01*
X189114200Y-89330310D01*
X189272950Y-89489060D01*
X190322200Y-89489060D01*
X190322200Y-88564810D01*
X190576200Y-88564810D01*
X190576200Y-89489060D01*
X191625450Y-89489060D01*
X191784200Y-89330310D01*
X191787272Y-89041060D01*
X191775012Y-88916578D01*
X191752180Y-88841310D01*
X191823340Y-88770150D01*
X191823340Y-87845900D01*
X190774090Y-87845900D01*
X190615340Y-88004650D01*
X190612268Y-88293900D01*
X190624528Y-88418382D01*
X190647360Y-88493650D01*
X190576200Y-88564810D01*
X190322200Y-88564810D01*
X190163450Y-88406060D01*
X189749200Y-88402988D01*
X189624718Y-88415248D01*
X189505020Y-88451558D01*
X189394706Y-88510523D01*
X189298015Y-88589875D01*
X189218663Y-88686566D01*
X189159698Y-88796880D01*
X189123388Y-88916578D01*
X189111128Y-89041060D01*
X186738580Y-89041060D01*
X186738580Y-88887300D01*
X186758580Y-88887300D01*
X186758580Y-88867300D01*
X187012580Y-88867300D01*
X187012580Y-88887300D01*
X188061830Y-88887300D01*
X188220580Y-88728550D01*
X188223652Y-88439300D01*
X188211392Y-88314818D01*
X188175082Y-88195120D01*
X188116117Y-88084806D01*
X188036765Y-87988115D01*
X187940074Y-87908763D01*
X187829760Y-87849798D01*
X187710062Y-87813488D01*
X187585580Y-87801228D01*
X187171330Y-87804300D01*
X187012582Y-87963048D01*
X187012582Y-87920715D01*
X187043952Y-87817302D01*
X187056212Y-87692820D01*
X187056212Y-86632820D01*
X187043952Y-86508338D01*
X187007642Y-86388640D01*
X186948677Y-86278326D01*
X186869325Y-86181635D01*
X186772634Y-86102283D01*
X186698805Y-86062820D01*
X186772634Y-86023357D01*
X186869325Y-85944005D01*
X186948677Y-85847314D01*
X187007642Y-85737000D01*
X187011943Y-85722820D01*
X190612268Y-85722820D01*
X190612268Y-85993901D01*
X190629332Y-86167155D01*
X190679868Y-86333751D01*
X190761935Y-86487287D01*
X190872378Y-86621862D01*
X190878934Y-86627242D01*
X190799155Y-86692715D01*
X190719803Y-86789406D01*
X190660838Y-86899720D01*
X190624528Y-87019418D01*
X190612268Y-87143900D01*
X190615340Y-87433150D01*
X190774090Y-87591900D01*
X191823340Y-87591900D01*
X191823340Y-87571900D01*
X192077340Y-87571900D01*
X192077340Y-87591900D01*
X193126590Y-87591900D01*
X193285340Y-87433150D01*
X193288412Y-87143900D01*
X193276152Y-87019418D01*
X193239842Y-86899720D01*
X193180877Y-86789406D01*
X193101525Y-86692715D01*
X193021746Y-86627242D01*
X193028302Y-86621862D01*
X193138745Y-86487287D01*
X193169954Y-86428900D01*
X195787498Y-86428900D01*
X195824820Y-86432576D01*
X195862142Y-86428900D01*
X195862153Y-86428900D01*
X195973806Y-86417903D01*
X196117067Y-86374446D01*
X196249096Y-86303874D01*
X196364821Y-86208901D01*
X196388624Y-86179898D01*
X196847567Y-85720954D01*
X196819828Y-85812398D01*
G37*
X196819828Y-85812398D02*
X196807568Y-85936880D01*
X196807568Y-86386880D01*
X196817724Y-86489995D01*
X196765379Y-86542340D01*
X194864782Y-86542340D01*
X194827459Y-86538664D01*
X194790136Y-86542340D01*
X194790127Y-86542340D01*
X194678474Y-86553337D01*
X194535213Y-86596794D01*
X194403184Y-86667366D01*
X194287459Y-86762339D01*
X194263661Y-86791337D01*
X193308738Y-87746261D01*
X193279740Y-87770059D01*
X193255942Y-87799057D01*
X193255941Y-87799058D01*
X193184766Y-87885784D01*
X193178394Y-87897704D01*
X193126590Y-87845900D01*
X192077340Y-87845900D01*
X192077340Y-88770150D01*
X192236090Y-88928900D01*
X192650340Y-88931972D01*
X192774822Y-88919712D01*
X192894520Y-88883402D01*
X193004834Y-88824437D01*
X193059741Y-88779376D01*
X193059740Y-90473292D01*
X193043555Y-90486575D01*
X192964203Y-90583266D01*
X192905238Y-90693580D01*
X192868928Y-90813278D01*
X192859790Y-90906060D01*
X191668814Y-90906060D01*
X191637605Y-90847673D01*
X191527162Y-90713098D01*
X191520606Y-90707718D01*
X191600385Y-90642245D01*
X191679737Y-90545554D01*
X191738702Y-90435240D01*
X191775012Y-90315542D01*
X191787272Y-90191060D01*
X191784200Y-89901810D01*
X191625450Y-89743060D01*
X190576200Y-89743060D01*
X190576200Y-89763060D01*
X190322200Y-89763060D01*
X190322200Y-89743060D01*
X189272950Y-89743060D01*
X189114200Y-89901810D01*
X189111128Y-90191060D01*
X189123388Y-90315542D01*
X189159698Y-90435240D01*
X189218663Y-90545554D01*
X189298015Y-90642245D01*
X189377794Y-90707718D01*
X189371238Y-90713098D01*
X189260795Y-90847673D01*
X189178728Y-91001209D01*
X189128192Y-91167805D01*
X189123335Y-91217123D01*
X188105757Y-92234702D01*
X188076759Y-92258500D01*
X188052961Y-92287498D01*
X188052960Y-92287499D01*
X187981785Y-92374225D01*
X187911213Y-92506255D01*
X187898472Y-92548258D01*
X187867757Y-92649515D01*
X187865849Y-92668888D01*
X187853083Y-92798501D01*
X187856760Y-92835833D01*
X187856759Y-93855380D01*
X187130484Y-94581655D01*
X187127840Y-94225110D01*
X186969090Y-94066360D01*
X186044840Y-94066360D01*
X186044840Y-95115610D01*
X186203590Y-95274360D01*
X186435319Y-95276821D01*
X184232561Y-97479580D01*
X183309467Y-97479580D01*
X183300412Y-97449729D01*
X183218345Y-97296193D01*
X183107902Y-97161618D01*
X182973327Y-97051175D01*
X182819791Y-96969108D01*
X182653195Y-96918572D01*
X182479941Y-96901508D01*
X181829939Y-96901508D01*
X181656685Y-96918572D01*
X181490089Y-96969108D01*
X181336553Y-97051175D01*
X181201978Y-97161618D01*
X181129940Y-97249396D01*
X181057902Y-97161618D01*
X180923327Y-97051175D01*
X180864940Y-97019966D01*
X180864940Y-97015249D01*
X180964751Y-96984972D01*
X181118287Y-96902905D01*
X181252862Y-96792462D01*
X181363305Y-96657887D01*
X181445372Y-96504351D01*
X181495908Y-96337755D01*
X181512972Y-96164501D01*
X181512972Y-95514499D01*
X181495908Y-95341245D01*
X181445372Y-95174649D01*
X181363305Y-95021113D01*
X181252862Y-94886538D01*
X181165084Y-94814500D01*
X181252862Y-94742462D01*
X181363305Y-94607887D01*
X181394514Y-94549500D01*
X182670540Y-94549500D01*
X182671832Y-94562615D01*
X182722368Y-94729211D01*
X182804435Y-94882747D01*
X182914878Y-95017322D01*
X183049453Y-95127765D01*
X183202989Y-95209832D01*
X183369585Y-95260368D01*
X183542839Y-95277432D01*
X184192841Y-95277432D01*
X184366095Y-95260368D01*
X184532691Y-95209832D01*
X184686227Y-95127765D01*
X184820802Y-95017322D01*
X184826182Y-95010766D01*
X184891655Y-95090545D01*
X184988346Y-95169897D01*
X185098660Y-95228862D01*
X185218358Y-95265172D01*
X185342840Y-95277432D01*
X185632090Y-95274360D01*
X185790840Y-95115610D01*
X185790840Y-94066360D01*
X185770840Y-94066360D01*
X185770840Y-93812360D01*
X185790840Y-93812360D01*
X185790840Y-92763110D01*
X186044840Y-92763110D01*
X186044840Y-93812360D01*
X186969090Y-93812360D01*
X187127840Y-93653610D01*
X187130912Y-93239360D01*
X187118652Y-93114878D01*
X187082342Y-92995180D01*
X187023377Y-92884866D01*
X186944025Y-92788175D01*
X186847334Y-92708823D01*
X186737020Y-92649858D01*
X186617322Y-92613548D01*
X186492840Y-92601288D01*
X186203590Y-92604360D01*
X186044840Y-92763110D01*
X185790840Y-92763110D01*
X185632090Y-92604360D01*
X185342840Y-92601288D01*
X185218358Y-92613548D01*
X185098660Y-92649858D01*
X184988346Y-92708823D01*
X184891655Y-92788175D01*
X184826182Y-92867954D01*
X184820802Y-92861398D01*
X184686227Y-92750955D01*
X184532691Y-92668888D01*
X184366095Y-92618352D01*
X184192841Y-92601288D01*
X183542839Y-92601288D01*
X183369585Y-92618352D01*
X183296113Y-92640639D01*
X183373445Y-92589879D01*
X183574693Y-92391902D01*
X183733450Y-92158467D01*
X183843616Y-91898546D01*
X183900957Y-91622127D01*
X183748494Y-91396240D01*
X182596020Y-91396240D01*
X182596020Y-92739155D01*
X182818059Y-92861144D01*
X182875750Y-92850684D01*
X182978688Y-92809030D01*
X182914878Y-92861398D01*
X182804435Y-92995973D01*
X182786514Y-93029500D01*
X181394514Y-93029500D01*
X181363305Y-92971113D01*
X181252862Y-92836538D01*
X181118287Y-92726095D01*
X180964751Y-92644028D01*
X180814922Y-92598578D01*
X180948628Y-92488848D01*
X181127952Y-92270341D01*
X181197142Y-92140895D01*
X181204590Y-92158467D01*
X181363347Y-92391902D01*
X181564595Y-92589879D01*
X181800599Y-92744791D01*
X182062290Y-92850684D01*
X182119981Y-92861144D01*
X182342020Y-92739155D01*
X182342020Y-91396240D01*
X182322020Y-91396240D01*
X182322020Y-91142240D01*
X182342020Y-91142240D01*
X182342020Y-89799325D01*
X182596020Y-89799325D01*
X182596020Y-91142240D01*
X183748494Y-91142240D01*
X183900957Y-90916353D01*
X183843616Y-90639934D01*
X183733450Y-90380013D01*
X183574693Y-90146578D01*
X183373445Y-89948601D01*
X183137441Y-89793689D01*
X182875750Y-89687796D01*
X182818059Y-89677336D01*
X182596020Y-89799325D01*
X182342020Y-89799325D01*
X182119981Y-89677336D01*
X182062290Y-89687796D01*
X181800599Y-89793689D01*
X181564595Y-89948601D01*
X181363347Y-90146578D01*
X181204590Y-90380013D01*
X181197142Y-90397585D01*
X181127952Y-90268139D01*
X180948627Y-90049632D01*
X180730120Y-89870308D01*
X180480827Y-89737058D01*
X180210328Y-89655004D01*
X179929020Y-89627297D01*
X179647711Y-89655004D01*
X179377212Y-89737058D01*
X179127919Y-89870308D01*
X178909412Y-90049633D01*
X178730088Y-90268140D01*
X178659020Y-90401098D01*
X178587952Y-90268139D01*
X178408627Y-90049632D01*
X178190120Y-89870308D01*
X177940827Y-89737058D01*
X177670328Y-89655004D01*
X177389020Y-89627297D01*
X177107711Y-89655004D01*
X176837212Y-89737058D01*
X176587919Y-89870308D01*
X176369412Y-90049633D01*
X176190088Y-90268140D01*
X176119020Y-90401098D01*
X176047952Y-90268139D01*
X175868627Y-90049632D01*
X175650120Y-89870308D01*
X175400827Y-89737058D01*
X175130328Y-89655004D01*
X174849020Y-89627297D01*
X174567711Y-89655004D01*
X174297212Y-89737058D01*
X174082494Y-89851827D01*
X174622409Y-89311912D01*
X174622826Y-89311995D01*
X174826704Y-89311995D01*
X175026663Y-89272221D01*
X175215021Y-89194200D01*
X175384539Y-89080932D01*
X175465871Y-88999600D01*
X181476762Y-88999600D01*
X181603233Y-89037964D01*
X181714886Y-89048961D01*
X181714897Y-89048961D01*
X181752219Y-89052637D01*
X181789541Y-89048961D01*
X183059060Y-89048961D01*
X184752702Y-90742604D01*
X184757957Y-90748737D01*
X184761746Y-90752369D01*
X184790024Y-90784464D01*
X184815663Y-90804043D01*
X185560140Y-91517561D01*
X185564572Y-91562555D01*
X185615108Y-91729151D01*
X185697175Y-91882687D01*
X185807618Y-92017262D01*
X185942193Y-92127705D01*
X186095729Y-92209772D01*
X186262325Y-92260308D01*
X186435579Y-92277372D01*
X187335581Y-92277372D01*
X187508835Y-92260308D01*
X187675431Y-92209772D01*
X187828967Y-92127705D01*
X187963542Y-92017262D01*
X188073985Y-91882687D01*
X188156052Y-91729151D01*
X188206588Y-91562555D01*
X188223652Y-91389301D01*
X188223652Y-90739299D01*
X188206588Y-90566045D01*
X188156052Y-90399449D01*
X188073985Y-90245913D01*
X187963542Y-90111338D01*
X187956986Y-90105958D01*
X188036765Y-90040485D01*
X188116117Y-89943794D01*
X188175082Y-89833480D01*
X188211392Y-89713782D01*
X188223652Y-89589300D01*
X188220580Y-89300050D01*
X188061830Y-89141300D01*
X187012580Y-89141300D01*
X187012580Y-89161300D01*
X186758580Y-89161300D01*
X186758580Y-89141300D01*
X186738580Y-89141300D01*
X186738580Y-89041060D01*
X189111128Y-89041060D01*
X189114200Y-89330310D01*
X189272950Y-89489060D01*
X190322200Y-89489060D01*
X190322200Y-88564810D01*
X190576200Y-88564810D01*
X190576200Y-89489060D01*
X191625450Y-89489060D01*
X191784200Y-89330310D01*
X191787272Y-89041060D01*
X191775012Y-88916578D01*
X191752180Y-88841310D01*
X191823340Y-88770150D01*
X191823340Y-87845900D01*
X190774090Y-87845900D01*
X190615340Y-88004650D01*
X190612268Y-88293900D01*
X190624528Y-88418382D01*
X190647360Y-88493650D01*
X190576200Y-88564810D01*
X190322200Y-88564810D01*
X190163450Y-88406060D01*
X189749200Y-88402988D01*
X189624718Y-88415248D01*
X189505020Y-88451558D01*
X189394706Y-88510523D01*
X189298015Y-88589875D01*
X189218663Y-88686566D01*
X189159698Y-88796880D01*
X189123388Y-88916578D01*
X189111128Y-89041060D01*
X186738580Y-89041060D01*
X186738580Y-88887300D01*
X186758580Y-88887300D01*
X186758580Y-88867300D01*
X187012580Y-88867300D01*
X187012580Y-88887300D01*
X188061830Y-88887300D01*
X188220580Y-88728550D01*
X188223652Y-88439300D01*
X188211392Y-88314818D01*
X188175082Y-88195120D01*
X188116117Y-88084806D01*
X188036765Y-87988115D01*
X187940074Y-87908763D01*
X187829760Y-87849798D01*
X187710062Y-87813488D01*
X187585580Y-87801228D01*
X187171330Y-87804300D01*
X187012582Y-87963048D01*
X187012582Y-87920715D01*
X187043952Y-87817302D01*
X187056212Y-87692820D01*
X187056212Y-86632820D01*
X187043952Y-86508338D01*
X187007642Y-86388640D01*
X186948677Y-86278326D01*
X186869325Y-86181635D01*
X186772634Y-86102283D01*
X186698805Y-86062820D01*
X186772634Y-86023357D01*
X186869325Y-85944005D01*
X186948677Y-85847314D01*
X187007642Y-85737000D01*
X187011943Y-85722820D01*
X190612268Y-85722820D01*
X190612268Y-85993901D01*
X190629332Y-86167155D01*
X190679868Y-86333751D01*
X190761935Y-86487287D01*
X190872378Y-86621862D01*
X190878934Y-86627242D01*
X190799155Y-86692715D01*
X190719803Y-86789406D01*
X190660838Y-86899720D01*
X190624528Y-87019418D01*
X190612268Y-87143900D01*
X190615340Y-87433150D01*
X190774090Y-87591900D01*
X191823340Y-87591900D01*
X191823340Y-87571900D01*
X192077340Y-87571900D01*
X192077340Y-87591900D01*
X193126590Y-87591900D01*
X193285340Y-87433150D01*
X193288412Y-87143900D01*
X193276152Y-87019418D01*
X193239842Y-86899720D01*
X193180877Y-86789406D01*
X193101525Y-86692715D01*
X193021746Y-86627242D01*
X193028302Y-86621862D01*
X193138745Y-86487287D01*
X193169954Y-86428900D01*
X195787498Y-86428900D01*
X195824820Y-86432576D01*
X195862142Y-86428900D01*
X195862153Y-86428900D01*
X195973806Y-86417903D01*
X196117067Y-86374446D01*
X196249096Y-86303874D01*
X196364821Y-86208901D01*
X196388624Y-86179898D01*
X196847567Y-85720954D01*
X196819828Y-85812398D01*
G36*
X185178638Y-85737000D02*
G01*
X185237603Y-85847314D01*
X185270140Y-85886961D01*
X185270140Y-85969070D01*
X185407993Y-86106923D01*
X185316955Y-86181635D01*
X185237603Y-86278326D01*
X185178638Y-86388640D01*
X185144644Y-86500703D01*
X185142056Y-86502087D01*
X185107642Y-86388640D01*
X185048677Y-86278326D01*
X184969325Y-86181635D01*
X184878287Y-86106923D01*
X185016140Y-85969070D01*
X185016140Y-85886961D01*
X185048677Y-85847314D01*
X185107642Y-85737000D01*
X185143140Y-85619979D01*
X185178638Y-85737000D01*
G37*
X185178638Y-85737000D02*
X185237603Y-85847314D01*
X185270140Y-85886961D01*
X185270140Y-85969070D01*
X185407993Y-86106923D01*
X185316955Y-86181635D01*
X185237603Y-86278326D01*
X185178638Y-86388640D01*
X185144644Y-86500703D01*
X185142056Y-86502087D01*
X185107642Y-86388640D01*
X185048677Y-86278326D01*
X184969325Y-86181635D01*
X184878287Y-86106923D01*
X185016140Y-85969070D01*
X185016140Y-85886961D01*
X185048677Y-85847314D01*
X185107642Y-85737000D01*
X185143140Y-85619979D01*
X185178638Y-85737000D01*
M02*
